<?xml version="1.0" encoding="UTF-8" standalone="no"?>
<svg width="800px" height="500px" viewBox="0 0 800 500" version="1.1" xmlns="http://www.w3.org/2000/svg" xmlns:xlink="http://www.w3.org/1999/xlink" xmlns:sketch="http://www.bohemiancoding.com/sketch/ns">
    <!-- Generator: Sketch 3.5.1 (25234) - http://www.bohemiancoding.com/sketch -->
    <title>Page 1</title>
    <desc>Created with Sketch.</desc>
    <defs></defs>
    <g id="Page-1" stroke="none" stroke-width="1" fill="none" fill-rule="evenodd" sketch:type="MSPage">
        <g sketch:type="MSLayerGroup">
            <path d="M0,500 L800,500 L800,0 L0,0 L0,500 Z" id="Fill-1" fill="#74ACDF" sketch:type="MSShapeGroup"></path>
            <path d="M0,333.34 L800,333.34 L800,166.67 L0,166.67 L0,333.34 Z" id="Fill-2" fill="#FFFFFF" sketch:type="MSShapeGroup"></path>
            <g id="Group-133" sketch:type="MSShapeGroup">
                <g id="Group-6">
                    <path d="M402.4775,272.8135 C402.1305,282.2415 407.9295,287.4265 407.1715,295.8455 C406.4155,304.2655 411.0395,309.0255 412.1115,312.2985 C413.1845,315.5735 410.9515,317.5315 411.9135,317.9975 C412.8765,318.4635 414.9835,315.8765 414.2965,311.2215 C413.6095,306.5675 410.0765,305.1855 410.9065,294.9025 C411.7365,284.6195 406.7015,282.2235 407.9265,272.8435 M396.8395,251.3105 L425.2935,313.3025 C425.2935,313.3025 425.7835,314.4875 426.5735,314.1615 C427.3635,313.8345 426.8725,312.6495 426.8725,312.6495 L403.1575,248.6935" id="Fill-3" fill="#F7B40E"></path>
                    <path d="M402.4775,272.8135 C402.1305,282.2415 407.9295,287.4265 407.1715,295.8455 C406.4155,304.2655 411.0395,309.0255 412.1115,312.2985 C413.1845,315.5735 410.9515,317.5315 411.9135,317.9975 C412.8765,318.4635 414.9835,315.8765 414.2965,311.2215 C413.6095,306.5675 410.0765,305.1855 410.9065,294.9025 C411.7365,284.6195 406.7015,282.2235 407.9265,272.8435 M396.8395,251.3105 L425.2935,313.3025 C425.2935,313.3025 425.7835,314.4875 426.5735,314.1615 C427.3635,313.8345 426.8725,312.6495 426.8725,312.6495 L403.1575,248.6935" id="Stroke-5" stroke="#853409" stroke-width="1.112"></path>
                </g>
                <g id="Group-10">
                    <path d="M393.5586,272.0254 C389.6306,280.6024 393.0036,287.6124 389.0816,295.1004 C385.1606,302.5894 387.6106,308.7564 387.3486,312.1924 C387.0866,315.6284 384.2746,316.5824 384.9856,317.3804 C385.6966,318.1794 388.6326,316.5964 389.7796,312.0334 C390.9266,307.4694 388.1906,304.8404 392.8936,295.6584 C397.5956,286.4754 393.8596,282.3364 398.5806,274.1384 M396.5796,250.0014 L399.1436,318.1634 C399.1436,318.1634 399.1426,319.4454 399.9966,319.4464 C400.8526,319.4474 400.8516,318.1644 400.8516,318.1644 L403.4166,250.0014" id="Fill-7" fill="#F7B40E"></path>
                    <path d="M393.5586,272.0254 C389.6306,280.6024 393.0036,287.6124 389.0816,295.1004 C385.1606,302.5894 387.6106,308.7564 387.3486,312.1924 C387.0866,315.6284 384.2746,316.5824 384.9856,317.3804 C385.6966,318.1794 388.6326,316.5964 389.7796,312.0334 C390.9266,307.4694 388.1906,304.8404 392.8936,295.6584 C397.5956,286.4754 393.8596,282.3364 398.5806,274.1384 M396.5796,250.0014 L399.1436,318.1634 C399.1436,318.1634 399.1426,319.4454 399.9966,319.4464 C400.8526,319.4474 400.8516,318.1644 400.8516,318.1644 L403.4166,250.0014" id="Stroke-9" stroke="#853409" stroke-width="1.112"></path>
                </g>
                <g id="Group-14">
                    <path d="M385.6201,267.8838 C378.7091,274.3048 379.1421,282.0718 372.6531,287.4888 C366.1641,292.9078 366.0681,299.5428 364.5121,302.6158 C362.9551,305.6918 359.9911,305.4958 360.3431,306.5058 C360.6941,307.5168 364.0131,307.1768 366.8181,303.4008 C369.6251,299.6228 368.1031,296.1478 375.9621,289.4628 C383.8201,282.7798 381.9521,277.5248 389.4521,271.7588 M396.8391,248.6928 L373.1241,312.6478 C373.1241,312.6478 372.6321,313.8308 373.4221,314.1588 C374.2121,314.4878 374.7021,313.3018 374.7021,313.3018 L403.1561,251.3088" id="Fill-11" fill="#F7B40E"></path>
                    <path d="M385.6201,267.8838 C378.7091,274.3048 379.1421,282.0718 372.6531,287.4888 C366.1641,292.9078 366.0681,299.5428 364.5121,302.6158 C362.9551,305.6918 359.9911,305.4958 360.3431,306.5058 C360.6941,307.5168 364.0131,307.1768 366.8181,303.4008 C369.6251,299.6228 368.1031,296.1478 375.9621,289.4628 C383.8201,282.7798 381.9521,277.5248 389.4521,271.7588 M396.8391,248.6928 L373.1241,312.6478 C373.1241,312.6478 372.6321,313.8308 373.4221,314.1588 C374.2121,314.4878 374.7021,313.3018 374.7021,313.3018 L403.1561,251.3088" id="Stroke-13" stroke="#853409" stroke-width="1.112"></path>
                </g>
                <g id="Group-18">
                    <path d="M379.8711,261.0195 C371.0281,264.3075 368.4571,271.6495 360.3891,274.1705 C352.3201,276.6935 349.6921,282.7875 347.0781,285.0315 C344.4631,287.2755 341.8001,285.9615 341.7371,287.0285 C341.6761,288.0965 344.8711,289.0535 348.9091,286.6375 C352.9471,284.2215 352.8711,280.4275 362.6891,277.2605 C372.5081,274.0915 372.7931,268.5225 381.9291,266.0665 M397.5801,247.5815 L351.1951,297.5935 C351.1951,297.5935 350.2881,298.4985 350.8921,299.1045 C351.4961,299.7095 352.4031,298.8025 352.4031,298.8025 L402.4151,252.4175" id="Fill-15" fill="#F7B40E"></path>
                    <path d="M379.8711,261.0195 C371.0281,264.3075 368.4571,271.6495 360.3891,274.1705 C352.3201,276.6935 349.6921,282.7875 347.0781,285.0315 C344.4631,287.2755 341.8001,285.9615 341.7371,287.0285 C341.6761,288.0965 344.8711,289.0535 348.9091,286.6375 C352.9471,284.2215 352.8711,280.4275 362.6891,277.2605 C372.5081,274.0915 372.7931,268.5225 381.9291,266.0665 M397.5801,247.5815 L351.1951,297.5935 C351.1951,297.5935 350.2881,298.4985 350.8921,299.1045 C351.4961,299.7095 352.4031,298.8025 352.4031,298.8025 L402.4151,252.4175" id="Stroke-17" stroke="#853409" stroke-width="1.112"></path>
                </g>
                <path d="M398.4199,250.7471 L417.9059,293.3241 L401.5769,249.4371 M404.3099,274.4101 C404.7629,283.4641 409.8969,287.4741 408.8889,295.7251 C411.1019,289.1991 405.7649,284.1421 406.0679,274.5041" id="Fill-19" fill="#853409"></path>
                <path d="M398.2539,250.0859 L399.9639,296.8789 L401.6729,250.0839 M394.6409,274.2009 C391.5939,282.7389 394.8029,288.4079 390.7139,295.6459 C395.2559,290.4639 392.2609,283.7489 396.2289,274.9619" id="Fill-21" fill="#853409"></path>
                <path d="M398.3545,249.4111 L382.0275,293.2971 L401.5135,250.7181 M385.7875,270.3081 C379.7055,277.0311 380.5005,283.4961 373.9535,288.6171 C380.1315,285.5681 379.9345,278.2191 386.9635,271.6181" id="Fill-23" fill="#853409"></path>
                <path d="M398.7051,248.8262 L366.8261,283.1242 L401.1231,251.2432 M379.0971,263.3232 C370.9061,267.2072 369.1661,273.4842 361.1571,275.7102 C368.0331,275.2582 370.6641,268.3912 379.6841,264.9842" id="Fill-25" fill="#853409"></path>
                <g id="Group-30">
                    <path d="M377.1865,252.4785 C367.7585,252.1315 362.5735,257.9305 354.1545,257.1725 C345.7345,256.4155 340.9745,261.0405 337.7005,262.1125 C334.4255,263.1855 332.4675,260.9525 332.0015,261.9145 C331.5365,262.8765 334.1235,264.9845 338.7785,264.2965 C343.4325,263.6105 344.8145,260.0775 355.0975,260.9075 C365.3805,261.7375 367.7755,256.7015 377.1565,257.9275 M398.6895,246.8395 L336.6975,275.2935 C336.6975,275.2935 335.5125,275.7845 335.8385,276.5745 C336.1655,277.3645 337.3505,276.8735 337.3505,276.8735 L401.3065,253.1585" id="Fill-27" fill="#F7B40E"></path>
                    <path d="M377.1865,252.4785 C367.7585,252.1315 362.5735,257.9305 354.1545,257.1725 C345.7345,256.4155 340.9745,261.0405 337.7005,262.1125 C334.4255,263.1855 332.4675,260.9525 332.0015,261.9145 C331.5365,262.8765 334.1235,264.9845 338.7785,264.2965 C343.4325,263.6105 344.8145,260.0775 355.0975,260.9075 C365.3805,261.7375 367.7755,256.7015 377.1565,257.9275 M398.6895,246.8395 L336.6975,275.2935 C336.6975,275.2935 335.5125,275.7845 335.8385,276.5745 C336.1655,277.3645 337.3505,276.8735 337.3505,276.8735 L401.3065,253.1585" id="Stroke-29" stroke="#853409" stroke-width="1.112"></path>
                </g>
                <g id="Group-34">
                    <path d="M377.9746,243.5596 C369.3976,239.6316 362.3876,243.0046 354.8996,239.0816 C347.4106,235.1616 341.2436,237.6116 337.8076,237.3496 C334.3716,237.0876 333.4176,234.2756 332.6196,234.9856 C331.8196,235.6976 333.4036,238.6336 337.9666,239.7806 C342.5306,240.9276 345.1596,238.1916 354.3416,242.8946 C363.5246,247.5956 367.6636,243.8606 375.8616,248.5816 M399.9976,246.5796 L331.8366,249.1446 C331.8366,249.1446 330.5546,249.1436 330.5536,249.9976 C330.5526,250.8536 331.8356,250.8526 331.8356,250.8526 L399.9976,253.4176" id="Fill-31" fill="#F7B40E"></path>
                    <path d="M377.9746,243.5596 C369.3976,239.6316 362.3876,243.0046 354.8996,239.0816 C347.4106,235.1616 341.2436,237.6116 337.8076,237.3496 C334.3716,237.0876 333.4176,234.2756 332.6196,234.9856 C331.8196,235.6976 333.4036,238.6336 337.9666,239.7806 C342.5306,240.9276 345.1596,238.1916 354.3416,242.8946 C363.5246,247.5956 367.6636,243.8606 375.8616,248.5816 M399.9976,246.5796 L331.8366,249.1446 C331.8366,249.1446 330.5546,249.1436 330.5536,249.9976 C330.5526,250.8536 331.8356,250.8526 331.8356,250.8526 L399.9976,253.4176" id="Stroke-33" stroke="#853409" stroke-width="1.112"></path>
                </g>
                <g id="Group-38">
                    <path d="M382.1162,235.6211 C375.6942,228.7101 367.9282,229.1431 362.5112,222.6541 C357.0922,216.1651 350.4562,216.0691 347.3832,214.5131 C344.3082,212.9561 344.5042,209.9921 343.4942,210.3431 C342.4832,210.6941 342.8222,214.0141 346.5992,216.8191 C350.3772,219.6251 353.8522,218.1031 360.5372,225.9631 C367.2202,233.8201 372.4752,231.9531 378.2412,239.4531 M401.3072,246.8401 L337.3522,223.1251 C337.3522,223.1251 336.1692,222.6331 335.8412,223.4231 C335.5122,224.2121 336.6982,224.7031 336.6982,224.7031 L398.6902,253.1571" id="Fill-35" fill="#F7B40E"></path>
                    <path d="M382.1162,235.6211 C375.6942,228.7101 367.9282,229.1431 362.5112,222.6541 C357.0922,216.1651 350.4562,216.0691 347.3832,214.5131 C344.3082,212.9561 344.5042,209.9921 343.4942,210.3431 C342.4832,210.6941 342.8222,214.0141 346.5992,216.8191 C350.3772,219.6251 353.8522,218.1031 360.5372,225.9631 C367.2202,233.8201 372.4752,231.9531 378.2412,239.4531 M401.3072,246.8401 L337.3522,223.1251 C337.3522,223.1251 336.1692,222.6331 335.8412,223.4231 C335.5122,224.2121 336.6982,224.7031 336.6982,224.7031 L398.6902,253.1571" id="Stroke-37" stroke="#853409" stroke-width="1.112"></path>
                </g>
                <g id="Group-42">
                    <path d="M388.9805,229.8721 C385.6925,221.0291 378.3505,218.4581 375.8295,210.3901 C373.3065,202.3211 367.2125,199.6931 364.9685,197.0781 C362.7245,194.4641 364.0385,191.8011 362.9715,191.7381 C361.9025,191.6761 360.9465,194.8721 363.3625,198.9101 C365.7785,202.9481 369.5715,202.8721 372.7395,212.6901 C375.9085,222.5091 381.4765,222.7941 383.9335,231.9291 M402.4185,247.5811 L352.4065,201.1961 C352.4065,201.1961 351.5005,200.2891 350.8955,200.8931 C350.2905,201.4971 351.1975,202.4041 351.1975,202.4041 L397.5825,252.4161" id="Fill-39" fill="#F7B40E"></path>
                    <path d="M388.9805,229.8721 C385.6925,221.0291 378.3505,218.4581 375.8295,210.3901 C373.3065,202.3211 367.2125,199.6931 364.9685,197.0781 C362.7245,194.4641 364.0385,191.8011 362.9715,191.7381 C361.9025,191.6761 360.9465,194.8721 363.3625,198.9101 C365.7785,202.9481 369.5715,202.8721 372.7395,212.6901 C375.9085,222.5091 381.4765,222.7941 383.9335,231.9291 M402.4185,247.5811 L352.4065,201.1961 C352.4065,201.1961 351.5005,200.2891 350.8955,200.8931 C350.2905,201.4971 351.1975,202.4041 351.1975,202.4041 L397.5825,252.4161" id="Stroke-41" stroke="#853409" stroke-width="1.112"></path>
                </g>
                <path d="M399.2529,248.4199 L356.6759,267.9069 L400.5629,251.5779 M375.5899,254.3109 C366.5359,254.7639 362.5259,259.8979 354.2749,258.8889 C360.8009,261.1029 365.8579,255.7659 375.4949,256.0689" id="Fill-43" fill="#853409"></path>
                <path d="M399.9141,248.2549 L353.1211,249.9649 L399.9161,251.6739 M375.7981,244.6409 C367.2601,241.5949 361.5921,244.8039 354.3541,240.7149 C359.5361,245.2569 366.2511,242.2619 375.0381,246.2299" id="Fill-45" fill="#853409"></path>
                <path d="M400.5889,248.3545 L356.7029,232.0275 L399.2819,251.5135 M379.6919,235.7875 C372.9689,229.7065 366.5039,230.5005 361.3829,223.9545 C364.4319,230.1325 371.7809,229.9355 378.3809,236.9645" id="Fill-47" fill="#853409"></path>
                <path d="M401.1738,248.7051 L366.8758,216.8271 L398.7568,251.1241 M386.6758,229.0981 C382.7928,220.9061 376.5158,219.1671 374.2898,211.1581 C374.7418,218.0331 381.6078,220.6641 385.0158,229.6841" id="Fill-49" fill="#853409"></path>
                <g id="Group-54">
                    <path d="M397.5215,227.1875 C397.8685,217.7595 392.0695,212.5745 392.8275,204.1555 C393.5835,195.7355 388.9595,190.9755 387.8875,187.7015 C386.8145,184.4265 389.0475,182.4685 388.0855,182.0025 C387.1225,181.5375 385.0155,184.1245 385.7025,188.7785 C386.3895,193.4335 389.9225,194.8155 389.0915,205.0985 C388.2625,215.3815 393.2975,217.7765 392.0725,227.1565 M403.1595,248.6905 L374.7055,186.6985 C374.7055,186.6985 374.2155,185.5135 373.4255,185.8395 C372.6355,186.1665 373.1265,187.3515 373.1265,187.3515 L396.8415,251.3075" id="Fill-51" fill="#F7B40E"></path>
                    <path d="M397.5215,227.1875 C397.8685,217.7595 392.0695,212.5745 392.8275,204.1555 C393.5835,195.7355 388.9595,190.9755 387.8875,187.7015 C386.8145,184.4265 389.0475,182.4685 388.0855,182.0025 C387.1225,181.5375 385.0155,184.1245 385.7025,188.7785 C386.3895,193.4335 389.9225,194.8155 389.0915,205.0985 C388.2625,215.3815 393.2975,217.7765 392.0725,227.1565 M403.1595,248.6905 L374.7055,186.6985 C374.7055,186.6985 374.2155,185.5135 373.4255,185.8395 C372.6355,186.1665 373.1265,187.3515 373.1265,187.3515 L396.8415,251.3075" id="Stroke-53" stroke="#853409" stroke-width="1.112"></path>
                </g>
                <g id="Group-58">
                    <path d="M406.4404,227.9756 C410.3684,219.3986 406.9954,212.3886 410.9174,204.9006 C414.8384,197.4116 412.3884,191.2446 412.6504,187.8086 C412.9124,184.3726 415.7244,183.4176 415.0134,182.6206 C414.3024,181.8206 411.3664,183.4046 410.2194,187.9676 C409.0724,192.5316 411.8084,195.1606 407.1054,204.3426 C402.4034,213.5256 406.1394,217.6646 401.4184,225.8626 M403.4194,249.9986 L400.8554,181.8366 C400.8554,181.8366 400.8564,180.5546 400.0024,180.5536 C399.1464,180.5536 399.1474,181.8356 399.1474,181.8356 L396.5824,249.9986" id="Fill-55" fill="#F7B40E"></path>
                    <path d="M406.4404,227.9756 C410.3684,219.3986 406.9954,212.3886 410.9174,204.9006 C414.8384,197.4116 412.3884,191.2446 412.6504,187.8086 C412.9124,184.3726 415.7244,183.4176 415.0134,182.6206 C414.3024,181.8206 411.3664,183.4046 410.2194,187.9676 C409.0724,192.5316 411.8084,195.1606 407.1054,204.3426 C402.4034,213.5256 406.1394,217.6646 401.4184,225.8626 M403.4194,249.9986 L400.8554,181.8366 C400.8554,181.8366 400.8564,180.5546 400.0024,180.5536 C399.1464,180.5536 399.1474,181.8356 399.1474,181.8356 L396.5824,249.9986" id="Stroke-57" stroke="#853409" stroke-width="1.112"></path>
                </g>
                <g id="Group-62">
                    <path d="M414.3789,232.1172 C421.2899,225.6952 420.8569,217.9292 427.3459,212.5122 C433.8339,207.0932 433.9309,200.4572 435.4869,197.3842 C437.0439,194.3092 440.0079,194.5042 439.6559,193.4952 C439.3049,192.4832 435.9859,192.8232 433.1809,196.6002 C430.3739,200.3782 431.8959,203.8532 424.0369,210.5372 C416.1789,217.2212 418.0469,222.4762 410.5469,228.2422 M403.1599,251.3082 L426.8749,187.3532 C426.8749,187.3532 427.3669,186.1692 426.5769,185.8412 C425.7869,185.5132 425.2969,186.6992 425.2969,186.6992 L396.8429,248.6912" id="Fill-59" fill="#F7B40E"></path>
                    <path d="M414.3789,232.1172 C421.2899,225.6952 420.8569,217.9292 427.3459,212.5122 C433.8339,207.0932 433.9309,200.4572 435.4869,197.3842 C437.0439,194.3092 440.0079,194.5042 439.6559,193.4952 C439.3049,192.4832 435.9859,192.8232 433.1809,196.6002 C430.3739,200.3782 431.8959,203.8532 424.0369,210.5372 C416.1789,217.2212 418.0469,222.4762 410.5469,228.2422 M403.1599,251.3082 L426.8749,187.3532 C426.8749,187.3532 427.3669,186.1692 426.5769,185.8412 C425.7869,185.5132 425.2969,186.6992 425.2969,186.6992 L396.8429,248.6912" id="Stroke-61" stroke="#853409" stroke-width="1.112"></path>
                </g>
                <g id="Group-66">
                    <path d="M420.1279,238.9805 C428.9709,235.6935 431.5419,228.3515 439.6099,225.8305 C447.6789,223.3065 450.3069,217.2125 452.9209,214.9695 C455.5359,212.7245 458.1989,214.0395 458.2619,212.9715 C458.3229,211.9035 455.1279,210.9475 451.0899,213.3635 C447.0519,215.7795 447.1279,219.5725 437.3099,222.7405 C427.4909,225.9085 427.2059,231.4775 418.0699,233.9345 M402.4189,252.4185 L448.8039,202.4075 C448.8039,202.4075 449.7109,201.5015 449.1069,200.8955 C448.5029,200.2915 447.5959,201.1985 447.5959,201.1985 L397.5839,247.5835" id="Fill-63" fill="#F7B40E"></path>
                    <path d="M420.1279,238.9805 C428.9709,235.6935 431.5419,228.3515 439.6099,225.8305 C447.6789,223.3065 450.3069,217.2125 452.9209,214.9695 C455.5359,212.7245 458.1989,214.0395 458.2619,212.9715 C458.3229,211.9035 455.1279,210.9475 451.0899,213.3635 C447.0519,215.7795 447.1279,219.5725 437.3099,222.7405 C427.4909,225.9085 427.2059,231.4775 418.0699,233.9345 M402.4189,252.4185 L448.8039,202.4075 C448.8039,202.4075 449.7109,201.5015 449.1069,200.8955 C448.5029,200.2915 447.5959,201.1985 447.5959,201.1985 L397.5839,247.5835" id="Stroke-65" stroke="#853409" stroke-width="1.112"></path>
                </g>
                <path d="M401.5791,249.2529 L382.0931,206.6769 L398.4221,250.5639 M395.6891,225.5899 C395.2361,216.5359 390.1021,212.5269 391.1101,204.2759 C388.8971,210.8009 394.2341,215.8589 393.9311,225.4959" id="Fill-67" fill="#853409"></path>
                <path d="M401.7451,249.915 L400.0351,203.121 L398.3261,249.917 M405.3591,225.799 C408.4041,217.261 405.1961,211.593 409.2851,204.355 C404.7431,209.536 407.7381,216.252 403.7691,225.039" id="Fill-69" fill="#853409"></path>
                <path d="M401.6445,250.5889 L417.9715,206.7029 L398.4855,249.2819 M414.2115,229.6929 C420.2935,222.9699 419.4985,216.5049 426.0455,211.3829 C419.8675,214.4319 420.0645,221.7819 413.0355,228.3819" id="Fill-71" fill="#853409"></path>
                <path d="M401.2939,251.1738 L433.1729,216.8768 L398.8749,248.7578 M420.9019,236.6768 C429.0929,232.7938 430.8329,226.5168 438.8419,224.2898 C431.9659,224.7418 429.3349,231.6088 420.3149,235.0168" id="Fill-73" fill="#853409"></path>
                <g id="Group-78">
                    <path d="M422.8125,247.5225 C432.2405,247.8695 437.4255,242.0705 445.8445,242.8285 C454.2645,243.5845 459.0245,238.9605 462.2985,237.8885 C465.5735,236.8155 467.5315,239.0485 467.9975,238.0865 C468.4625,237.1235 465.8755,235.0165 461.2205,235.7035 C456.5665,236.3895 455.1845,239.9235 444.9015,239.0925 C434.6185,238.2625 432.2225,243.2985 422.8425,242.0735 M401.3095,253.1605 L463.3015,224.7065 C463.3015,224.7065 464.4865,224.2165 464.1605,223.4265 C463.8335,222.6355 462.6485,223.1275 462.6485,223.1275 L398.6925,246.8425" id="Fill-75" fill="#F7B40E"></path>
                    <path d="M422.8125,247.5225 C432.2405,247.8695 437.4255,242.0705 445.8445,242.8285 C454.2645,243.5845 459.0245,238.9605 462.2985,237.8885 C465.5735,236.8155 467.5315,239.0485 467.9975,238.0865 C468.4625,237.1235 465.8755,235.0165 461.2205,235.7035 C456.5665,236.3895 455.1845,239.9235 444.9015,239.0925 C434.6185,238.2625 432.2225,243.2985 422.8425,242.0735 M401.3095,253.1605 L463.3015,224.7065 C463.3015,224.7065 464.4865,224.2165 464.1605,223.4265 C463.8335,222.6355 462.6485,223.1275 462.6485,223.1275 L398.6925,246.8425" id="Stroke-77" stroke="#853409" stroke-width="1.112"></path>
                </g>
                <g id="Group-82">
                    <path d="M422.0244,256.4414 C430.6014,260.3694 437.6114,256.9964 445.0994,260.9184 C452.5884,264.8394 458.7554,262.3884 462.1914,262.6514 C465.6274,262.9134 466.5814,265.7254 467.3794,265.0144 C468.1794,264.3024 466.5954,261.3674 462.0324,260.2194 C457.4684,259.0734 454.8394,261.8084 445.6574,257.1064 C436.4744,252.4044 432.3354,256.1404 424.1374,251.4184 M400.0014,253.4204 L468.1624,250.8564 C468.1624,250.8564 469.4444,250.8574 469.4454,250.0024 C469.4464,249.1474 468.1634,249.1474 468.1634,249.1474 L400.0004,246.5834" id="Fill-79" fill="#F7B40E"></path>
                    <path d="M422.0244,256.4414 C430.6014,260.3694 437.6114,256.9964 445.0994,260.9184 C452.5884,264.8394 458.7554,262.3884 462.1914,262.6514 C465.6274,262.9134 466.5814,265.7254 467.3794,265.0144 C468.1794,264.3024 466.5954,261.3674 462.0324,260.2194 C457.4684,259.0734 454.8394,261.8084 445.6574,257.1064 C436.4744,252.4044 432.3354,256.1404 424.1374,251.4184 M400.0014,253.4204 L468.1624,250.8564 C468.1624,250.8564 469.4444,250.8574 469.4454,250.0024 C469.4464,249.1474 468.1634,249.1474 468.1634,249.1474 L400.0004,246.5834" id="Stroke-81" stroke="#853409" stroke-width="1.112"></path>
                </g>
                <g id="Group-86">
                    <path d="M417.8828,264.3799 C424.3048,271.2909 432.0708,270.8569 437.4878,277.3469 C442.9068,283.8349 449.5428,283.9319 452.6158,285.4879 C455.6908,287.0449 455.4948,290.0079 456.5048,289.6569 C457.5158,289.3059 457.1768,285.9869 453.3998,283.1809 C449.6218,280.3749 446.1468,281.8969 439.4618,274.0379 C432.7788,266.1799 427.5238,268.0469 421.7578,260.5479 M398.6918,253.1609 L462.6468,276.8759 C462.6468,276.8759 463.8298,277.3679 464.1578,276.5779 C464.4868,275.7879 463.3008,275.2979 463.3008,275.2979 L401.3088,246.8429" id="Fill-83" fill="#F7B40E"></path>
                    <path d="M417.8828,264.3799 C424.3048,271.2909 432.0708,270.8569 437.4878,277.3469 C442.9068,283.8349 449.5428,283.9319 452.6158,285.4879 C455.6908,287.0449 455.4948,290.0079 456.5048,289.6569 C457.5158,289.3059 457.1768,285.9869 453.3998,283.1809 C449.6218,280.3749 446.1468,281.8969 439.4618,274.0379 C432.7788,266.1799 427.5238,268.0469 421.7578,260.5479 M398.6918,253.1609 L462.6468,276.8759 C462.6468,276.8759 463.8298,277.3679 464.1578,276.5779 C464.4868,275.7879 463.3008,275.2979 463.3008,275.2979 L401.3088,246.8429" id="Stroke-85" stroke="#853409" stroke-width="1.112"></path>
                </g>
                <g id="Group-90">
                    <path d="M411.0186,270.1289 C414.3066,278.9719 421.6486,281.5429 424.1696,289.6109 C426.6926,297.6799 432.7866,300.3079 435.0306,302.9219 C437.2746,305.5359 435.9606,308.1999 437.0276,308.2629 C438.0956,308.3239 439.0526,305.1279 436.6366,301.0909 C434.2206,297.0529 430.4276,297.1279 427.2596,287.3099 C424.0906,277.4919 418.5226,277.2069 416.0656,268.0709 M397.5806,252.4199 L447.5926,298.8039 C447.5926,298.8039 448.4976,299.7119 449.1036,299.1079 C449.7086,298.5029 448.8016,297.5969 448.8016,297.5969 L402.4166,247.5839" id="Fill-87" fill="#F7B40E"></path>
                    <path d="M411.0186,270.1289 C414.3066,278.9719 421.6486,281.5429 424.1696,289.6109 C426.6926,297.6799 432.7866,300.3079 435.0306,302.9219 C437.2746,305.5359 435.9606,308.1999 437.0276,308.2629 C438.0956,308.3239 439.0526,305.1279 436.6366,301.0909 C434.2206,297.0529 430.4276,297.1279 427.2596,287.3099 C424.0906,277.4919 418.5226,277.2069 416.0656,268.0709 M397.5806,252.4199 L447.5926,298.8039 C447.5926,298.8039 448.4976,299.7119 449.1036,299.1079 C449.7086,298.5029 448.8016,297.5969 448.8016,297.5969 L402.4166,247.5839" id="Stroke-89" stroke="#853409" stroke-width="1.112"></path>
                </g>
                <path d="M400.7461,251.5801 L443.3231,232.0941 L399.4361,248.4221 M424.4091,245.6901 C433.4631,245.2371 437.4731,240.1031 445.7241,241.1111 C439.1981,238.8981 434.1411,244.2351 424.5041,243.9321" id="Fill-91" fill="#853409"></path>
                <path d="M400.085,251.7461 L446.878,250.0361 L400.083,248.3271 M424.201,255.3591 C432.739,258.4051 438.407,255.1971 445.645,259.2861 C440.463,254.7441 433.748,257.7391 424.961,253.7701" id="Fill-93" fill="#853409"></path>
                <path d="M399.4102,251.6455 L443.2972,267.9725 L400.7172,248.4865 M420.3072,264.2125 C427.0302,270.2945 433.4952,269.4995 438.6162,276.0465 C435.5672,269.8685 428.2182,270.0645 421.6172,263.0365" id="Fill-95" fill="#853409"></path>
                <path d="M398.8252,251.2949 L433.1232,283.1739 L401.2422,248.8759 M413.3222,270.9029 C417.2062,279.0939 423.4832,280.8339 425.7092,288.8419 C425.2572,281.9669 418.3912,279.3359 414.9832,270.3159" id="Fill-97" fill="#853409"></path>
                <path d="M400,222.2227 C415.341,222.2227 427.777,234.6597 427.777,249.9997 C427.777,265.3417 415.341,277.7787 400,277.7787 C384.658,277.7787 372.222,265.3417 372.222,249.9997 C372.222,234.6597 384.658,222.2227 400,222.2227" id="Fill-99" fill="#F7B40E"></path>
                <path d="M400,222.2227 C415.341,222.2227 427.777,234.6597 427.777,249.9997 C427.777,265.3417 415.341,277.7787 400,277.7787 C384.658,277.7787 372.222,265.3417 372.222,249.9997 C372.222,234.6597 384.658,222.2227 400,222.2227 L400,222.2227 Z" id="Stroke-101" stroke="#853409" stroke-width="1.5"></path>
                <path d="M409.4385,244.498 C411.2845,244.464 413.0095,245.312 413.2515,246.154 C411.1145,248.504 407.7005,248.3 405.5635,246.592 C406.4985,245.096 408.0015,244.523 409.4385,244.498 L409.4385,244.498 Z M409.4695,244.061 C407.5735,244.061 405.7565,244.882 404.6885,246.592 C406.8255,248.515 411.5445,248.724 414.7505,246.373 C413.3625,244.877 411.3665,244.061 409.4685,244.061 L409.4695,244.061 Z" id="Fill-103" fill="#843511"></path>
                <path d="M409.8291,242.7402 C407.0531,242.7402 406.4111,243.3822 405.1291,244.4502 C403.8461,245.5182 403.2051,245.3042 402.9921,245.5182 C402.7791,245.7322 402.9921,246.3732 403.4191,246.1582 C403.8461,245.9442 404.7021,245.5182 405.9821,244.4502 C407.2661,243.3802 408.5451,243.3822 409.8281,243.3822 C413.6751,243.3822 415.8111,246.5862 416.2371,246.3722 C416.6641,246.1582 414.1001,242.7402 409.8281,242.7402 L409.8291,242.7402 Z" id="Fill-105" fill="#853409"></path>
                <path d="M417.5195,244.0205 C412.6045,239.7475 406.4095,239.1055 402.9895,242.3115 C402.1525,243.4325 401.6165,244.6305 401.3965,245.8805 C400.9655,248.3145 401.7265,250.9435 403.6325,253.6365 C403.4175,253.6355 402.9895,253.8495 402.7765,254.0635 C401.0795,250.8195 400.4795,247.4875 401.0365,244.3185 C401.1815,243.4905 401.4095,242.6755 401.7055,241.8825 C406.4065,238.0375 412.8155,237.6095 417.5165,244.0205 L417.5195,244.0205 Z" id="Fill-107" fill="#853409"></path>
                <path d="M409.4014,244.2275 C410.4634,244.2275 411.3244,245.0875 411.3244,246.1505 C411.3244,247.2115 410.4634,248.0735 409.4014,248.0735 C408.3394,248.0735 407.4784,247.2115 407.4784,246.1505 C407.4784,245.0875 408.3394,244.2275 409.4014,244.2275" id="Fill-109" fill="#853409"></path>
                <path d="M414.96,247.4404 C411.327,250.2184 407.694,250.0044 405.558,248.7224 C403.421,247.4404 403.421,247.0134 403.848,247.0134 C404.274,247.0134 404.701,247.4404 406.411,248.2944 C408.121,249.1504 410.685,249.1504 414.957,247.4404 L414.96,247.4404 Z" id="Fill-111" fill="#853409"></path>
                <path d="M395.75,253.8398 C394.836,254.0068 394.188,254.8178 394.188,255.7458 C394.188,256.8078 395.064,257.6528 396.125,257.6528 C396.751,257.6528 397.327,257.3558 397.687,256.8398 C398.427,257.3968 399.451,257.4548 400,257.4648 C400.084,257.4668 400.192,257.4648 400.25,257.4648 C400.798,257.4548 401.822,257.3968 402.562,256.8398 C402.922,257.3558 403.498,257.6528 404.125,257.6528 C405.185,257.6528 406.063,256.8078 406.063,255.7458 C406.063,254.8178 405.413,254.0068 404.5,253.8398 C405.013,254.0218 405.344,254.5168 405.344,255.0588 C405.344,255.7668 404.772,256.3398 404.063,256.3398 C403.382,256.3398 402.82,255.7998 402.781,255.1208 C402.572,255.5378 401.747,256.7768 400.125,256.8398 C398.503,256.7768 397.677,255.5378 397.469,255.1208 C397.429,255.7998 396.867,256.3398 396.187,256.3398 C395.478,256.3398 394.906,255.7668 394.906,255.0588 C394.906,254.5168 395.237,254.0218 395.75,253.8398" id="Fill-113" fill="#853409"></path>
                <path d="M397.8398,259.5303 C395.7008,259.5303 394.8568,261.4673 392.9338,262.7493 C394.0018,262.3233 394.8428,261.4793 396.3398,260.6243 C397.8358,259.7693 399.1108,260.8113 399.9648,260.8113 L399.9958,260.8113 C400.8488,260.8113 402.1248,259.7693 403.6208,260.6243 C405.1168,261.4803 405.9888,262.3233 407.0588,262.7493 C405.1348,261.4673 404.2588,259.5303 402.1208,259.5303 C401.6938,259.5303 400.8488,259.7603 399.9958,260.1863 L399.9648,260.1863 C399.1108,259.7593 398.2668,259.5303 397.8398,259.5303" id="Fill-115" fill="#853409"></path>
                <path d="M397.1191,262.0605 C396.2751,262.0975 395.1601,262.2665 393.5561,262.7475 C397.4041,261.8935 398.2531,263.1855 399.9631,263.1855 L399.9941,263.1855 C401.7041,263.1855 402.5531,261.8935 406.4001,262.7475 C402.1261,261.4655 401.2761,262.3105 399.9941,262.3105 L399.9631,262.3105 C399.1621,262.3105 398.5261,261.9985 397.1191,262.0605" id="Fill-117" fill="#853409"></path>
                <path d="M393.75,262.7207 C393.501,262.7237 393.23,262.7257 392.938,262.7517 C397.425,263.1787 395.268,265.7517 399.968,265.7517 L399.999,265.7517 C404.7,265.7517 402.574,263.1787 407.062,262.7517 C402.361,262.3247 403.848,265.0957 399.999,265.0957 L399.968,265.0957 C396.36,265.0957 397.473,262.6737 393.749,262.7207 L393.75,262.7207 Z" id="Fill-119" fill="#853409"></path>
                <path d="M403.8496,269.6602 C403.8496,267.5372 402.1256,265.8132 400.0026,265.8132 C397.8796,265.8132 396.1576,267.5372 396.1576,269.6602 C396.5796,267.8792 398.1736,266.6212 400.0026,266.6212 C401.8366,266.6212 403.4266,267.8802 403.8496,269.6602" id="Fill-121" fill="#853409"></path>
                <path d="M382.7295,244.0205 C387.6445,239.7475 393.8395,239.1055 397.2595,242.3115 C398.0965,243.4325 398.6325,244.6305 398.8525,245.8805 C399.2835,248.3145 398.5225,250.9435 396.6165,253.6365 C396.8315,253.6355 397.2595,253.8495 397.4725,254.0635 C399.1695,250.8195 399.7695,247.4875 399.2125,244.3185 C399.0675,243.4905 398.8395,242.6755 398.5425,241.8825 C393.8425,238.0375 387.4335,237.6095 382.7325,244.0205 L382.7295,244.0205 Z" id="Fill-123" fill="#853409"></path>
                <path d="M390.4199,242.7402 C393.1959,242.7402 393.8379,243.3822 395.1199,244.4502 C396.4029,245.5182 397.0439,245.3042 397.2569,245.5182 C397.4699,245.7322 397.2569,246.3732 396.8299,246.1582 C396.4029,245.9442 395.5469,245.5182 394.2669,244.4502 C392.9829,243.3802 391.7039,243.3822 390.4209,243.3822 C386.5739,243.3822 384.4379,246.5862 384.0119,246.3722 C383.5849,246.1582 386.1489,242.7402 390.4209,242.7402 L390.4199,242.7402 Z" id="Fill-125" fill="#853409"></path>
                <path d="M390.2578,244.498 C392.1038,244.464 393.8288,245.312 394.0708,246.154 C391.9338,248.504 388.5188,248.3 386.3828,246.592 C387.3178,245.096 388.8208,244.523 390.2578,244.498 M390.2878,244.061 C388.3918,244.061 386.5748,244.882 385.5078,246.592 C387.6438,248.515 392.3638,248.724 395.5698,246.373 C394.1808,244.877 392.1848,244.061 390.2878,244.061" id="Fill-127" fill="#843511"></path>
                <path d="M390.5391,244.2275 C391.6011,244.2275 392.4631,245.0875 392.4631,246.1505 C392.4631,247.2115 391.6011,248.0735 390.5391,248.0735 C389.4771,248.0735 388.6161,247.2115 388.6161,246.1505 C388.6161,245.0875 389.4771,244.2275 390.5391,244.2275" id="Fill-129" fill="#853409"></path>
                <path d="M385.2891,247.4404 C388.9221,250.2184 392.5551,250.0044 394.6911,248.7224 C396.8281,247.4404 396.8281,247.0134 396.4011,247.0134 C395.9751,247.0134 395.5481,247.4404 393.8381,248.2944 C392.1281,249.1504 389.5641,249.1504 385.2921,247.4404 L385.2891,247.4404 Z" id="Fill-131" fill="#853409"></path>
            </g>
        </g>
    </g>
</svg>