<?xml version="1.0" encoding="utf-8"?>
<!-- Generator: Adobe Illustrator 18.1.1, SVG Export Plug-In . SVG Version: 6.00 Build 0)  -->
<svg version="1.1" id="Layer_1" xmlns="http://www.w3.org/2000/svg" xmlns:xlink="http://www.w3.org/1999/xlink" x="0px" y="0px"
	 viewBox="0 0 47 41.4" enable-background="new 0 0 47 41.4" xml:space="preserve">
<g>
	<path d="M37.7,11.2c0,0,0-0.1,0-0.1c0.2-0.5,0.3-1,0.3-1.5c0-2.1-1.7-3.7-3.7-3.7H19.1c-2.6,0-5.2,0.9-7.2,2.6l-3.7,3.1
		c-1,0.7-1.7,1.8-1.7,3.1c0,2,1.6,3.6,3.6,3.7v15.7c0,0.6,0.6,0.9,1.1,0.9h16.4c0.3,0,0.5-0.1,0.7-0.3l7.3-6
		c0.2-0.2,0.4-0.5,0.4-0.8V13.3c0-0.1,0-0.2,0-0.2C36.8,12.8,37.4,12.1,37.7,11.2z M36,10.1l-3.9,3.4c-0.2-0.7-0.6-1.4-1.2-1.9
		l4.3-3.7C35.7,8.4,36,8.9,36,9.6C36,9.8,36,10,36,10.1z M19.1,7.8h13.2l-3.6,3c0,0-0.1,0-0.1,0H12.1l1.1-0.9
		C14.8,8.6,16.9,7.8,19.1,7.8z M27,32.8H12c0-3,0-15.4,0-15.6c0,0,0,0,0,0c0-0.6-0.3-1.4-0.9-1.4h-1c-0.9,0-1.7-0.6-1.7-1.5
		c0-0.4,0.2-0.7,0.4-1l0.4-0.3c0.2-0.1,0.5-0.2,0.8-0.2h18.4c0.9,0,1.7,0.6,1.7,1.5s-0.7,1.5-1.7,1.5h-1c-0.6,0-0.6,0.8-0.6,1.4
		V32.8z M29,31.8V18.2c1,0,2-0.6,2.6-1.4l2.4-2.3v12.8L29,31.8z"/>
	<circle cx="15.8" cy="19.8" r="1.1"/>
	<circle cx="16.8" cy="28.8" r="1.1"/>
	<circle cx="21.8" cy="23.8" r="1.1"/>
</g>
</svg>
