<?xml version="1.0" encoding="utf-8"?>
<!-- Generator: Adobe Illustrator 18.1.1, SVG Export Plug-In . SVG Version: 6.00 Build 0)  -->
<svg version="1.1" id="Layer_1" xmlns="http://www.w3.org/2000/svg" xmlns:xlink="http://www.w3.org/1999/xlink" x="0px" y="0px"
	 viewBox="0 0 47 41.4" enable-background="new 0 0 47 41.4" xml:space="preserve">
<g>
	<g>
		<path d="M10.8,27.4c-0.1,0-0.2,0-0.2,0L4.3,26c-2.4-0.5-4.1-2.6-4.1-5L0,11c0-1.7,0.8-3.4,2.3-4.4l8.4-5.7
			c1.1-0.8,2.5-1.1,3.9-0.9l10.9,1.7c2.6,0.4,4.5,2.6,4.5,5.1v2.7c0,0.6-0.5,1-1,1s-1-0.5-1-1V6.9c0-1.6-1.2-2.9-2.7-3.1L14.2,2.1
			c-0.9-0.1-1.7,0.1-2.4,0.5L3.4,8.3C2.5,8.9,2,9.9,2,11l0.2,10c0,1.4,1.1,2.7,2.5,3l6.2,1.4c0.6,0.1,0.9,0.7,0.8,1.2
			C11.6,27.1,11.2,27.4,10.8,27.4z"/>
	</g>
	<g>
		<path d="M15.4,11.7c-0.1,0-0.2,0-0.4,0l-6.3-1.1C7.9,10.4,7.2,9.7,7,8.9C6.9,8,7.3,7.2,8,6.7c1.7-1,3.6-2.2,4.3-2.7
			c0.4-0.3,0.9-0.4,1.4-0.3l7,0.9c0.9,0.1,1.6,0.8,1.8,1.6c0.2,0.9-0.2,1.7-1,2.2l-5.1,2.9C16.1,11.6,15.8,11.7,15.4,11.7z
			 M13.5,5.7c-0.8,0.5-2.8,1.7-4.4,2.8l6.3,1.1c0,0,0,0,0,0l5.1-2.9L13.5,5.7z"/>
	</g>
	<g>
		<path d="M27.1,41.4L27.1,41.4c-1,0-2-0.2-2.9-0.7l-6.9-3.4c-2.2-1.1-3.5-3.2-3.5-5.6v-9.5c0-2.5,1.5-4.8,3.9-5.8l12.4-5.3
			c1.5-0.6,3.2-0.7,4.7-0.1l7.9,2.8c2.6,0.9,4.3,3.3,4.3,6v9.7c0,2.5-1.5,4.8-3.9,5.8l-13.5,5.7C28.8,41.2,28,41.4,27.1,41.4z
			 M32.7,12.6c-0.6,0-1.2,0.1-1.8,0.4l-12.4,5.3c-1.6,0.7-2.6,2.2-2.6,3.9v9.5c0,1.6,0.9,3.1,2.4,3.8l6.9,3.4c0.6,0.3,1.3,0.5,2,0.5
			h0c0.6,0,1.2-0.1,1.8-0.4l13.5-5.7c1.6-0.7,2.7-2.2,2.7-3.9v-9.7c0-1.8-1.2-3.4-2.9-4l-7.9-2.8C33.7,12.7,33.2,12.6,32.7,12.6z"/>
	</g>
	<g>
		<path d="M28,37.3c-0.6,0-1-0.5-1-1V27c0-1.1-0.6-2-1.6-2.5L19,21.3c-0.5-0.3-0.7-0.9-0.4-1.4c0.3-0.5,0.9-0.7,1.4-0.4l6.4,3.3
			C28,23.5,29,25.2,29,27v9.2C29,36.9,28.6,37.3,28,37.3z"/>
	</g>
	<g>
		<path d="M29.7,21.4c-0.1,0-0.3,0-0.4-0.1l-4.5-1.9c-0.4-0.2-0.6-0.5-0.6-0.9c0-0.4,0.2-0.8,0.6-0.9l6.4-3c0.2-0.1,0.5-0.1,0.8,0
			l5.1,1.8c0.4,0.1,0.7,0.5,0.7,0.9s-0.2,0.8-0.6,1l-7,3.2C30,21.3,29.8,21.4,29.7,21.4z M27.7,18.4l2,0.9l4.2-1.9l-2.3-0.8
			L27.7,18.4z"/>
	</g>
</g>
</svg>
