<?xml version="1.0" encoding="utf-8"?>
<!-- Generator: Adobe Illustrator 18.1.1, SVG Export Plug-In . SVG Version: 6.00 Build 0)  -->
<svg version="1.1" id="Layer_1" xmlns="http://www.w3.org/2000/svg" xmlns:xlink="http://www.w3.org/1999/xlink" x="0px" y="0px"
	 viewBox="0 0 33.8 30.7" enable-background="new 0 0 33.8 30.7" xml:space="preserve">
<g>
	<path fill="#48525B" d="M29.9,21.5h-21c-0.7,0-1.3-0.5-1.5-1.2L5,7.2L0.4,2.6C-0.1,2-0.1,1,0.4,0.4C1-0.1,2-0.1,2.6,0.4l4.9,4.9
		c0.2,0.2,0.4,0.5,0.4,0.8l2.2,12.3h18.4l2.3-13.1C31,4.5,31.8,4,32.6,4.1C33.4,4.3,34,5,33.8,5.9l-2.5,14.4
		C31.2,21,30.6,21.5,29.9,21.5z"/>
</g>
<g>
	<circle fill="#48525B" cx="13.1" cy="27.4" r="3.3"/>
</g>
<g>
	<circle fill="#48525B" cx="25" cy="27.4" r="3.3"/>
</g>
</svg>
