<?xml version="1.0" encoding="UTF-8" standalone="no"?>
<svg width="44px" height="40px" viewBox="0 0 44 40" version="1.1" xmlns="http://www.w3.org/2000/svg" xmlns:xlink="http://www.w3.org/1999/xlink" xmlns:sketch="http://www.bohemiancoding.com/sketch/ns">
    <!-- Generator: Sketch 3.5.1 (25234) - http://www.bohemiancoding.com/sketch -->
    <title>cart+</title>
    <desc>Created with Sketch.</desc>
    <defs></defs>
    <g id="Page-1" stroke="none" stroke-width="1" fill="none" fill-rule="evenodd" sketch:type="MSPage">
        <g id="cart+" sketch:type="MSLayerGroup" fill="#FFFFFF">
            <path d="M38,29.4 L12.5,29.4 C11.3,29.4 10.3,28.5 10,27.3 L7.2,11.6 L1.7,6.1 C0.7,5.1 0.7,3.5 1.7,2.6 C2.7,1.6 4.3,1.6 5.2,2.6 L11.2,8.6 C11.6,9 11.8,9.4 11.9,9.9 L14.5,24.3 L35.8,24.3 L38.4,8.9 C38.6,7.5 39.9,6.6 41.3,6.9 C42.7,7.1 43.6,8.4 43.3,9.8 L40.3,27.3 C40.3,28.5 39.2,29.4 38,29.4 L38,29.4 Z" id="Shape" sketch:type="MSShapeGroup"></path>
            <circle id="Oval" sketch:type="MSShapeGroup" cx="17.6" cy="35.9" r="4"></circle>
            <circle id="Oval" sketch:type="MSShapeGroup" cx="32.1" cy="35.9" r="4"></circle>
            <g id="Group" transform="translate(15.000000, 0.000000)" sketch:type="MSShapeGroup">
                <path d="M16.5,11.8 L3,11.8 C1.6,11.8 0.5,10.7 0.5,9.3 C0.5,7.9 1.6,6.8 3,6.8 L16.5,6.8 C17.9,6.8 19,7.9 19,9.3 C19,10.7 17.9,11.8 16.5,11.8 L16.5,11.8 Z" id="Shape"></path>
                <path d="M9.8,18.5 C8.4,18.5 7.3,17.4 7.3,16 L7.3,2.5 C7.3,1.1 8.4,0 9.8,0 C11.2,0 12.3,1.1 12.3,2.5 L12.3,16 C12.3,17.4 11.1,18.5 9.8,18.5 L9.8,18.5 Z" id="Shape"></path>
            </g>
        </g>
    </g>
</svg>