<?xml version="1.0" encoding="utf-8"?>
<!-- Generator: Adobe Illustrator 18.1.1, SVG Export Plug-In . SVG Version: 6.00 Build 0)  -->
<svg version="1.1" id="Layer_1" xmlns="http://www.w3.org/2000/svg" xmlns:xlink="http://www.w3.org/1999/xlink" x="0px" y="0px"
	 viewBox="0 0 53.2 48.9" enable-background="new 0 0 53.2 48.9" xml:space="preserve">
<g>
	<g>
		<path d="M10.3,22.4c-0.8,0-1.5-0.3-2-0.8l-3.4-3.4c-0.5-0.5-0.8-1.2-0.8-2c0-0.7,0.3-1.4,0.9-1.9L8.6,11c1.1-1,2.9-0.9,3.9,0.1
			l3.4,3.4c0.5,0.5,0.8,1.2,0.8,2c0,0.7-0.3,1.4-0.9,1.9l-3.5,3.3C11.7,22.2,11,22.4,10.3,22.4z M10.5,12c-0.3,0-0.5,0.1-0.7,0.3
			l-3.5,3.3C6,15.7,5.9,16,5.9,16.2c0,0.3,0.1,0.5,0.3,0.7l3.4,3.4c0.4,0.4,1.1,0.4,1.5,0l3.5-3.3c0.2-0.2,0.3-0.4,0.3-0.7
			c0-0.3-0.1-0.5-0.3-0.7l-3.4-3.4C11.1,12.1,10.8,12,10.5,12z"/>
	</g>
	<g>
		<path d="M10.2,26.5c-1.3,0-2.5-0.5-3.3-1.4l-5.6-5.8C0.4,18.4,0,17.2,0,16c0-1.2,0.5-2.4,1.4-3.2l5.9-5.6C8.1,6.4,9.3,6,10.5,6
			c1.3,0,2.5,0.5,3.3,1.4l5.6,5.8c0.8,0.9,1.3,2,1.3,3.3c0,1.2-0.5,2.4-1.4,3.2l-5.9,5.6C12.5,26.1,11.4,26.5,10.2,26.5z M10.5,8
			C9.8,8,9.1,8.2,8.7,8.7l-5.9,5.6C2.3,14.7,2,15.4,2,16.1c0,0.7,0.2,1.4,0.7,1.8l5.6,5.8c1,1,2.7,1,3.7,0.1l5.9-5.6
			c0.5-0.5,0.8-1.1,0.8-1.8c0-0.7-0.2-1.4-0.7-1.8l-5.6-5.8C11.9,8.2,11.2,8,10.5,8z"/>
	</g>
</g>
<g>
	<g>
		<path d="M21.1,33.6c-0.8,0-1.5-0.3-2-0.8l-3.4-3.4c-0.5-0.5-0.8-1.2-0.8-2c0-0.7,0.3-1.4,0.9-1.9l3.5-3.3c1.1-1,2.9-1,3.9,0.1
			l3.4,3.4c0.5,0.5,0.8,1.2,0.8,2c0,0.7-0.3,1.4-0.9,1.9L23,32.9C22.5,33.4,21.8,33.6,21.1,33.6z M21.2,23.2c-0.3,0-0.5,0.1-0.7,0.3
			l-3.5,3.3c-0.2,0.2-0.3,0.4-0.3,0.7c0,0.3,0.1,0.5,0.3,0.7l3.4,3.4c0.4,0.4,1.1,0.4,1.5,0l3.5-3.3c0.2-0.2,0.3-0.4,0.3-0.7
			c0-0.3-0.1-0.5-0.3-0.7L22,23.5C21.8,23.3,21.5,23.2,21.2,23.2z"/>
	</g>
	<g>
		<path d="M20.9,37.7c-1.3,0-2.5-0.5-3.3-1.4L12,30.5c-0.8-0.9-1.3-2-1.3-3.3c0-1.2,0.5-2.4,1.4-3.2l5.9-5.6c0.9-0.8,2-1.3,3.2-1.3
			c1.3,0,2.5,0.5,3.3,1.4l5.6,5.8c0.8,0.9,1.3,2,1.3,3.3c0,1.2-0.5,2.4-1.4,3.2l-5.9,5.6C23.2,37.3,22.1,37.7,20.9,37.7z M21.2,19.2
			c-0.7,0-1.3,0.3-1.8,0.7l-5.9,5.6c-0.5,0.5-0.8,1.1-0.8,1.8c0,0.7,0.2,1.4,0.7,1.8l5.6,5.8c1,1,2.7,1,3.7,0.1l5.9-5.6
			c0.5-0.5,0.8-1.1,0.8-1.8c0-0.7-0.2-1.4-0.7-1.8L23.1,20C22.6,19.4,21.9,19.2,21.2,19.2z"/>
	</g>
</g>
<g>
	<g>
		<path d="M32.1,23.3c-0.8,0-1.5-0.3-2.1-0.9l-3.4-3.6c-0.5-0.5-0.8-1.3-0.8-2c0-0.8,0.3-1.5,0.9-2l3.6-3.4c1.1-1,3-1,4,0.1l3.4,3.6
			c0.5,0.5,0.8,1.3,0.8,2c0,0.8-0.3,1.5-0.9,2l-3.6,3.4C33.6,23.1,32.9,23.3,32.1,23.3z M32.3,12.4c-0.3,0-0.5,0.1-0.7,0.3L28,16.2
			c-0.2,0.2-0.3,0.5-0.3,0.7c0,0.3,0.1,0.5,0.3,0.7l3.4,3.6c0.4,0.4,1.1,0.4,1.5,0l3.6-3.4c0.2-0.2,0.3-0.5,0.3-0.7
			c0-0.3-0.1-0.5-0.3-0.7l-3.4-3.6C32.9,12.5,32.6,12.4,32.3,12.4z"/>
	</g>
	<g>
		<path d="M32,27.2c-1.3,0-2.5-0.5-3.3-1.4L23.1,20c-0.8-0.9-1.3-2-1.3-3.3c0-1.2,0.5-2.4,1.4-3.2l5.9-5.6c0.9-0.8,2-1.3,3.2-1.3
			c1.3,0,2.5,0.5,3.3,1.4l5.6,5.8c0.8,0.9,1.3,2,1.3,3.3c0,1.2-0.5,2.4-1.4,3.2l-5.9,5.6C34.3,26.7,33.2,27.2,32,27.2z M32.3,8.6
			c-0.7,0-1.3,0.3-1.8,0.7l-5.9,5.6c-0.5,0.5-0.8,1.1-0.8,1.8c0,0.7,0.2,1.4,0.7,1.8l5.6,5.8c1,1,2.7,1,3.7,0.1l5.9-5.6
			c0.5-0.5,0.8-1.1,0.8-1.8c0-0.7-0.2-1.4-0.7-1.8l-5.6-5.8C33.7,8.9,33,8.6,32.3,8.6z"/>
	</g>
</g>
<g>
	<g>
		<path d="M26.8,3.1c-0.5,0.3-1.1,0.6-1.7,0.8l1.2,1.2c0.2,0.2,0.3,0.5,0.3,0.7c0,0.3-0.1,0.5-0.3,0.7l-3.6,3.4
			c-0.4,0.4-1.1,0.4-1.5,0l-3.4-3.6c-0.2-0.2-0.3-0.5-0.3-0.7c0-0.3,0.1-0.5,0.3-0.7l1.4-1.3c-0.6-0.3-1.1-0.6-1.6-1l-1.1,1
			c-0.6,0.5-0.9,1.2-0.9,2c0,0.8,0.3,1.5,0.8,2l3.4,3.6c0.5,0.6,1.3,0.9,2.1,0.9c0.7,0,1.4-0.3,2-0.8l3.6-3.4c0.6-0.5,0.9-1.2,0.9-2
			c0-0.8-0.3-1.5-0.8-2L26.8,3.1z"/>
	</g>
	<g>
		<path d="M31,2.7l-1.8-1.9c-0.4,0.6-0.8,1.1-1.3,1.5l1.7,1.8c0.5,0.5,0.7,1.2,0.7,1.8c0,0.7-0.3,1.3-0.8,1.8l-5.9,5.6
			c-1,1-2.7,0.9-3.7-0.1l-5.6-5.8c-0.5-0.5-0.7-1.2-0.7-1.8c0-0.7,0.3-1.3,0.8-1.8l2.1-2c-0.4-0.5-0.8-1.1-1.1-1.7L13,2.3
			c-0.9,0.8-1.4,2-1.4,3.2c0,1.2,0.4,2.4,1.3,3.3l5.6,5.8c0.9,0.9,2.1,1.4,3.3,1.4c1.2,0,2.3-0.5,3.2-1.3l5.9-5.6
			c0.9-0.8,1.4-2,1.4-3.2C32.3,4.7,31.8,3.5,31,2.7z"/>
	</g>
</g>
<g>
	<g>
		<path d="M31.8,44.8c-0.8,0-1.5-0.3-2-0.8l-3.4-3.4c-0.5-0.5-0.8-1.2-0.8-2c0-0.7,0.3-1.4,0.9-1.9l3.5-3.3c1.1-1,2.9-1,3.9,0.1
			l3.4,3.4c0.5,0.5,0.8,1.2,0.8,2c0,0.7-0.3,1.4-0.9,1.9l-3.5,3.3C33.2,44.6,32.5,44.8,31.8,44.8z M32,34.4c-0.3,0-0.5,0.1-0.7,0.3
			l-3.5,3.3c-0.2,0.2-0.3,0.4-0.3,0.7c0,0.3,0.1,0.5,0.3,0.7l3.4,3.4c0.4,0.4,1.1,0.4,1.5,0l3.5-3.3c0.2-0.2,0.3-0.4,0.3-0.7
			c0-0.3-0.1-0.5-0.3-0.7l-3.4-3.4C32.5,34.5,32.3,34.4,32,34.4z"/>
	</g>
	<g>
		<path d="M31.7,48.9c-1.3,0-2.5-0.5-3.3-1.4l-5.6-5.8c-0.8-0.9-1.3-2-1.3-3.3c0-1.2,0.5-2.4,1.4-3.2l5.9-5.6c0.9-0.8,2-1.3,3.2-1.3
			c1.3,0,2.5,0.5,3.3,1.4l5.6,5.8c0.8,0.9,1.3,2,1.3,3.3c0,1.2-0.5,2.4-1.4,3.2l-5.9,5.6C34,48.5,32.8,48.9,31.7,48.9z M31.9,30.4
			c-0.7,0-1.3,0.3-1.8,0.7l-5.9,5.6c-0.5,0.5-0.8,1.1-0.8,1.8c0,0.7,0.2,1.4,0.7,1.8l5.6,5.8c1,1,2.7,1,3.7,0.1l5.9-5.6
			c0.5-0.5,0.8-1.1,0.8-1.8c0-0.7-0.2-1.4-0.7-1.8l-5.6-5.8C33.3,30.6,32.7,30.4,31.9,30.4z"/>
	</g>
</g>
<g>
	<g>
		<path d="M42.9,34.3c-0.8,0-1.5-0.3-2-0.8L37.5,30c-0.5-0.5-0.8-1.2-0.8-2c0-0.7,0.3-1.4,0.9-1.9l3.5-3.3c1.1-1,2.9-1,3.9,0.1
			l3.4,3.4c0.5,0.5,0.8,1.2,0.8,2c0,0.7-0.3,1.4-0.9,1.9l-3.5,3.3C44.3,34,43.6,34.3,42.9,34.3z M43.1,23.8c-0.3,0-0.5,0.1-0.7,0.3
			l-3.5,3.3c-0.2,0.2-0.3,0.4-0.3,0.7c0,0.3,0.1,0.5,0.3,0.7l3.4,3.4c0.4,0.4,1.1,0.4,1.5,0l3.5-3.3c0.2-0.2,0.3-0.4,0.3-0.7
			c0-0.3-0.1-0.5-0.3-0.7l-3.4-3.4C43.6,23.9,43.3,23.8,43.1,23.8z"/>
	</g>
	<g>
		<path d="M42.7,38.4c-1.3,0-2.5-0.5-3.3-1.4l-5.6-5.8c-0.8-0.9-1.3-2-1.3-3.3c0-1.2,0.5-2.4,1.4-3.2l5.9-5.6c0.9-0.8,2-1.3,3.2-1.3
			c1.3,0,2.5,0.5,3.3,1.4l5.6,5.8c0.8,0.9,1.3,2,1.3,3.3c0,1.2-0.5,2.4-1.4,3.2l-5.9,5.6C45.1,37.9,43.9,38.4,42.7,38.4z M43,19.8
			c-0.7,0-1.3,0.3-1.8,0.7l-5.9,5.6c-0.5,0.5-0.8,1.1-0.8,1.8c0,0.7,0.2,1.4,0.7,1.8l5.6,5.8c1,1,2.7,1,3.7,0.1l5.9-5.6
			c0.5-0.5,0.8-1.1,0.8-1.8c0-0.7-0.2-1.4-0.7-1.8l-5.6-5.8C44.4,20.1,43.8,19.8,43,19.8z"/>
	</g>
</g>
</svg>
