<?xml version="1.0" encoding="utf-8"?>
<!-- Generator: Adobe Illustrator 18.1.1, SVG Export Plug-In . SVG Version: 6.00 Build 0)  -->
<svg version="1.1" id="Layer_1" xmlns="http://www.w3.org/2000/svg" xmlns:xlink="http://www.w3.org/1999/xlink" x="0px" y="0px"
	 viewBox="0 0 47 41.4" enable-background="new 0 0 47 41.4" xml:space="preserve">
<g>
	<path stroke="#000000" stroke-miterlimit="10" d="M23,33c1.7,0.8,3.6,1.2,5.5,1.2c7.2,0,13.1-5.9,13.1-13.1
		C41.6,13.8,35.8,8,28.5,8s-13.1,5.9-13.1,13.1c0,0.4,0,0.8,0.1,1.2c-0.1,0-0.3,0-0.4,0.1l-5.2,5.2l0,0L8,29.5
		c-0.2,0.2-0.2,0.5,0,0.7c2.5,2.5,5.9,3.9,9.4,3.9C19.4,34.2,21.3,33.8,23,33z M28.5,9c6.7,0,12.1,5.4,12.1,12.1
		c0,6.7-5.4,12.1-12.1,12.1c-1.5,0-3-0.3-4.4-0.8c0.5-0.3,0.9-0.6,1.3-0.9c0,0,0.1-0.1,0.1-0.1c0.2-0.1,0.3-0.3,0.5-0.4
		c0,0,0.1-0.1,0.1-0.1c0.2-0.2,0.4-0.3,0.6-0.5c2.5-2.5,3.9-5.9,3.9-9.4c0-3.6-1.4-6.9-3.9-9.4c-0.2-0.2-0.5-0.2-0.7,0l-1.9,1.9l0,0
		l0,0L19,18.5c-0.2,0.2-0.2,0.5,0,0.7c0.1,0.1,0.2,0.2,0.3,0.3c0.2,0.4,0.4,0.8,0.4,1.2c0,0.1,0,0.1,0,0.2c-0.1,0.5-0.3,1-0.6,1.4
		c-0.1,0.1-0.2,0.2-0.3,0.3c-0.4,0.2-0.8,0.4-1.2,0.4c-0.1,0-0.3,0-0.4,0c0,0,0,0,0,0c-0.1,0-0.2-0.1-0.4-0.1c0,0,0,0,0,0
		c-0.1-0.6-0.1-1.3-0.1-1.9C16.5,14.4,21.9,9,28.5,9z M25,15.1C25,15.1,25,15.1,25,15.1c0.2,0.3,0.3,0.5,0.5,0.7c0,0,0,0.1,0.1,0.1
		c0.1,0.2,0.2,0.4,0.3,0.6c0,0,0,0.1,0.1,0.1c0.1,0.2,0.2,0.4,0.3,0.7v0c0.1,0.2,0.2,0.5,0.2,0.7c0,0,0,0.1,0,0.1
		c0.1,0.2,0.1,0.4,0.2,0.7c0,0,0,0.1,0,0.1c0.1,0.2,0.1,0.5,0.1,0.7c0,0,0,0.1,0,0.1c0,0.2,0.1,0.5,0.1,0.7c0,0,0,0,0,0l-3.3,0h-3
		c0,0,0,0,0,0c0-0.1,0-0.2-0.1-0.3c0,0,0-0.1,0-0.1c0-0.1-0.1-0.2-0.1-0.3c0,0,0,0,0,0c0-0.1-0.1-0.2-0.1-0.3c0,0,0-0.1,0-0.1
		c-0.1-0.1-0.1-0.2-0.2-0.3l4.5-4.5c0,0,0,0,0,0C24.7,14.7,24.8,14.9,25,15.1z M26.8,22.1C26.8,22.2,26.8,22.2,26.8,22.1
		c0,0.3-0.1,0.6-0.1,0.8c0,0,0,0.1,0,0.1c-0.1,0.2-0.1,0.5-0.2,0.7c0,0,0,0.1,0,0.1c-0.2,0.5-0.3,0.9-0.6,1.3c0,0,0,0.1-0.1,0.1
		c-0.1,0.2-0.2,0.4-0.3,0.6c0,0,0,0.1-0.1,0.1c-0.1,0.2-0.3,0.4-0.4,0.6c0,0,0,0-0.1,0.1c-0.1,0.2-0.3,0.4-0.4,0.5c0,0,0,0,0,0
		L20,22.8c0,0,0,0,0,0c0-0.1,0.1-0.1,0.1-0.2c0,0,0-0.1,0.1-0.1c0.1-0.1,0.1-0.2,0.1-0.3c0,0,0,0,0,0c0-0.1,0.1-0.2,0.1-0.3
		c0,0,0-0.1,0-0.1c0-0.1,0-0.2,0.1-0.2c0,0,0,0,0-0.1h3l3.3,0c0,0,0,0,0,0C26.9,21.7,26.9,21.9,26.8,22.1z M23.2,28.4
		C23.1,28.5,23.1,28.5,23.2,28.4c-0.3,0.2-0.5,0.3-0.7,0.5c0,0-0.1,0-0.1,0.1c-0.2,0.1-0.4,0.2-0.6,0.3c0,0-0.1,0-0.1,0.1
		c-0.2,0.1-0.4,0.2-0.6,0.3c0,0,0,0,0,0c-0.2,0.1-0.4,0.2-0.7,0.2c0,0-0.1,0-0.1,0c-0.2,0.1-0.4,0.1-0.7,0.2c0,0-0.1,0-0.1,0
		c-0.2,0-0.5,0.1-0.7,0.1c0,0-0.1,0-0.1,0c-0.2,0-0.5,0.1-0.7,0.1c0,0,0,0-0.1,0l0-3.3l0-3c0,0,0,0,0.1,0c0.1,0,0.2,0,0.2-0.1
		c0,0,0.1,0,0.1,0c0.1,0,0.2-0.1,0.3-0.1c0,0,0,0,0,0c0.1,0,0.2-0.1,0.3-0.1c0,0,0.1,0,0.1-0.1c0.1,0,0.1-0.1,0.2-0.1c0,0,0,0,0,0
		l4.5,4.5c0,0,0,0,0,0C23.5,28.1,23.4,28.3,23.2,28.4z M15.5,23.5c0.1,0.1,0.3,0.2,0.4,0.3c0,0,0,0,0,0c0,0,0,0,0.1,0
		c0.1,0,0.2,0.1,0.3,0.1c0,0,0.1,0,0.1,0c0.1,0,0.2,0.1,0.3,0.1c0,0,0.1,0,0.1,0c0.1,0,0.1,0,0.2,0l0,3l0,3.3c0,0,0,0,0,0
		c-0.2,0-0.5,0-0.7-0.1c0,0-0.1,0-0.1,0c-0.2,0-0.5-0.1-0.7-0.1c0,0-0.1,0-0.1,0C15,30.1,14.7,30,14.5,30c0,0-0.1,0-0.1,0
		c-0.5-0.2-0.9-0.3-1.3-0.6c0,0-0.1,0-0.1-0.1c-0.2-0.1-0.4-0.2-0.6-0.3c0,0-0.1,0-0.1-0.1c-0.2-0.1-0.4-0.3-0.6-0.4
		c0,0,0,0-0.1-0.1c-0.2-0.1-0.4-0.3-0.5-0.5c0,0,0,0,0,0L15.5,23.5z M9.1,29.9l1.2-1.2l0,0c0,0,0,0,0.1,0.1c0.1,0.1,0.2,0.2,0.3,0.3
		c0,0,0.1,0.1,0.1,0.1c0.1,0.1,0.2,0.1,0.3,0.2c0.1,0,0.1,0.1,0.2,0.1c0.1,0.1,0.2,0.1,0.2,0.2c0.1,0,0.1,0.1,0.2,0.1
		c0.1,0.1,0.2,0.1,0.2,0.2C12,30,12,30,12.1,30c0.1,0,0.2,0.1,0.2,0.1c0.1,0,0.1,0.1,0.2,0.1c0.1,0,0.2,0.1,0.2,0.1
		c0.1,0,0.1,0.1,0.2,0.1c0.1,0,0.2,0.1,0.2,0.1c0.1,0,0.1,0.1,0.2,0.1c0.1,0,0.2,0.1,0.2,0.1c0.1,0,0.2,0.1,0.2,0.1
		c0.1,0,0.2,0.1,0.2,0.1c0.1,0,0.2,0.1,0.2,0.1c0.1,0,0.2,0,0.2,0.1c0.1,0,0.2,0,0.2,0.1c0.1,0,0.2,0,0.2,0.1c0.1,0,0.2,0,0.2,0.1
		c0.1,0,0.2,0,0.2,0c0.1,0,0.2,0,0.3,0c0.1,0,0.2,0,0.3,0c0.1,0,0.2,0,0.2,0c0.1,0,0.2,0,0.3,0c0.1,0,0.1,0,0.2,0c0.1,0,0.3,0,0.4,0
		c0,0,0,0,0.1,0h0h0h0c1.5,0,2.9-0.3,4.2-0.9c1.2-0.5,2.3-1.3,3.3-2.2c2-2,3.1-4.7,3.1-7.5c0-0.2,0-0.3,0-0.5c0-0.1,0-0.1,0-0.2
		c0-0.1,0-0.2,0-0.3c0-0.1,0-0.1,0-0.2c0-0.1,0-0.2,0-0.3c0-0.1,0-0.1,0-0.2c0-0.1,0-0.2,0-0.3c0-0.1,0-0.1,0-0.2
		c0-0.1,0-0.2-0.1-0.3c0-0.1,0-0.1-0.1-0.2c0-0.1,0-0.2-0.1-0.3c0-0.1,0-0.1-0.1-0.2c0-0.1-0.1-0.2-0.1-0.3c0-0.1-0.1-0.1-0.1-0.2
		c0-0.1-0.1-0.2-0.1-0.3c0-0.1-0.1-0.1-0.1-0.2c0-0.1-0.1-0.2-0.1-0.2c0-0.1-0.1-0.1-0.1-0.2c0-0.1-0.1-0.2-0.1-0.2
		c0-0.1-0.1-0.1-0.1-0.2c0-0.1-0.1-0.2-0.1-0.2c0-0.1-0.1-0.1-0.1-0.2c0-0.1-0.1-0.2-0.2-0.2c0-0.1-0.1-0.1-0.1-0.2
		c-0.1-0.1-0.1-0.2-0.2-0.2c0-0.1-0.1-0.1-0.1-0.2c-0.1-0.1-0.1-0.2-0.2-0.3c0,0-0.1-0.1-0.1-0.1c-0.1-0.1-0.2-0.2-0.3-0.3
		c0,0,0,0,0,0l0,0l1.2-1.2c2.1,2.3,3.2,5.2,3.2,8.3c0,0.2,0,0.4,0,0.6c-0.1,3.1-1.4,5.9-3.6,8.1c-0.2,0.2-0.5,0.4-0.7,0.6
		c0,0-0.1,0.1-0.1,0.1c-0.2,0.2-0.5,0.4-0.8,0.6c0,0,0,0,0,0c-0.5,0.4-1.1,0.7-1.7,1c0,0,0,0,0,0c-1.6,0.8-3.5,1.2-5.3,1.2
		C14.3,33.1,11.3,32,9.1,29.9z"/>
	<path stroke="#000000" stroke-miterlimit="10" d="M32.2,16.7l-1,1c-0.2,0.2-0.2,0.5,0,0.7c0.1,0.1,0.2,0.2,0.4,0.2
		c0.1,0,0.3-0.1,0.4-0.2l1-1l1,1c0.1,0.1,0.2,0.2,0.4,0.2s0.3-0.1,0.4-0.2c0.2-0.2,0.2-0.5,0-0.7l-1-1l1-1c0.2-0.2,0.2-0.5,0-0.7
		c-0.2-0.2-0.5-0.2-0.7,0l-1,1l-1-1c-0.2-0.2-0.5-0.2-0.7,0c-0.2,0.2-0.2,0.5,0,0.7L32.2,16.7z"/>
</g>
</svg>
