<?xml version="1.0" encoding="utf-8"?>
<!-- Generator: Adobe Illustrator 18.1.1, SVG Export Plug-In . SVG Version: 6.00 Build 0)  -->
<svg version="1.1" id="Layer_1" xmlns="http://www.w3.org/2000/svg" xmlns:xlink="http://www.w3.org/1999/xlink" x="0px" y="0px"
	 viewBox="0 0 46.1 36" enable-background="new 0 0 46.1 36" xml:space="preserve">
<g>
	<g>
		<path d="M25.7,30.7c-0.4,0-0.7-0.2-0.9-0.5c-1.1-2.1-1.3-4.6-0.4-7c0.9-2.5,2.8-4.6,5.3-6c1.9-1,3.9-1.6,6-1.6
			c3.3,0,6.3,1.4,8,3.8c0.2,0.2,0.3,0.4,0.3,0.7c0,0.5-0.3,0.9-0.8,1c-1,1.3-4,4.4-10.1,4.4c-2.4,0-4,0.6-5.2,1.9
			c-0.6,0.7-1.1,1.5-1.4,2.6c-0.1,0.4-0.4,0.7-0.9,0.7C25.8,30.7,25.7,30.7,25.7,30.7z M35.7,17.6c-1.7,0-3.5,0.5-5,1.3
			c-2.1,1.2-3.7,2.9-4.4,4.9c-0.4,1-0.5,2-0.4,3c0.2-0.3,0.4-0.6,0.7-0.9c1.5-1.7,3.7-2.5,6.6-2.5c5.3,0,7.7-2.5,8.5-3.5
			C40.2,18.5,38.1,17.6,35.7,17.6z"/>
	</g>
	<g>
		<path d="M34.2,36c-2.7,0-5.1-0.9-6.8-2.5c-0.2-0.2-0.3-0.5-0.3-0.8c0.1-1.3,0.4-3.1,1.7-4.4c1.2-1.3,2.9-1.9,5.1-1.9H34
			c5.7,0,8.6-2.6,9.9-4.1c0.2-0.3,0.6-0.4,0.9-0.4c0.4,0.1,0.7,0.3,0.8,0.6c0.7,1.9,0.7,3.9-0.1,5.9c-0.9,2.5-2.8,4.6-5.3,6
			C38.4,35.4,36.3,36,34.2,36z M29.1,32.3c1.4,1.1,3.2,1.7,5.1,1.7h0c1.7,0,3.5-0.5,5-1.3c2.1-1.2,3.7-2.9,4.4-4.9
			c0.3-1,0.5-1.9,0.4-2.8c-1.9,1.7-5,3.5-10,3.5h-0.1c-1.7,0-2.9,0.4-3.7,1.3C29.5,30.4,29.2,31.4,29.1,32.3z"/>
	</g>
</g>
<g>
	<g>
		<path d="M1.1,14c-0.1,0-0.2,0-0.3-0.1c-0.4-0.1-0.6-0.4-0.7-0.8C-0.1,11.5,0,9.9,0.6,8.4c1-2.7,3.1-5.1,5.9-6.6
			C8.6,0.6,10.9,0,13.1,0c3.6,0,6.8,1.5,8.7,4c0.2,0.3,0.3,0.6,0.2,0.9c-0.5,1.6-1.3,3.7-3,4.9c-1.4,1-3.2,1.3-5.3,0.8
			c-1.1-0.3-2.2-0.4-3.3-0.4c-4.4,0-7.2,2.2-8.5,3.5C1.6,13.9,1.3,14,1.1,14z M13.1,2c-1.9,0-3.9,0.5-5.7,1.5
			c-2.4,1.3-4.1,3.3-5,5.6c-0.2,0.6-0.4,1.2-0.4,1.8c1.8-1.3,4.6-2.7,8.3-2.7c1.2,0,2.5,0.1,3.8,0.4c1.6,0.4,2.8,0.2,3.7-0.5
			C18.9,7.4,19.6,6,20,4.8C18.4,3,15.9,2,13.1,2z"/>
	</g>
	<g>
		<path d="M11.4,22.1c-4,0-7.5-1.8-9.3-4.8c-0.2-0.3-0.3-0.5-0.4-0.8c-0.2-0.4-0.1-0.9,0.2-1.2c0.1-0.1,0.3-0.2,0.4-0.2
			c1-1.2,3.9-3.9,8.8-3.9c1,0,2.1,0.1,3.2,0.4c2.2,0.5,4.1,0.2,5.6-0.9c0.9-0.7,1.7-1.6,2.3-2.9c0.2-0.4,0.6-0.6,1-0.6
			c0.4,0,0.8,0.3,0.9,0.7c0.5,1.9,0.4,3.9-0.3,5.8c-1,2.7-3.1,5.1-5.9,6.6C16,21.5,13.7,22.1,11.4,22.1z M3.9,16.4
			c1.5,2.3,4.3,3.7,7.5,3.7h0c1.9,0,3.9-0.5,5.7-1.5c2.4-1.3,4.1-3.3,5-5.6c0.2-0.6,0.4-1.3,0.5-1.9c-0.4,0.4-0.8,0.8-1.3,1.2
			c-2,1.4-4.5,1.8-7.3,1.2c-1-0.2-1.9-0.3-2.8-0.3C7,13.2,4.7,15.5,3.9,16.4z"/>
	</g>
</g>
</svg>
