<?xml version="1.0" encoding="utf-8"?>
<!-- Generator: Adobe Illustrator 18.1.1, SVG Export Plug-In . SVG Version: 6.00 Build 0)  -->
<svg version="1.1" id="Layer_1" xmlns="http://www.w3.org/2000/svg" xmlns:xlink="http://www.w3.org/1999/xlink" x="0px" y="0px"
	 viewBox="0 0 42 42" enable-background="new 0 0 42 42" xml:space="preserve">
<path fill="#3B5998" d="M35.8,6.2c-8.2-8.2-21.5-8.2-29.7,0c-8.2,8.2-8.2,21.5,0,29.7c8.2,8.2,21.5,8.2,29.7,0
	C44.1,27.6,44.1,14.4,35.8,6.2z M27.1,12.5h-2.6c0,0-1.7,0.1-1.7,1.4v3h4l0.1,4.5h-4.3v11.3h-4.3l0.2-11.3h-3.5v-4h3.3v-4.3
	c0,0-0.2-1.7,1.4-3.2c0,0,1-1.2,3.1-1.2c0,0,0.6,0,0.6,0h3.7V12.5z"/>
</svg>
