<?xml version="1.0" encoding="utf-8"?>
<!-- Generator: Adobe Illustrator 18.1.1, SVG Export Plug-In . SVG Version: 6.00 Build 0)  -->
<svg version="1.1" id="Layer_1" xmlns="http://www.w3.org/2000/svg" xmlns:xlink="http://www.w3.org/1999/xlink" x="0px" y="0px"
	 viewBox="0 0 47 41.4" enable-background="new 0 0 47 41.4" xml:space="preserve">
<g>
	<path d="M25.3,36.9c-8.6,0-15.7-7.1-15.7-15.8s7-15.8,15.7-15.8s15.7,7.1,15.7,15.8S33.9,36.9,25.3,36.9z M25.3,7.4
		c-7.5,0-13.7,6.2-13.7,13.8c0,7.6,6.1,13.8,13.7,13.8s13.7-6.2,13.7-13.8C38.9,13.6,32.8,7.4,25.3,7.4z"/>
</g>
<g>
	<path d="M28.8,16c-3,0-4.9-2-5.6-3.3c-0.3-0.5-0.1-1.1,0.4-1.3c0.5-0.3,1.1-0.1,1.3,0.4l0,0c0.2,0.4,2,3.5,6.3,1.7
		c0.5-0.2,1.1,0,1.3,0.5c0.2,0.5,0,1.1-0.5,1.3C30.8,15.8,29.8,16,28.8,16z"/>
</g>
<g>
	<path d="M28,15.3c0,0-0.1,0-0.1,0c-0.5-0.1-0.9-0.6-0.9-1.1c0-0.3,0.8-7.1,4.8-10.1c0.4-0.3,1.1-0.3,1.4,0.2
		c0.3,0.4,0.3,1.1-0.2,1.4c-3.3,2.6-4.1,8.7-4.1,8.8C28.9,15,28.5,15.3,28,15.3z"/>
</g>
<g>
	<ellipse cx="19.2" cy="21.2" rx="1.3" ry="1.3"/>
</g>
<g>
	<ellipse cx="21.2" cy="26.4" rx="1.3" ry="1.3"/>
</g>
<g>
	<ellipse cx="26.3" cy="22.2" rx="1.3" ry="1.3"/>
</g>
<g>
	<ellipse cx="28.4" cy="28.4" rx="1.3" ry="1.3"/>
</g>
<g>
	<ellipse cx="33.5" cy="24.3" rx="1.3" ry="1.3"/>
</g>
</svg>
