<?xml version="1.0" encoding="utf-8"?>
<!-- Generator: Adobe Illustrator 18.1.1, SVG Export Plug-In . SVG Version: 6.00 Build 0)  -->
<svg version="1.1" id="Layer_1" xmlns="http://www.w3.org/2000/svg" xmlns:xlink="http://www.w3.org/1999/xlink" x="0px" y="0px"
	 viewBox="0 0 48 48" enable-background="new 0 0 48 48" xml:space="preserve">
<g>
	<path d="M35.8,34.1c5.7-5.7,6-14.9,0.8-21l1.7-1.7c0.5-0.5,0.5-1.2,0-1.7s-1.2-0.5-1.7,0l-1.7,1.7c-6.1-5.2-15.2-4.9-21,0.8
		c0.3,0.3,0.7,0.7,1.1,1c-3.2,2.2-5.3,5.5-6.1,9.1c0.6,0.3,1.1,0.5,1.7,0.7c-1.8,2.2-3,4.9-3.4,7.7c0.7,0.3,1.5,0.5,2.2,0.7
		C8.1,34.1,7.7,37.1,8,40c2.9,0.4,5.9-0.1,8.5-1.4c0.2,0.8,0.4,1.5,0.7,2.2c2.8-0.4,5.4-1.6,7.7-3.4c0.2,0.6,0.5,1.1,0.7,1.7
		c3.6-0.8,6.9-3,9.1-6.1C35.1,33.4,35.4,33.7,35.8,34.1z M34.1,13.9c4.5,4.5,5,11.3,1.7,16.4c-1.1-1.6-1.8-3.5-2-5.5l-0.3-2.6
		l-2.6,0.6c-1.9,0.5-3.9,0.5-5.7,0.1c-0.4-1.9-0.4-3.8,0.1-5.7l0.6-2.6l-2.6-0.3c-2-0.3-3.9-1-5.5-2C22.7,8.9,29.6,9.5,34.1,13.9z
		 M25.4,25.6c-0.4,0.9-0.8,1.9-1,2.8C22.3,30,19.7,30.9,17,31c0.1-2.7,1-5.3,2.6-7.4c0.9-0.2,1.9-0.6,2.8-1c0.1,0,0.1-0.1,0.2-0.1
		c0.1,0.8,0.3,1.6,0.5,2.4c0.8,0.2,1.6,0.4,2.4,0.5C25.5,25.5,25.5,25.5,25.4,25.6z M11.8,21c1-2.6,2.9-4.8,5.3-6.3
		c1.8,1,3.8,1.7,5.8,2c-0.3,1.1-0.4,2.2-0.4,3.2c-0.3,0.2-0.7,0.4-1,0.6C18.3,21.9,14.9,22,11.8,21z M10,29.1c0.6-2,1.7-3.9,3.2-5.4
		c1.1,0.2,2.2,0.3,3.4,0.2c-0.9,1.7-1.5,3.5-1.7,5.4C13.2,29.6,11.5,29.5,10,29.1z M10.3,37.7c0.1-2.1,0.6-4.1,1.6-5.9
		c0.9,0.1,1.8,0,2.7-0.1c0,0.5,0,1,0.1,1.5c0.5,0.1,1,0.1,1.5,0.1c-0.1,0.9-0.1,1.8-0.1,2.7C14.4,37.1,12.4,37.7,10.3,37.7z
		 M18.9,38c-0.4-1.6-0.5-3.2-0.2-4.8c1.9-0.2,3.7-0.8,5.4-1.7c0,1.1,0,2.3,0.2,3.4C22.7,36.3,20.9,37.4,18.9,38z M27,36.2
		c-1.1-3.1-0.9-6.6,0.6-9.6c0.2-0.4,0.4-0.7,0.6-1c1.1,0,2.2-0.2,3.2-0.4c0.3,2,0.9,4,2,5.8C31.9,33.3,29.6,35.2,27,36.2z"/>
</g>
</svg>
