<?xml version="1.0" encoding="UTF-8" standalone="no"?>
<svg width="86px" height="72px" viewBox="0 0 86 72" version="1.1" xmlns="http://www.w3.org/2000/svg" xmlns:xlink="http://www.w3.org/1999/xlink" xmlns:sketch="http://www.bohemiancoding.com/sketch/ns">
    <!-- Generator: Sketch 3.5.1 (25234) - http://www.bohemiancoding.com/sketch -->
    <title>Artboard</title>
    <desc>Created with Sketch.</desc>
    <defs></defs>
    <g id="Page-1" stroke="none" stroke-width="1" fill="none" fill-rule="evenodd" sketch:type="MSPage">
        <g id="Artboard" sketch:type="MSArtboardGroup">
            <g id="Page-1" sketch:type="MSLayerGroup" transform="translate(2.000000, 1.000000)">
                <path d="M37.0835,19.2334 C37.0835,29.4044 28.8385,37.6504 18.6665,37.6504 C8.4955,37.6504 0.2505,29.4044 0.2505,19.2334 C0.2505,9.0624 8.4955,0.8164 18.6665,0.8164 C28.8385,0.8164 37.0835,9.0624 37.0835,19.2334 L37.0835,19.2334 Z" id="Stroke-1" stroke="#3FC2CD" stroke-width="2.5" stroke-linecap="round" stroke-linejoin="round" sketch:type="MSShapeGroup"></path>
                <path d="M18.5303,7.9106 L18.5303,20.7336" id="Stroke-3" stroke="#3FC2CD" stroke-width="2.5" stroke-linecap="round" stroke-linejoin="round" sketch:type="MSShapeGroup"></path>
                <path d="M26.4424,24.0083 L18.5304,20.7343" id="Stroke-5" stroke="#3FC2CD" stroke-width="2.5" stroke-linecap="round" stroke-linejoin="round" sketch:type="MSShapeGroup"></path>
                <path d="M48,45.1494 L48,40.7104 L46.689,41.4904 L46.13,43.5304 L46.557,44.3034 L45.6,47.3814 L45.747,44.9614 L45.07,44.4404 L45.585,42.1484 L39.503,45.7734 L39.503,50.2314 C39.503,52.7384 41.079,53.8714 43.126,52.9824 L43.126,57.8764 C41.226,59.2344 39.768,61.2874 39.768,61.2874 L47.735,56.5384 C47.735,56.5384 46.277,56.2234 44.377,57.1294 L44.377,52.2364 C46.424,50.6694 48,47.6564 48,45.1494" id="Fill-7" fill="#1B2D38" sketch:type="MSShapeGroup"></path>
                <path d="M62,48.333 L62,21.625 L35,6 L8,21.625 L8,53.875 L35,69.5 L62,53.875 L62,47.333" id="Stroke-9" stroke="#1B2D38" stroke-width="3" stroke-linecap="round" stroke-linejoin="round" sketch:type="MSShapeGroup"></path>
                <path d="M8,21.625 L35,37.25 L62,21.625" id="Stroke-11" stroke="#1B2D38" stroke-width="2" stroke-linecap="round" stroke-linejoin="round" sketch:type="MSShapeGroup"></path>
                <path d="M14.1665,37.6699 L24.3365,43.4269" id="Stroke-13" stroke="#1B2D38" stroke-linecap="round" stroke-linejoin="round" sketch:type="MSShapeGroup"></path>
                <path d="M14.1665,40.5488 L24.3365,46.3058" id="Stroke-15" stroke="#1B2D38" stroke-linecap="round" stroke-linejoin="round" sketch:type="MSShapeGroup"></path>
                <path d="M14.1665,43.4277 L20.3565,46.8817" id="Stroke-17" stroke="#1B2D38" stroke-linecap="round" stroke-linejoin="round" sketch:type="MSShapeGroup"></path>
                <path d="M22.6665,13.5229 L49.0365,29.0679" id="Stroke-19" stroke="#1B2D38" stroke-width="2" stroke-linecap="round" stroke-linejoin="round" sketch:type="MSShapeGroup"></path>
                <path d="M35,37.25 L35,69.5" id="Stroke-21" stroke="#1B2D38" stroke-width="2" stroke-linecap="round" stroke-linejoin="round" sketch:type="MSShapeGroup"></path>
                <path d="M70.6807,51.2227 C69.7577,51.2227 68.8257,50.4977 68.8257,49.1147 L68.8257,46.5767 L55.4347,46.5767 C53.9557,46.5767 52.7537,45.3737 52.7537,43.8967 L52.7537,35.8227 C52.7537,34.3447 53.9557,33.1417 55.4347,33.1417 L68.8257,33.1417 L68.8257,30.6047 C68.8257,29.2207 69.7577,28.4947 70.6807,28.4947 C71.0627,28.4947 71.6397,28.6187 72.2197,29.1997 L80.9857,37.9637 C82.0307,39.0087 82.0307,40.7087 80.9857,41.7537 L72.2197,50.5207 C71.6397,51.1017 71.0627,51.2227 70.6807,51.2227" id="Fill-23" fill="#FFFFFF" sketch:type="MSShapeGroup"></path>
                <path d="M70.6797,26.9956 L70.6797,26.9956 C69.0537,26.9956 67.3257,28.2606 67.3257,30.6046 L67.3257,31.6426 L55.4337,31.6426 C53.1287,31.6426 51.2537,33.5176 51.2537,35.8226 L51.2537,43.8966 C51.2537,46.2016 53.1287,48.0766 55.4337,48.0766 L67.3257,48.0766 L67.3257,49.1136 C67.3257,51.4576 69.0537,52.7226 70.6797,52.7226 C71.3447,52.7226 72.3367,52.5246 73.2817,51.5806 L82.0457,42.8156 C82.8347,42.0266 83.2687,40.9766 83.2687,39.8596 C83.2687,38.7416 82.8347,37.6916 82.0457,36.9036 L73.2817,28.1376 C72.3367,27.1936 71.3447,26.9956 70.6797,26.9956 M70.6797,29.9956 C70.8157,29.9956 70.9807,30.0816 71.1597,30.2596 L79.9247,39.0246 C80.3837,39.4836 80.3837,40.2346 79.9247,40.6936 L71.1597,49.4596 C70.9817,49.6376 70.8157,49.7226 70.6797,49.7226 C70.4657,49.7226 70.3257,49.5106 70.3257,49.1136 L70.3257,46.2566 C70.3257,45.6076 69.7937,45.0766 69.1447,45.0766 L55.4337,45.0766 C54.7847,45.0766 54.2537,44.5456 54.2537,43.8966 L54.2537,35.8226 C54.2537,35.1736 54.7847,34.6426 55.4337,34.6426 L69.1447,34.6426 C69.7937,34.6426 70.3257,34.1106 70.3257,33.4616 L70.3257,30.6046 C70.3257,30.2076 70.4657,29.9956 70.6797,29.9956" id="Fill-25" fill="#1B2D38" sketch:type="MSShapeGroup"></path>
            </g>
        </g>
    </g>
</svg>