<?xml version="1.0" encoding="UTF-8" standalone="no"?>
<svg width="98px" height="97px" viewBox="0 0 98 97" version="1.1" xmlns="http://www.w3.org/2000/svg" xmlns:xlink="http://www.w3.org/1999/xlink" xmlns:sketch="http://www.bohemiancoding.com/sketch/ns">
    <!-- Generator: Sketch 3.5.1 (25234) - http://www.bohemiancoding.com/sketch -->
    <title>Artboard</title>
    <desc>Created with Sketch.</desc>
    <defs>
        <path id="path-1" d="M0,97 L97.317,97 L97.317,0.319 L0,0.319"></path>
        <path id="path-3" d="M0,97 L97.317,97 L97.317,0.319 L0,0.319"></path>
        <path id="path-5" d="M0,97 L97.317,97 L97.317,0.319 L0,0.319 L0,97 Z"></path>
    </defs>
    <g id="Page-1" stroke="none" stroke-width="1" fill="none" fill-rule="evenodd" sketch:type="MSPage">
        <g id="Artboard" sketch:type="MSArtboardGroup">
            <g id="Page-1" sketch:type="MSLayerGroup">
                <path d="M46.1187,82.7959 C43.2277,82.7959 41.7047,81.2349 41.2437,79.7739 C40.8197,78.4299 40.8367,77.0359 40.8527,75.6869 L40.8587,74.9559 C40.8217,74.3189 40.8327,73.7449 40.8447,73.0809 C40.8507,72.7149 40.8587,72.3109 40.8587,71.8209 C40.8567,69.7489 41.4057,67.3779 41.9367,65.0849 C42.4287,62.9599 42.9367,60.7629 42.9367,59.0349 C42.9367,57.2809 42.4917,55.8049 42.0207,54.2419 C41.5047,52.5299 40.9707,50.7589 40.9777,48.5459 C40.9797,48.2219 40.9767,47.8989 40.9737,47.5749 C40.9667,46.6199 40.9587,45.6309 41.0487,44.6309 C41.1937,43.0399 41.8157,41.4449 42.9517,39.7519 C43.6007,38.7819 43.9597,37.8009 44.0487,36.7529 L44.2027,34.9039 C44.3937,32.5999 44.5907,30.2159 44.8537,27.8689 C45.0457,26.1669 45.3037,24.4569 45.5537,22.8029 C45.6727,22.0189 45.7907,21.2339 45.9027,20.4489 C45.9357,20.2149 45.9677,19.9809 45.9907,19.7459 C45.5487,19.1929 45.5287,18.4179 45.6137,17.9549 C45.7107,17.4299 45.8417,16.9129 45.9727,16.3959 L46.0517,16.0859 C46.1057,15.6729 46.1107,13.5979 46.0107,12.9639 C45.7707,12.4999 45.7387,11.9529 45.9257,11.4189 C46.1867,10.6729 46.8487,10.0679 47.6137,9.8759 C47.9817,9.7849 48.3847,9.7409 48.8477,9.7409 L52.7917,9.7409 C53.2647,9.7409 53.6677,9.7849 54.0327,9.8749 C54.8017,10.0679 55.4637,10.6729 55.7247,11.4189 C55.9127,11.9529 55.8797,12.5009 55.6397,12.9649 C55.5397,13.5989 55.5457,15.6779 55.6157,16.1649 L55.6777,16.3959 C55.8087,16.9129 55.9397,17.4299 56.0357,17.9529 C56.1217,18.4179 56.1017,19.1949 55.6617,19.7469 C55.6847,19.9999 55.7157,20.2249 55.7477,20.4499 C55.8597,21.2339 55.9777,22.0189 56.0967,22.8029 C56.3467,24.4569 56.6047,26.1669 56.7967,27.8689 C57.0597,30.2159 57.2567,32.5999 57.4477,34.9039 L57.6017,36.7539 C57.6907,37.8009 58.0497,38.7819 58.6997,39.7529 C59.8347,41.4449 60.4567,43.0399 60.6007,44.6289 C60.6917,45.6309 60.6837,46.6199 60.6767,47.5749 C60.6737,47.8989 60.6707,48.2219 60.6727,48.5459 C60.6797,50.7589 60.1457,52.5289 59.6297,54.2409 C59.1597,55.8039 58.7137,57.2799 58.7137,59.0349 C58.7137,60.7629 59.2227,62.9599 59.7137,65.0849 C60.2447,67.3779 60.7937,69.7489 60.7917,71.8219 C60.7917,72.3109 60.7997,72.7149 60.8067,73.0809 C60.8177,73.7449 60.8287,74.3189 60.7897,75.0359 L60.7977,75.6869 C60.8137,77.0359 60.8307,78.4299 60.4077,79.7739 C59.9457,81.2349 58.4217,82.7959 55.5327,82.7959 L46.1187,82.7959 Z" id="Fill-1" fill="#FFFFFF" sketch:type="MSShapeGroup"></path>
                <path d="M52.8066,8.2407 L52.8016,8.2407 L52.7826,8.2407 L48.8596,8.2407 C48.2566,8.2407 47.7366,8.2997 47.2516,8.4207 C45.9886,8.7377 44.9386,9.6967 44.5096,10.9227 C44.2246,11.7357 44.2436,12.5977 44.5446,13.3567 C44.5986,13.9757 44.5956,15.3547 44.5556,15.8857 L44.5206,16.0177 C44.3876,16.5447 44.2486,17.0897 44.1396,17.6797 C43.9956,18.4507 44.0706,19.3297 44.4386,20.0857 C44.4316,20.1347 44.4246,20.1857 44.4176,20.2367 C44.3066,21.0207 44.1876,21.8027 44.0696,22.5847 C43.8176,24.2497 43.5576,25.9727 43.3636,27.7017 C43.0976,30.0737 42.8986,32.4717 42.7066,34.7917 L42.5546,36.6267 C42.4856,37.4247 42.2156,38.1537 41.7036,38.9177 C40.4266,40.8227 39.7236,42.6467 39.5556,44.4927 C39.4576,45.5697 39.4666,46.5947 39.4736,47.5867 C39.4766,47.9037 39.4796,48.2217 39.4776,48.5387 C39.4706,50.9777 40.0616,52.9427 40.5836,54.6747 C41.0416,56.1927 41.4366,57.5017 41.4366,59.0347 C41.4366,60.5907 40.9486,62.7027 40.4746,64.7457 C39.9246,67.1217 39.3566,69.5777 39.3586,71.8237 C39.3586,72.2997 39.3506,72.6957 39.3456,73.0537 C39.3326,73.7207 39.3216,74.3007 39.3576,75.0317 C39.3576,75.2427 39.3546,75.4557 39.3526,75.6687 C39.3356,77.0667 39.3166,78.6527 39.8126,80.2237 C40.4056,82.1027 42.4126,84.2957 46.1186,84.2957 L46.2756,84.2947 L55.4236,84.2947 L55.5336,84.2957 C59.2376,84.2957 61.2446,82.1027 61.8366,80.2257 C62.3326,78.6527 62.3156,77.0667 62.2976,75.6687 C62.2946,75.4557 62.2926,75.2427 62.2916,75.0317 C62.3276,74.3007 62.3186,73.7207 62.3056,73.0537 C62.2986,72.6957 62.2916,72.2997 62.2916,71.8217 C62.2936,69.5777 61.7246,67.1217 61.1746,64.7457 C60.7026,62.7027 60.2136,60.5907 60.2136,59.0347 C60.2136,57.5017 60.6096,56.1927 61.0666,54.6737 C61.5876,52.9427 62.1806,50.9777 62.1716,48.5417 C62.1706,48.2217 62.1736,47.9037 62.1756,47.5867 C62.1836,46.5947 62.1926,45.5697 62.0946,44.4967 C61.9266,42.6467 61.2226,40.8217 59.9456,38.9167 C59.4336,38.1537 59.1636,37.4247 59.0956,36.6257 L58.9436,34.7917 C58.7516,32.4727 58.5526,30.0737 58.2866,27.7017 C58.0926,25.9727 57.8326,24.2517 57.5806,22.5867 C57.4626,21.8047 57.3436,21.0217 57.2336,20.2377 C57.2246,20.1847 57.2176,20.1337 57.2106,20.0837 C57.5786,19.3267 57.6546,18.4497 57.5106,17.6787 C57.4026,17.0897 57.2626,16.5447 57.1286,16.0187 L57.0956,15.8857 C57.0556,15.3547 57.0506,13.9757 57.1056,13.3567 C57.4066,12.5977 57.4246,11.7357 57.1406,10.9227 C56.7106,9.6967 55.6616,8.7377 54.4036,8.4217 C53.9136,8.2997 53.3926,8.2407 52.8066,8.2407 M52.8066,11.2407 C53.0956,11.2407 53.3926,11.2617 53.6716,11.3307 C54.1486,11.4507 54.5006,12.0297 54.2736,12.3287 C53.9926,12.6977 54.0456,16.0577 54.1436,16.4497 C54.2916,17.0397 54.4516,17.6297 54.5606,18.2267 C54.5976,18.4247 54.5656,18.7827 54.4546,18.8347 C54.1096,18.9957 54.1256,19.2627 54.1396,19.5337 C54.1606,19.9107 54.2086,20.2857 54.2626,20.6607 C54.6136,23.1187 55.0296,25.5697 55.3056,28.0367 C55.6356,30.9767 55.8576,33.9297 56.1076,36.8797 C56.2226,38.2427 56.6946,39.4527 57.4536,40.5877 C58.3016,41.8527 58.9676,43.2317 59.1086,44.7657 C59.2196,46.0197 59.1666,47.2897 59.1716,48.5517 C59.1856,52.5167 57.2136,55.0727 57.2136,59.0347 C57.2136,62.8357 59.2946,68.0207 59.2916,71.8217 C59.2916,73.1907 59.3476,73.9107 59.2916,74.9557 C59.2916,76.4367 59.3996,77.9847 58.9766,79.3227 C58.7256,80.1157 57.8036,81.2957 55.5336,81.2957 C55.4966,81.2957 55.4596,81.2957 55.4236,81.2947 L46.2266,81.2947 C46.1896,81.2957 46.1536,81.2957 46.1186,81.2957 C43.8466,81.2957 42.9236,80.1157 42.6736,79.3227 C42.2516,77.9847 42.3586,76.4367 42.3586,74.9557 C42.3016,73.9107 42.3586,73.1907 42.3586,71.8217 C42.3556,68.0207 44.4366,62.8357 44.4366,59.0347 C44.4366,55.0727 42.4646,52.5167 42.4776,48.5517 C42.4826,47.2897 42.4306,46.0197 42.5426,44.7657 C42.6826,43.2317 43.3486,41.8527 44.1966,40.5877 C44.9566,39.4527 45.4286,38.2427 45.5436,36.8797 C45.7926,33.9297 46.0146,30.9767 46.3456,28.0367 C46.6216,25.5697 47.0376,23.1187 47.3886,20.6607 C47.4406,20.2857 47.4906,19.9107 47.5096,19.5337 C47.5246,19.2627 47.5416,18.9957 47.1956,18.8347 C47.0846,18.7827 47.0516,18.4247 47.0886,18.2267 C47.2006,17.6297 47.3576,17.0397 47.5066,16.4497 C47.6036,16.0577 47.6596,12.6977 47.3766,12.3287 C47.1486,12.0297 47.5016,11.4507 47.9776,11.3307 C48.2566,11.2617 48.5536,11.2407 48.8426,11.2407 L48.8596,11.2407 L52.7916,11.2407 L52.8066,11.2407" id="Fill-3" fill="#3FC2CD" sketch:type="MSShapeGroup"></path>
                <path d="M33.4336,74.874 C30.5426,74.874 29.0196,73.312 28.5586,71.852 C28.1346,70.508 28.1516,69.113 28.1676,67.766 L28.1736,67.033 C28.1366,66.396 28.1466,65.822 28.1596,65.158 C28.1656,64.793 28.1736,64.388 28.1736,63.898 C28.1716,61.826 28.7206,59.455 29.2516,57.161 C29.7436,55.036 30.2516,52.84 30.2516,51.112 C30.2516,49.357 29.8066,47.882 29.3356,46.318 C28.8196,44.606 28.2856,42.836 28.2926,40.624 C28.2946,40.303 28.2916,39.98 28.2886,39.66 C28.2816,38.702 28.2736,37.711 28.3636,36.708 C28.5086,35.117 29.1306,33.521 30.2656,31.83 C30.9146,30.859 31.2746,29.878 31.3636,28.831 L31.5166,26.987 C31.7076,24.681 31.9046,22.295 32.1686,19.947 C32.3596,18.248 32.6176,16.541 32.8666,14.893 C32.9856,14.103 33.1046,13.315 33.2176,12.526 C33.2506,12.292 33.2826,12.06 33.3046,11.826 C32.8616,11.271 32.8426,10.494 32.9296,10.029 C33.0266,9.503 33.1586,8.98 33.2916,8.458 L33.3666,8.162 C33.4196,7.751 33.4256,5.676 33.3256,5.041 C33.0856,4.578 33.0526,4.031 33.2406,3.497 C33.5016,2.751 34.1636,2.145 34.9276,1.955 C35.2936,1.863 35.6976,1.818 36.1626,1.818 L40.1066,1.818 C40.5826,1.818 40.9856,1.863 41.3506,1.954 C42.1166,2.145 42.7786,2.751 43.0396,3.497 C43.2266,4.031 43.1936,4.579 42.9546,5.041 C42.8546,5.677 42.8606,7.755 42.9306,8.244 L42.9886,8.458 C43.1216,8.98 43.2536,9.503 43.3506,10.032 C43.4376,10.495 43.4186,11.272 42.9756,11.826 C42.9996,12.078 43.0306,12.303 43.0626,12.528 C43.1736,13.311 43.2926,14.097 43.4116,14.88 C43.6616,16.535 43.9196,18.244 44.1106,19.947 C44.3756,22.304 44.5736,24.697 44.7646,27.011 L44.9156,28.831 C45.0056,29.878 45.3646,30.861 46.0146,31.831 C47.1486,33.521 47.7706,35.117 47.9156,36.707 C48.0066,37.707 47.9976,38.695 47.9906,39.648 C47.9886,39.975 47.9856,40.299 47.9866,40.624 C47.9946,42.836 47.4606,44.606 46.9446,46.318 C46.4736,47.882 46.0286,49.357 46.0286,51.112 C46.0286,52.841 46.5366,55.038 47.0286,57.163 C47.5586,59.456 48.1076,61.826 48.1066,63.899 C48.1066,64.388 48.1136,64.793 48.1206,65.158 C48.1326,65.822 48.1426,66.396 48.1046,67.114 L48.1126,67.765 C48.1286,69.113 48.1456,70.508 47.7216,71.852 C47.2606,73.312 45.7376,74.874 42.8466,74.874 L33.4336,74.874 Z" id="Fill-5" fill="#FFFFFF" sketch:type="MSShapeGroup"></path>
                <g id="Group-9">
                    <mask id="mask-2" sketch:name="Clip 8" fill="white">
                        <use xlink:href="#path-1"></use>
                    </mask>
                    <g id="Clip-8"></g>
                    <path d="M40.1216,0.3184 L40.1166,0.3184 L40.0966,0.3184 L36.1736,0.3184 C35.5716,0.3184 35.0516,0.3774 34.5666,0.4984 C33.3036,0.8154 32.2536,1.7744 31.8246,3.0004 C31.5396,3.8134 31.5586,4.6754 31.8596,5.4344 C31.9136,6.0534 31.9096,7.4324 31.8696,7.9634 L31.8356,8.0964 C31.7016,8.6224 31.5636,9.1674 31.4536,9.7574 C31.3106,10.5284 31.3856,11.4074 31.7536,12.1634 C31.7466,12.2124 31.7396,12.2634 31.7326,12.3154 C31.6206,13.0984 31.5026,13.8804 31.3846,14.6624 C31.1326,16.3274 30.8726,18.0504 30.6786,19.7794 C30.4116,22.1514 30.2136,24.5504 30.0216,26.8694 L29.8686,28.7044 C29.8006,29.5024 29.5306,30.2314 29.0186,30.9954 C27.7416,32.9004 27.0386,34.7244 26.8696,36.5704 C26.7726,37.6474 26.7816,38.6724 26.7886,39.6634 C26.7916,39.9814 26.7936,40.2994 26.7926,40.6164 C26.7846,43.0554 27.3766,45.0194 27.8986,46.7524 C28.3566,48.2694 28.7516,49.5794 28.7516,51.1124 C28.7516,52.6694 28.2626,54.7804 27.7896,56.8234 C27.2396,59.1994 26.6716,61.6554 26.6736,63.9014 C26.6736,64.3784 26.6656,64.7724 26.6596,65.1314 C26.6476,65.7984 26.6366,66.3794 26.6726,67.1084 C26.6726,67.3204 26.6696,67.5334 26.6676,67.7464 C26.6506,69.1444 26.6316,70.7294 27.1276,72.3014 C27.7206,74.1804 29.7276,76.3734 33.4326,76.3734 L33.5906,76.3724 L42.7386,76.3724 L42.8476,76.3734 C46.5516,76.3734 48.5586,74.1804 49.1516,72.3034 C49.6486,70.7294 49.6296,69.1444 49.6126,67.7464 C49.6096,67.5334 49.6076,67.3204 49.6066,67.1084 C49.6426,66.3794 49.6326,65.7984 49.6206,65.1314 C49.6136,64.7724 49.6066,64.3784 49.6066,63.8984 C49.6086,61.6554 49.0396,59.1994 48.4896,56.8234 C48.0166,54.7804 47.5286,52.6694 47.5286,51.1124 C47.5286,49.5794 47.9236,48.2694 48.3806,46.7514 C48.9026,45.0194 49.4956,43.0554 49.4866,40.6194 C49.4856,40.2994 49.4886,39.9824 49.4906,39.6644 C49.4986,38.6724 49.5066,37.6474 49.4096,36.5744 C49.2416,34.7234 48.5386,32.8994 47.2596,30.9944 C46.7486,30.2314 46.4786,29.5024 46.4106,28.7034 L46.2576,26.8694 C46.0666,24.5494 45.8676,22.1514 45.6016,19.7794 C45.4076,18.0504 45.1476,16.3294 44.8956,14.6644 C44.7776,13.8814 44.6586,13.0994 44.5476,12.3154 C44.5396,12.2624 44.5326,12.2114 44.5256,12.1614 C44.8936,11.4044 44.9686,10.5274 44.8256,9.7564 C44.7166,9.1674 44.5776,8.6224 44.4436,8.0954 L44.4106,7.9634 C44.3706,7.4324 44.3656,6.0534 44.4196,5.4344 C44.7206,4.6754 44.7396,3.8134 44.4556,3.0004 C44.0256,1.7744 42.9766,0.8154 41.7176,0.4994 C41.2286,0.3774 40.7076,0.3184 40.1216,0.3184 M40.1216,3.3184 C40.4106,3.3184 40.7076,3.3394 40.9866,3.4084 C41.4626,3.5284 41.8156,4.1074 41.5876,4.4064 C41.3066,4.7754 41.3606,8.1354 41.4586,8.5274 C41.6066,9.1174 41.7656,9.7074 41.8756,10.3044 C41.9126,10.5024 41.8796,10.8604 41.7696,10.9124 C41.4236,11.0734 41.4406,11.3404 41.4546,11.6114 C41.4746,11.9884 41.5236,12.3634 41.5776,12.7384 C41.9276,15.1964 42.3436,17.6474 42.6206,20.1144 C42.9506,23.0544 43.1716,26.0074 43.4216,28.9574 C43.5376,30.3204 44.0086,31.5304 44.7686,32.6654 C45.6166,33.9304 46.2826,35.3094 46.4226,36.8434 C46.5346,38.0974 46.4816,39.3674 46.4866,40.6294 C46.5006,44.5944 44.5286,47.1494 44.5286,51.1124 C44.5286,54.9134 46.6096,60.0984 46.6066,63.8984 C46.6066,65.2684 46.6626,65.9884 46.6066,67.0334 C46.6066,68.5144 46.7136,70.0614 46.2916,71.3994 C46.0406,72.1924 45.1186,73.3734 42.8476,73.3734 C42.8116,73.3734 42.7746,73.3734 42.7386,73.3724 L33.5416,73.3724 C33.5046,73.3734 33.4686,73.3734 33.4326,73.3734 C31.1606,73.3734 30.2386,72.1924 29.9886,71.3994 C29.5666,70.0614 29.6736,68.5144 29.6736,67.0334 C29.6166,65.9884 29.6736,65.2684 29.6736,63.8984 C29.6706,60.0984 31.7516,54.9134 31.7516,51.1124 C31.7516,47.1494 29.7796,44.5944 29.7926,40.6294 C29.7976,39.3674 29.7446,38.0974 29.8576,36.8434 C29.9976,35.3094 30.6626,33.9304 31.5116,32.6654 C32.2716,31.5304 32.7426,30.3204 32.8586,28.9574 C33.1076,26.0074 33.3296,23.0544 33.6596,20.1144 C33.9366,17.6474 34.3526,15.1964 34.7026,12.7384 C34.7556,12.3634 34.8046,11.9884 34.8246,11.6114 C34.8396,11.3404 34.8566,11.0734 34.5106,10.9124 C34.3996,10.8604 34.3666,10.5024 34.4036,10.3044 C34.5146,9.7074 34.6726,9.1174 34.8216,8.5274 C34.9186,8.1354 34.9736,4.7754 34.6916,4.4064 C34.4636,4.1074 34.8166,3.5284 35.2926,3.4084 C35.5716,3.3394 35.8686,3.3184 36.1576,3.3184 L36.1736,3.3184 L40.1066,3.3184 L40.1216,3.3184" id="Fill-7" fill="#1B2D38" sketch:type="MSShapeGroup" mask="url(#mask-2)"></path>
                </g>
                <path d="M21.6245,77.834 C20.2045,77.834 19.2715,77.82 18.8505,77.796 L18.7855,77.796 C15.8955,77.796 14.3715,76.234 13.9105,74.773 C13.4865,73.43 13.5025,72.034 13.5195,70.686 L13.5245,69.955 C13.4885,69.318 13.4995,68.745 13.5105,68.081 C13.5175,67.715 13.5245,67.311 13.5245,66.821 C13.5235,64.887 13.5475,62.957 13.5705,61.027 C13.5935,59.168 13.6165,57.31 13.6165,55.443 C13.6165,51.84 13.6285,48.235 13.6415,44.629 L13.6445,43.546 C13.6455,43.223 13.6435,42.898 13.6405,42.576 C13.6335,41.62 13.6255,40.631 13.7155,39.631 C13.8605,38.04 14.4825,36.443 15.6175,34.751 C16.2675,33.783 16.6265,32.8 16.7155,31.752 L16.8695,29.904 C17.0605,27.6 17.2575,25.216 17.5205,22.87 C17.7115,21.172 17.9685,19.468 18.2175,17.82 C18.3375,17.03 18.4565,16.241 18.5695,15.45 C18.6035,15.214 18.6345,14.98 18.6575,14.746 C18.2145,14.191 18.1945,13.417 18.2805,12.955 C18.3785,12.425 18.5105,11.904 18.6425,11.383 C18.6425,11.383 18.7245,11.063 18.7265,11.054 C18.4425,10.57 18.3925,9.987 18.5925,9.418 C18.8535,8.673 19.5165,8.067 20.2795,7.876 C20.6475,7.786 21.0475,7.742 21.5055,7.742 C23.1415,7.742 24.7575,7.751 26.3745,7.768 C27.7225,7.785 28.3435,8.554 28.5945,9.009 C28.9745,9.701 28.9985,10.387 28.6635,11.051 C28.7255,11.456 28.8095,11.783 28.8915,12.109 C28.9565,12.369 29.0205,12.628 29.0775,12.891 C29.2595,13.735 29.0785,14.313 28.7915,14.704 C28.8455,15.179 28.9025,15.648 28.9585,16.12 C29.0385,16.78 29.1175,17.442 29.1885,18.105 C29.5485,21.476 29.9035,24.847 30.2435,28.218 C30.3115,28.892 30.3615,29.564 30.4125,30.238 C30.4565,30.83 30.5005,31.421 30.5575,32.012 C30.6205,32.667 30.8745,33.329 31.3345,34.034 L31.5925,34.422 C32.1805,35.307 32.8465,36.31 33.2135,37.521 C33.6665,39.021 33.6995,40.501 33.6725,41.75 C33.6325,43.667 33.6515,45.608 33.6705,47.486 C33.6875,49.191 33.7045,50.898 33.6795,52.62 C33.6145,57.299 33.6325,69.849 33.6785,71.267 C33.7385,73.134 33.5265,74.489 33.0295,75.412 C31.8395,77.456 30.3245,77.683 28.9875,77.724 C28.1225,77.789 24.0445,77.834 21.6245,77.834" id="Fill-10" fill="#FFFFFF" sketch:type="MSShapeGroup"></path>
                <path d="M21.5098,6.2412 C20.9238,6.2412 20.4038,6.3002 19.9188,6.4202 C18.6558,6.7382 17.6058,7.6962 17.1768,8.9232 C16.9138,9.6732 16.9098,10.4652 17.1468,11.1792 C17.0258,11.6562 16.9048,12.1492 16.8058,12.6802 C16.6628,13.4512 16.7378,14.3302 17.1058,15.0862 C17.0988,15.1352 17.0918,15.1862 17.0848,15.2372 C16.9728,16.0212 16.8548,16.8032 16.7368,17.5862 C16.4848,19.2512 16.2248,20.9732 16.0308,22.7022 C15.7638,25.0762 15.5648,27.4762 15.3738,29.7972 L15.2208,31.6272 C15.1528,32.4252 14.8828,33.1542 14.3708,33.9182 C13.0938,35.8232 12.3908,37.6472 12.2218,39.4932 C12.1248,40.5702 12.1328,41.5962 12.1408,42.5882 C12.1438,42.9052 12.1458,43.2232 12.1448,43.5392 L12.1428,44.1362 C12.1298,47.9072 12.1168,51.6752 12.1168,55.4442 C12.1168,57.2962 12.0938,59.1822 12.0718,61.0072 C12.0478,62.9082 12.0238,64.8742 12.0258,66.8242 C12.0258,67.3002 12.0178,67.6952 12.0118,68.0542 C11.9998,68.7202 11.9888,69.3012 12.0248,70.0322 C12.0248,70.2432 12.0218,70.4562 12.0198,70.6692 C12.0028,72.0682 11.9838,73.6522 12.4798,75.2232 C13.0728,77.1022 15.0798,79.2962 18.7848,79.2962 L18.8078,79.2962 C19.0778,79.3102 19.7308,79.3332 21.6248,79.3332 C23.4048,79.3332 27.8988,79.3012 29.0608,79.2212 C30.8318,79.1632 32.8268,78.7432 34.3008,76.2122 C34.3178,76.1822 34.3348,76.1542 34.3508,76.1242 C34.9768,74.9602 35.2478,73.3562 35.1778,71.2182 C35.1368,69.9642 35.1108,57.6072 35.1798,52.6402 C35.2038,50.8972 35.1868,49.1572 35.1708,47.4742 C35.1518,45.6072 35.1328,43.6762 35.1728,41.7812 C35.2018,40.4132 35.1628,38.7862 34.6498,37.0882 C34.2188,35.6622 33.4858,34.5612 32.8398,33.5902 L32.5878,33.2092 C32.2618,32.7102 32.0908,32.2832 32.0508,31.8702 C31.9948,31.2872 31.9518,30.7062 31.9078,30.1242 C31.8568,29.4392 31.8048,28.7532 31.7368,28.0692 C31.3958,24.6932 31.0408,21.3192 30.6808,17.9462 C30.6088,17.2782 30.5288,16.6132 30.4488,15.9472 C30.4118,15.6362 30.3748,15.3252 30.3378,15.0142 C30.6398,14.3662 30.7578,13.5622 30.5508,12.6092 C30.4838,12.2962 30.4148,12.0212 30.3468,11.7462 C30.2998,11.5592 30.2538,11.3772 30.2158,11.2072 C30.4618,10.4592 30.5408,9.4342 29.9068,8.2842 C29.5798,7.6892 28.5788,6.2942 26.3968,6.2682 C24.7678,6.2522 23.1468,6.2412 21.5258,6.2412 L21.5098,6.2412 Z M21.5098,9.2412 L21.5258,9.2412 C23.1368,9.2412 24.7478,9.2522 26.3608,9.2672 C26.7338,9.2722 27.0768,9.3632 27.2798,9.7322 C27.4138,9.9752 27.4538,10.1662 27.2838,10.4512 C27.1428,10.6842 27.1348,11.0472 27.1818,11.3312 C27.2878,11.9632 27.4758,12.5792 27.6108,13.2062 C27.6708,13.4882 27.7548,13.7862 27.3788,13.9722 C27.2848,14.0192 27.2328,14.2572 27.2488,14.3972 C27.3878,15.6872 27.5588,16.9742 27.6978,18.2652 C28.0568,21.6322 28.4118,25.0002 28.7518,28.3692 C28.8778,29.6292 28.9438,30.8942 29.0648,32.1552 C29.1588,33.1412 29.5398,34.0272 30.0778,34.8532 C30.7258,35.8422 31.4278,36.7982 31.7778,37.9562 C32.1508,39.1882 32.2008,40.4492 32.1738,41.7172 C32.0958,45.3682 32.2318,48.9482 32.1798,52.5982 C32.1128,57.4182 32.1328,69.8892 32.1798,71.3152 C32.2068,72.1522 32.2068,73.7772 31.7088,74.7022 C30.9498,76.0042 30.1408,76.1912 28.9038,76.2242 C28.3248,76.2812 24.4198,76.3332 21.6248,76.3332 C20.3258,76.3332 19.2668,76.3222 18.8938,76.2952 C18.8568,76.2962 18.8208,76.2962 18.7848,76.2962 C16.5128,76.2962 15.5908,75.1152 15.3408,74.3222 C14.9188,72.9842 15.0258,71.4362 15.0258,69.9562 C14.9688,68.9112 15.0258,68.1912 15.0258,66.8212 C15.0228,63.0212 15.1168,59.2442 15.1168,55.4442 C15.1168,51.4802 15.1318,47.5172 15.1448,43.5522 C15.1498,42.2902 15.0968,41.0202 15.2098,39.7662 C15.3498,38.2322 16.0148,36.8532 16.8638,35.5882 C17.6238,34.4532 18.0948,33.2432 18.2108,31.8802 C18.4598,28.9302 18.6818,25.9772 19.0118,23.0372 C19.2888,20.5702 19.7048,18.1192 20.0548,15.6612 C20.1078,15.2862 20.1568,14.9102 20.1768,14.5342 C20.1918,14.2632 20.2088,13.9962 19.8628,13.8352 C19.7518,13.7832 19.7188,13.4252 19.7558,13.2272 C19.8668,12.6302 20.0248,12.0402 20.1738,11.4502 C20.2708,11.0582 20.3248,10.6982 20.0438,10.3292 C19.8158,10.0302 20.1688,9.4512 20.6448,9.3312 C20.9238,9.2622 21.2208,9.2412 21.5098,9.2412 L21.5098,9.2412 Z" id="Fill-12" fill="#1B2D38" sketch:type="MSShapeGroup"></path>
                <path d="M9.6245,95.5 C8.2045,95.5 7.2725,95.487 6.8505,95.462 L6.7845,95.462 C3.8945,95.462 2.3715,93.901 1.9105,92.44 C1.4865,91.096 1.5025,89.701 1.5195,88.353 L1.5245,87.623 C1.4885,86.985 1.4995,86.412 1.5105,85.748 C1.5175,85.381 1.5245,84.977 1.5245,84.488 C1.5235,82.553 1.5475,80.624 1.5705,78.695 C1.5935,76.835 1.6165,74.976 1.6165,73.11 C1.6165,69.505 1.6285,65.901 1.6415,62.295 L1.6445,61.214 C1.6455,60.889 1.6435,60.566 1.6405,60.242 C1.6335,59.286 1.6255,58.298 1.7155,57.298 C1.8605,55.706 2.4825,54.111 3.6175,52.419 C4.2675,51.449 4.6265,50.467 4.7155,49.419 L4.8695,47.571 C5.0605,45.266 5.2575,42.883 5.5205,40.536 C5.7115,38.839 5.9685,37.137 6.2175,35.49 C6.3365,34.699 6.4565,33.908 6.5695,33.116 C6.6025,32.882 6.6345,32.648 6.6565,32.414 C6.2145,31.862 6.1945,31.085 6.2805,30.621 C6.3785,30.092 6.5105,29.571 6.6425,29.05 C6.6425,29.05 6.7235,28.73 6.7265,28.72 C6.4435,28.239 6.3925,27.655 6.5915,27.086 C6.8535,26.341 7.5155,25.735 8.2795,25.543 C8.6455,25.452 9.0465,25.408 9.5055,25.408 C11.1415,25.408 12.7575,25.418 14.3755,25.434 C15.7215,25.45 16.3435,26.219 16.5945,26.676 C16.9745,27.368 16.9985,28.054 16.6635,28.719 C16.7255,29.122 16.8085,29.448 16.8905,29.774 C16.9555,30.035 17.0205,30.295 17.0775,30.557 C17.2595,31.402 17.0795,31.98 16.7915,32.371 C16.8465,32.846 16.9025,33.317 16.9585,33.788 C17.0385,34.449 17.1175,35.11 17.1885,35.771 C17.5485,39.142 17.9035,42.513 18.2435,45.885 C18.3115,46.558 18.3615,47.231 18.4125,47.905 C18.4565,48.496 18.5005,49.088 18.5575,49.678 C18.6205,50.334 18.8745,50.995 19.3345,51.7 L19.5925,52.091 C20.1805,52.974 20.8475,53.976 21.2135,55.189 C21.6665,56.687 21.6995,58.167 21.6725,59.416 C21.6325,61.333 21.6515,63.275 21.6705,65.153 C21.6875,66.858 21.7045,68.565 21.6795,70.287 C21.6145,74.965 21.6325,87.515 21.6785,88.933 C21.7385,90.8 21.5265,92.156 21.0295,93.08 C19.8395,95.124 18.3235,95.35 16.9875,95.39 C16.1215,95.456 12.0445,95.5 9.6245,95.5" id="Fill-14" fill="#FFFFFF" sketch:type="MSShapeGroup"></path>
                <path d="M9.5098,23.9077 C8.9238,23.9077 8.4038,23.9667 7.9188,24.0867 C6.6558,24.4047 5.6058,25.3627 5.1768,26.5897 C4.9138,27.3397 4.9098,28.1317 5.1468,28.8457 C5.0258,29.3227 4.9048,29.8157 4.8058,30.3467 C4.6628,31.1177 4.7378,31.9967 5.1058,32.7527 C5.0988,32.8017 5.0918,32.8527 5.0848,32.9037 C4.9728,33.6877 4.8548,34.4697 4.7368,35.2527 C4.4848,36.9177 4.2248,38.6397 4.0308,40.3687 C3.7638,42.7427 3.5648,45.1427 3.3738,47.4637 L3.2208,49.2937 C3.1528,50.0917 2.8828,50.8207 2.3708,51.5847 C1.0938,53.4897 0.3908,55.3137 0.2218,57.1587 C0.1248,58.2367 0.1328,59.2627 0.1408,60.2547 C0.1438,60.5717 0.1458,60.8897 0.1448,61.2057 L0.1428,61.8027 C0.1298,65.5737 0.1168,69.3417 0.1168,73.1107 C0.1168,74.9627 0.0938,76.8497 0.0718,78.6737 C0.0478,80.5747 0.0238,82.5407 0.0258,84.4907 C0.0258,84.9667 0.0178,85.3617 0.0118,85.7207 C-0.0002,86.3877 -0.0112,86.9677 0.0248,87.6987 C0.0248,87.9087 0.0218,88.1227 0.0198,88.3357 C0.0028,89.7347 -0.0162,91.3187 0.4798,92.8907 C1.0728,94.7697 3.0798,96.9627 6.7848,96.9627 L6.8078,96.9627 C7.0778,96.9777 7.7308,96.9997 9.6248,96.9997 C11.4048,96.9997 15.8988,96.9677 17.0608,96.8887 C18.8318,96.8297 20.8268,96.4087 22.3008,93.8787 C22.3178,93.8497 22.3348,93.8207 22.3508,93.7907 C22.9768,92.6267 23.2478,91.0227 23.1778,88.8847 C23.1368,87.6307 23.1108,75.2737 23.1798,70.3077 C23.2038,68.5637 23.1868,66.8237 23.1708,65.1407 C23.1518,63.2737 23.1328,61.3427 23.1728,59.4477 C23.2018,58.0797 23.1628,56.4517 22.6498,54.7547 C22.2188,53.3277 21.4858,52.2277 20.8398,51.2567 L20.5878,50.8757 C20.2618,50.3767 20.0908,49.9497 20.0508,49.5357 C19.9948,48.9537 19.9518,48.3727 19.9078,47.7907 C19.8568,47.1057 19.8048,46.4197 19.7368,45.7357 C19.3958,42.3597 19.0408,38.9857 18.6808,35.6127 C18.6088,34.9447 18.5288,34.2797 18.4488,33.6137 C18.4118,33.3027 18.3748,32.9917 18.3378,32.6807 C18.6398,32.0327 18.7568,31.2287 18.5508,30.2757 C18.4838,29.9627 18.4148,29.6877 18.3468,29.4127 C18.2998,29.2257 18.2538,29.0437 18.2158,28.8737 C18.4618,28.1257 18.5408,27.1007 17.9068,25.9507 C17.5798,25.3557 16.5788,23.9607 14.3968,23.9347 C12.7678,23.9187 11.1468,23.9077 9.5258,23.9077 L9.5098,23.9077 Z M9.5098,26.9077 L9.5258,26.9077 C11.1368,26.9077 12.7478,26.9187 14.3608,26.9337 C14.7338,26.9387 15.0768,27.0297 15.2798,27.3987 C15.4138,27.6417 15.4538,27.8327 15.2838,28.1177 C15.1428,28.3507 15.1348,28.7137 15.1818,28.9977 C15.2878,29.6297 15.4758,30.2457 15.6108,30.8727 C15.6708,31.1547 15.7548,31.4527 15.3788,31.6387 C15.2848,31.6857 15.2328,31.9237 15.2488,32.0637 C15.3878,33.3537 15.5588,34.6407 15.6978,35.9317 C16.0568,39.2987 16.4118,42.6667 16.7518,46.0357 C16.8778,47.2957 16.9438,48.5607 17.0648,49.8217 C17.1588,50.8077 17.5398,51.6937 18.0778,52.5197 C18.7258,53.5087 19.4278,54.4647 19.7778,55.6227 C20.1508,56.8547 20.2008,58.1157 20.1738,59.3837 C20.0958,63.0337 20.2318,66.6147 20.1798,70.2657 C20.1128,75.0847 20.1328,87.5567 20.1798,88.9817 C20.2068,89.8187 20.2068,91.4437 19.7088,92.3677 C18.9498,93.6707 18.1408,93.8577 16.9038,93.8917 C16.3248,93.9477 12.4198,93.9997 9.6248,93.9997 C8.3258,93.9997 7.2668,93.9887 6.8938,93.9617 C6.8568,93.9627 6.8208,93.9627 6.7848,93.9627 C4.5128,93.9627 3.5908,92.7817 3.3408,91.9887 C2.9188,90.6507 3.0258,89.1037 3.0258,87.6227 C2.9688,86.5767 3.0258,85.8577 3.0258,84.4877 C3.0228,80.6877 3.1168,76.9097 3.1168,73.1107 C3.1168,69.1467 3.1318,65.1837 3.1448,61.2187 C3.1498,59.9567 3.0968,58.6867 3.2098,57.4327 C3.3498,55.8987 4.0148,54.5197 4.8638,53.2547 C5.6238,52.1187 6.0948,50.9087 6.2108,49.5467 C6.4598,46.5967 6.6818,43.6437 7.0118,40.7037 C7.2888,38.2367 7.7048,35.7857 8.0548,33.3277 C8.1078,32.9527 8.1568,32.5767 8.1768,32.2007 C8.1918,31.9297 8.2088,31.6627 7.8628,31.5017 C7.7518,31.4497 7.7188,31.0917 7.7558,30.8937 C7.8668,30.2967 8.0248,29.7067 8.1738,29.1167 C8.2708,28.7247 8.3248,28.3647 8.0438,27.9957 C7.8158,27.6967 8.1688,27.1177 8.6448,26.9977 C8.9238,26.9287 9.2208,26.9077 9.5098,26.9077 L9.5098,26.9077 Z" id="Fill-16" fill="#1B2D38" sketch:type="MSShapeGroup"></path>
                <path d="M74.291,74.834 C72.871,74.834 71.938,74.82 71.518,74.796 L71.452,74.796 C68.562,74.796 67.038,73.234 66.577,71.773 C66.153,70.431 66.17,69.035 66.187,67.688 L66.192,66.955 C66.155,66.318 66.166,65.745 66.178,65.08 C66.186,64.715 66.192,64.311 66.192,63.821 C66.19,61.887 66.214,59.957 66.238,58.027 C66.261,56.168 66.284,54.31 66.284,52.443 C66.284,48.612 66.297,44.784 66.311,40.952 C66.311,40.952 66.311,39.896 66.308,39.571 C66.3,38.618 66.292,37.63 66.382,36.631 C66.527,35.04 67.149,33.443 68.284,31.751 C68.935,30.783 69.293,29.801 69.382,28.752 L69.534,26.937 C69.725,24.621 69.922,22.227 70.187,19.87 C70.379,18.167 70.637,16.457 70.887,14.804 C71.006,14.019 71.124,13.234 71.236,12.45 C71.27,12.215 71.301,11.981 71.324,11.747 C70.88,11.192 70.861,10.416 70.948,9.952 C71.045,9.426 71.177,8.902 71.311,8.381 C71.311,8.381 71.391,8.063 71.394,8.054 C71.109,7.571 71.061,6.987 71.259,6.418 C71.52,5.673 72.182,5.068 72.946,4.876 C73.314,4.786 73.714,4.742 74.172,4.742 C75.81,4.742 77.424,4.751 79.041,4.768 C80.389,4.785 81.01,5.554 81.261,6.009 C81.643,6.699 81.666,7.386 81.331,8.051 C81.393,8.455 81.477,8.782 81.558,9.108 C81.623,9.369 81.687,9.628 81.744,9.891 C81.928,10.735 81.746,11.313 81.458,11.705 C81.512,12.178 81.569,12.648 81.625,13.12 C81.705,13.78 81.784,14.442 81.855,15.105 C82.215,18.476 82.57,21.847 82.911,25.218 C82.979,25.892 83.028,26.564 83.079,27.238 C83.123,27.83 83.167,28.421 83.224,29.012 C83.287,29.667 83.541,30.328 84.001,31.034 L84.257,31.419 C84.846,32.305 85.514,33.309 85.88,34.522 C86.333,36.019 86.367,37.499 86.34,38.749 C86.299,40.668 86.318,42.612 86.337,44.493 C86.354,46.196 86.371,47.9 86.346,49.62 C86.281,54.309 86.299,66.855 86.345,68.267 C86.405,70.134 86.193,71.489 85.696,72.412 C84.506,74.456 82.991,74.683 81.654,74.724 C80.789,74.789 76.712,74.834 74.291,74.834" id="Fill-18" fill="#FFFFFF" sketch:type="MSShapeGroup"></path>
                <path d="M74.1768,3.2412 C73.5908,3.2412 73.0708,3.3002 72.5858,3.4202 C71.3218,3.7382 70.2728,4.6972 69.8438,5.9242 C69.5798,6.6732 69.5758,7.4652 69.8138,8.1792 C69.6928,8.6562 69.5708,9.1502 69.4728,9.6802 C69.3288,10.4512 69.4048,11.3302 69.7728,12.0862 C69.7658,12.1352 69.7588,12.1862 69.7508,12.2372 C69.6398,13.0222 69.5218,13.8042 69.4028,14.5872 C69.1518,16.2522 68.8918,17.9732 68.6978,19.7022 C68.4308,22.0752 68.2328,24.4732 68.0398,26.7922 L67.8878,28.6272 C67.8198,29.4252 67.5498,30.1542 67.0368,30.9182 C65.7608,32.8222 65.0578,34.6462 64.8888,36.4932 C64.7908,37.5702 64.7998,38.5962 64.8078,39.5882 C64.8108,39.9052 64.8128,40.2232 64.8118,40.5392 L64.8098,41.1762 C64.7968,44.9332 64.7828,48.6882 64.7828,52.4442 C64.7828,54.2962 64.7608,56.1822 64.7388,58.0082 C64.7148,59.9092 64.6908,61.8742 64.6918,63.8242 C64.6918,64.3002 64.6848,64.6952 64.6788,65.0542 C64.6658,65.7202 64.6558,66.3012 64.6918,67.0322 C64.6918,67.2432 64.6888,67.4562 64.6868,67.6692 C64.6688,69.0672 64.6508,70.6522 65.1468,72.2232 C65.7388,74.1022 67.7458,76.2962 71.4508,76.2962 L71.4748,76.2962 C71.7438,76.3102 72.3978,76.3332 74.2908,76.3332 C76.0718,76.3332 80.5648,76.3012 81.7278,76.2212 C83.4978,76.1632 85.4918,75.7432 86.9678,73.2122 C86.9848,73.1822 86.9998,73.1542 87.0178,73.1242 C87.6438,71.9602 87.9128,70.3562 87.8448,68.2182 C87.8038,66.9632 87.7778,54.6052 87.8458,49.6402 C87.8698,47.8962 87.8538,46.1562 87.8358,44.4732 C87.8188,42.6062 87.7998,40.6752 87.8398,38.7812 C87.8678,37.4132 87.8288,35.7862 87.3168,34.0882 C86.8858,32.6612 86.1528,31.5602 85.5058,30.5892 L85.2538,30.2092 C84.9288,29.7102 84.7578,29.2832 84.7178,28.8702 C84.6608,28.2872 84.6178,27.7062 84.5738,27.1242 C84.5238,26.4392 84.4718,25.7532 84.4038,25.0692 C84.0628,21.6932 83.7068,18.3192 83.3478,14.9462 C83.2758,14.2792 83.1958,13.6142 83.1148,12.9492 C83.0778,12.6372 83.0408,12.3262 83.0038,12.0142 C83.3068,11.3662 83.4238,10.5622 83.2178,9.6092 C83.1508,9.2962 83.0808,9.0212 83.0128,8.7462 C82.9668,8.5592 82.9198,8.3772 82.8828,8.2072 C83.1278,7.4592 83.2068,6.4342 82.5738,5.2852 C82.2458,4.6892 81.2448,3.2942 79.0638,3.2682 C77.4348,3.2522 75.8138,3.2412 74.1928,3.2412 L74.1768,3.2412 Z M74.1768,6.2412 L74.1928,6.2412 C75.8038,6.2412 77.4138,6.2522 79.0278,6.2672 C79.4008,6.2722 79.7428,6.3632 79.9468,6.7322 C80.0798,6.9752 80.1198,7.1662 79.9498,7.4512 C79.8098,7.6842 79.8018,8.0472 79.8488,8.3312 C79.9538,8.9632 80.1428,9.5792 80.2778,10.2062 C80.3368,10.4882 80.4218,10.7862 80.0448,10.9722 C79.9508,11.0192 79.8998,11.2572 79.9148,11.3972 C80.0548,12.6872 80.2258,13.9742 80.3638,15.2652 C80.7238,18.6322 81.0778,22.0002 81.4178,25.3692 C81.5438,26.6292 81.6108,27.8942 81.7318,29.1552 C81.8248,30.1412 82.2058,31.0272 82.7438,31.8532 C83.3928,32.8422 84.0948,33.7982 84.4448,34.9562 C84.8178,36.1882 84.8668,37.4492 84.8408,38.7172 C84.7628,42.3682 84.8988,45.9482 84.8468,49.5982 C84.7798,54.4182 84.7998,66.8892 84.8468,68.3152 C84.8728,69.1522 84.8728,70.7772 84.3748,71.7022 C83.6158,73.0042 82.8078,73.1912 81.5708,73.2242 C80.9908,73.2812 77.0858,73.3332 74.2908,73.3332 C72.9918,73.3332 71.9338,73.3222 71.5608,73.2952 C71.5238,73.2962 71.4878,73.2962 71.4508,73.2962 C69.1798,73.2962 68.2578,72.1152 68.0078,71.3222 C67.5848,69.9842 67.6918,68.4362 67.6918,66.9562 C67.6358,65.9112 67.6918,65.1912 67.6918,63.8212 C67.6888,60.0212 67.7828,56.2442 67.7828,52.4442 C67.7828,48.4802 67.7988,44.5172 67.8118,40.5522 C67.8168,39.2902 67.7638,38.0202 67.8758,36.7662 C68.0168,35.2322 68.6818,33.8532 69.5308,32.5882 C70.2898,31.4532 70.7618,30.2432 70.8758,28.8802 C71.1258,25.9302 71.3478,22.9772 71.6788,20.0372 C71.9548,17.5702 72.3708,15.1192 72.7218,12.6612 C72.7748,12.2862 72.8228,11.9102 72.8438,11.5342 C72.8588,11.2632 72.8748,10.9962 72.5298,10.8352 C72.4178,10.7832 72.3858,10.4252 72.4228,10.2272 C72.5328,9.6302 72.6918,9.0402 72.8408,8.4502 C72.9378,8.0582 72.9908,7.6982 72.7098,7.3292 C72.4828,7.0302 72.8348,6.4512 73.3118,6.3312 C73.5908,6.2622 73.8878,6.2412 74.1768,6.2412 L74.1768,6.2412 Z" id="Fill-20" fill="#1B2D38" sketch:type="MSShapeGroup"></path>
                <path d="M81.1172,95.4619 C78.2272,95.4619 76.7052,93.9009 76.2432,92.4409 C75.8192,91.0969 75.8362,89.7019 75.8522,88.3549 L75.8582,87.6219 C75.8222,86.9849 75.8322,86.4109 75.8442,85.7469 C75.8512,85.3819 75.8582,84.9779 75.8582,84.4869 C75.8572,82.4149 76.4062,80.0439 76.9362,77.7509 C77.4282,75.6259 77.9372,73.4299 77.9372,71.7019 C77.9372,69.9469 77.4922,68.4719 77.0202,66.9079 C76.5042,65.1959 75.9702,63.4259 75.9782,61.2139 C75.9792,60.8899 75.9772,60.5659 75.9742,60.2409 C75.9672,59.2859 75.9592,58.2979 76.0492,57.2989 C76.1942,55.7069 76.8162,54.1109 77.9512,52.4189 C78.6002,51.4479 78.9602,50.4679 79.0492,49.4189 L79.2032,47.5699 C79.3932,45.2669 79.5912,42.8819 79.8542,40.5359 C80.0452,38.8349 80.3032,37.1259 80.5532,35.4719 C80.6722,34.6879 80.7902,33.9009 80.9032,33.1149 C80.9362,32.8809 80.9682,32.6489 80.9902,32.4139 C80.5482,31.8589 80.5282,31.0849 80.6142,30.6219 C80.7112,30.0959 80.8422,29.5799 80.9722,29.0629 L81.0512,28.7529 C81.1052,28.3389 81.1112,26.2659 81.0112,25.6309 C80.7712,25.1689 80.7382,24.6209 80.9252,24.0869 C81.1862,23.3399 81.8482,22.7339 82.6132,22.5439 C82.9782,22.4509 83.3792,22.4069 83.8392,22.4069 L87.7922,22.4069 C88.2712,22.4069 88.6712,22.4509 89.0352,22.5429 C89.8022,22.7339 90.4642,23.3399 90.7252,24.0869 C90.9122,24.6209 90.8792,25.1689 90.6392,25.6309 C90.5392,26.2659 90.5462,28.3439 90.6162,28.8319 L90.6782,29.0629 C90.8082,29.5799 90.9392,30.0959 91.0362,30.6199 C91.1222,31.0849 91.1022,31.8609 90.6612,32.4139 C90.6842,32.6669 90.7162,32.8919 90.7472,33.1159 C90.8602,33.9009 90.9782,34.6879 91.0972,35.4719 C91.3472,37.1259 91.6052,38.8349 91.7962,40.5359 C92.0592,42.8819 92.2572,45.2669 92.4472,47.5699 L92.6012,49.4199 C92.6902,50.4679 93.0502,51.4479 93.7002,52.4199 C94.8342,54.1109 95.4562,55.7069 95.6012,57.2969 C95.6912,58.2979 95.6832,59.2859 95.6762,60.2409 C95.6732,60.5659 95.6712,60.8899 95.6722,61.2129 C95.6802,63.4259 95.1462,65.1949 94.6302,66.9069 C94.1592,68.4709 93.7132,69.9469 93.7132,71.7019 C93.7132,73.4299 94.2222,75.6259 94.7142,77.7509 C95.2442,80.0439 95.7932,82.4149 95.7922,84.4879 C95.7922,84.9779 95.7992,85.3819 95.8062,85.7469 C95.8182,86.4109 95.8282,86.9849 95.7902,87.7029 L95.7982,88.3549 C95.8142,89.7019 95.8312,91.0969 95.4072,92.4409 C94.9452,93.9009 93.4222,95.4619 90.5342,95.4619 L81.1172,95.4619 Z" id="Fill-22" fill="#FFFFFF" sketch:type="MSShapeGroup"></path>
                <g id="Group-26">
                    <mask id="mask-4" sketch:name="Clip 25" fill="white">
                        <use xlink:href="#path-3"></use>
                    </mask>
                    <g id="Clip-25"></g>
                    <path d="M87.8066,20.9077 L87.8016,20.9077 L87.7826,20.9077 L83.8596,20.9077 C83.2566,20.9077 82.7376,20.9667 82.2516,21.0877 C80.9896,21.4047 79.9396,22.3637 79.5096,23.5907 C79.2246,24.4027 79.2436,25.2647 79.5446,26.0237 C79.5986,26.6427 79.5946,28.0217 79.5546,28.5527 L79.5216,28.6847 C79.3866,29.2117 79.2486,29.7567 79.1386,30.3467 C78.9956,31.1177 79.0716,31.9967 79.4396,32.7527 C79.4316,32.8017 79.4246,32.8527 79.4176,32.9037 C79.3056,33.6877 79.1886,34.4697 79.0706,35.2517 C78.8186,36.9167 78.5576,38.6397 78.3646,40.3687 C78.0966,42.7407 77.8996,45.1387 77.7066,47.4587 L77.5536,49.2937 C77.4866,50.0917 77.2156,50.8207 76.7036,51.5847 C75.4266,53.4897 74.7236,55.3137 74.5546,57.1587 C74.4576,58.2367 74.4666,59.2617 74.4736,60.2537 C74.4766,60.5707 74.4806,60.8887 74.4776,61.2057 C74.4696,63.6447 75.0616,65.6087 75.5836,67.3417 C76.0416,68.8587 76.4366,70.1687 76.4366,71.7007 C76.4366,73.2577 75.9486,75.3687 75.4746,77.4127 C74.9246,79.7887 74.3576,82.2437 74.3596,84.4907 C74.3596,84.9667 74.3506,85.3627 74.3446,85.7207 C74.3326,86.3877 74.3226,86.9677 74.3586,87.6977 C74.3586,87.9087 74.3556,88.1227 74.3526,88.3357 C74.3356,89.7337 74.3176,91.3187 74.8136,92.8907 C75.4066,94.7697 77.4126,96.9627 81.1186,96.9627 L81.2766,96.9617 L90.4236,96.9617 L90.5336,96.9627 C94.2376,96.9627 96.2446,94.7697 96.8366,92.8927 C97.3326,91.3187 97.3156,89.7337 97.2976,88.3357 C97.2946,88.1227 97.2926,87.9087 97.2916,87.6977 C97.3276,86.9677 97.3186,86.3877 97.3056,85.7207 C97.2986,85.3627 97.2916,84.9667 97.2916,84.4877 C97.2936,82.2437 96.7246,79.7887 96.1746,77.4127 C95.7026,75.3687 95.2136,73.2577 95.2136,71.7007 C95.2136,70.1687 95.6096,68.8587 96.0666,67.3407 C96.5876,65.6087 97.1806,63.6447 97.1716,61.2087 C97.1706,60.8887 97.1736,60.5707 97.1756,60.2537 C97.1836,59.2617 97.1926,58.2367 97.0946,57.1637 C96.9266,55.3137 96.2226,53.4887 94.9456,51.5837 C94.4336,50.8207 94.1636,50.0917 94.0956,49.2927 L93.9436,47.4587 C93.7516,45.1397 93.5526,42.7407 93.2866,40.3687 C93.0926,38.6397 92.8326,36.9187 92.5806,35.2537 C92.4626,34.4717 92.3436,33.6887 92.2336,32.9047 C92.2246,32.8517 92.2176,32.8007 92.2106,32.7507 C92.5786,31.9937 92.6546,31.1167 92.5106,30.3457 C92.4026,29.7567 92.2626,29.2117 92.1286,28.6847 L92.0956,28.5527 C92.0556,28.0217 92.0506,26.6427 92.1056,26.0237 C92.4066,25.2647 92.4246,24.4027 92.1406,23.5907 C91.7106,22.3637 90.6616,21.4047 89.4036,21.0887 C88.9136,20.9667 88.3926,20.9077 87.8066,20.9077 M87.8066,23.9077 C88.0956,23.9077 88.3926,23.9287 88.6716,23.9977 C89.1486,24.1177 89.5006,24.6967 89.2736,24.9957 C88.9926,25.3647 89.0456,28.7247 89.1436,29.1167 C89.2916,29.7067 89.4516,30.2967 89.5606,30.8937 C89.5976,31.0917 89.5656,31.4497 89.4546,31.5017 C89.1096,31.6627 89.1256,31.9297 89.1396,32.2007 C89.1606,32.5777 89.2086,32.9527 89.2626,33.3277 C89.6136,35.7857 90.0296,38.2367 90.3056,40.7037 C90.6356,43.6437 90.8576,46.5967 91.1076,49.5467 C91.2226,50.9087 91.6946,52.1187 92.4536,53.2547 C93.3016,54.5197 93.9676,55.8987 94.1086,57.4327 C94.2196,58.6867 94.1666,59.9567 94.1716,61.2187 C94.1856,65.1837 92.2136,67.7387 92.2136,71.7007 C92.2136,75.5027 94.2946,80.6877 94.2916,84.4877 C94.2916,85.8577 94.3476,86.5767 94.2916,87.6227 C94.2916,89.1037 94.3996,90.6507 93.9766,91.9887 C93.7256,92.7817 92.8036,93.9627 90.5336,93.9627 C90.4966,93.9627 90.4596,93.9627 90.4236,93.9617 L81.2266,93.9617 C81.1906,93.9627 81.1546,93.9627 81.1186,93.9627 C78.8456,93.9627 77.9236,92.7817 77.6736,91.9887 C77.2516,90.6507 77.3596,89.1037 77.3596,87.6227 C77.3016,86.5767 77.3596,85.8577 77.3596,84.4877 C77.3566,80.6877 79.4366,75.5027 79.4366,71.7007 C79.4366,67.7387 77.4646,65.1837 77.4776,61.2187 C77.4836,59.9567 77.4296,58.6867 77.5426,57.4327 C77.6826,55.8987 78.3476,54.5197 79.1976,53.2547 C79.9566,52.1187 80.4276,50.9087 80.5436,49.5467 C80.7926,46.5967 81.0146,43.6437 81.3446,40.7037 C81.6216,38.2367 82.0376,35.7857 82.3876,33.3277 C82.4416,32.9527 82.4906,32.5777 82.5096,32.2007 C82.5256,31.9297 82.5416,31.6627 82.1966,31.5017 C82.0846,31.4497 82.0516,31.0917 82.0886,30.8937 C82.2006,30.2967 82.3586,29.7067 82.5066,29.1167 C82.6036,28.7247 82.6596,25.3647 82.3766,24.9957 C82.1496,24.6967 82.5016,24.1177 82.9776,23.9977 C83.2566,23.9287 83.5536,23.9077 83.8426,23.9077 L83.8596,23.9077 L87.7916,23.9077 L87.8066,23.9077" id="Fill-24" fill="#3FC2CD" sketch:type="MSShapeGroup" mask="url(#mask-4)"></path>
                </g>
                <path d="M61.291,95.5 C59.871,95.5 58.939,95.487 58.517,95.462 L58.451,95.462 C55.561,95.462 54.038,93.901 53.577,92.441 C53.153,91.097 53.17,89.703 53.186,88.354 L53.192,87.623 C53.155,86.985 53.166,86.412 53.178,85.748 C53.185,85.381 53.192,84.977 53.192,84.488 C53.19,82.553 53.214,80.624 53.238,78.695 C53.261,76.835 53.284,74.976 53.284,73.11 C53.284,69.282 53.297,65.453 53.31,61.623 C53.31,61.623 53.31,60.563 53.308,60.238 C53.3,59.284 53.292,58.297 53.382,57.298 C53.527,55.706 54.149,54.111 55.284,52.419 C55.934,51.449 56.293,50.468 56.382,49.419 L56.534,47.602 C56.725,45.287 56.922,42.893 57.187,40.536 C57.307,39.471 57.459,36.562 57.62,33.481 C57.823,29.574 58.034,25.535 58.236,24.116 C58.269,23.883 58.301,23.649 58.323,23.416 C57.88,22.863 57.861,22.083 57.948,21.618 C57.983,21.412 58.049,20.448 58.097,19.744 C58.217,17.98 58.281,17.165 58.385,16.75 C58.388,16.74 58.39,16.73 58.393,16.72 C58.11,16.239 58.059,15.655 58.258,15.086 C58.52,14.341 59.182,13.735 59.946,13.543 C60.312,13.452 60.712,13.408 61.172,13.408 C62.809,13.408 64.424,13.418 66.042,13.434 C67.388,13.45 68.01,14.219 68.261,14.677 C68.642,15.366 68.665,16.053 68.33,16.719 C68.388,17.142 68.44,17.837 68.524,19.007 C68.59,19.91 68.688,21.274 68.745,21.562 C68.932,22.42 68.74,23.002 68.443,23.393 C68.501,24.397 68.56,26.465 68.64,29.478 C68.711,32.154 68.792,35.187 68.855,35.771 C69.215,39.142 69.57,42.513 69.91,45.885 C69.978,46.558 70.028,47.231 70.079,47.905 C70.123,48.497 70.167,49.088 70.224,49.678 C70.287,50.333 70.541,50.995 71.001,51.701 L71.257,52.088 C71.846,52.972 72.514,53.975 72.88,55.189 C73.333,56.685 73.367,58.165 73.34,59.415 C73.299,61.335 73.318,63.279 73.337,65.16 C73.354,66.863 73.371,68.567 73.346,70.287 C73.281,74.975 73.299,87.522 73.345,88.933 C73.405,90.8 73.193,92.156 72.696,93.08 C71.506,95.124 69.991,95.35 68.654,95.39 C67.789,95.456 63.711,95.5 61.291,95.5" id="Fill-27" fill="#FFFFFF" sketch:type="MSShapeGroup"></path>
                <path d="M61.1768,11.9077 C60.5908,11.9077 60.0708,11.9667 59.5858,12.0867 C58.3218,12.4047 57.2728,13.3637 56.8428,14.5907 C56.5728,15.3607 56.5758,16.1757 56.8328,16.9047 C56.7548,17.4567 56.6958,18.2507 56.6008,19.6377 C56.5578,20.2717 56.4978,21.1377 56.4658,21.3837 C56.3308,22.1457 56.4098,23.0087 56.7728,23.7527 C56.7658,23.8017 56.7588,23.8527 56.7508,23.9037 C56.5548,25.2857 56.3738,28.5607 56.1208,33.3987 C55.9698,36.3237 55.8118,39.3477 55.6978,40.3687 C55.4308,42.7407 55.2328,45.1387 55.0398,47.4577 L54.8878,49.2937 C54.8198,50.0917 54.5498,50.8207 54.0368,51.5847 C52.7608,53.4887 52.0578,55.3127 51.8888,57.1587 C51.7908,58.2367 51.7998,59.2627 51.8078,60.2547 C51.8108,60.5717 51.8128,60.8897 51.8118,61.2067 L51.8098,61.8417 C51.7968,65.5997 51.7828,69.3547 51.7828,73.1107 C51.7828,74.9627 51.7608,76.8497 51.7388,78.6737 C51.7148,80.5747 51.6908,82.5407 51.6918,84.4907 C51.6918,84.9667 51.6848,85.3617 51.6788,85.7207 C51.6658,86.3877 51.6558,86.9677 51.6918,87.6987 C51.6918,87.9087 51.6888,88.1227 51.6868,88.3357 C51.6688,89.7337 51.6508,91.3187 52.1468,92.8907 C52.7388,94.7697 54.7458,96.9627 58.4508,96.9627 L58.4748,96.9627 C58.7438,96.9777 59.3978,96.9997 61.2908,96.9997 C63.0718,96.9997 67.5658,96.9677 68.7278,96.8887 C70.4978,96.8297 72.4928,96.4087 73.9678,93.8787 C73.9848,93.8497 73.9998,93.8207 74.0168,93.7907 C74.6438,92.6267 74.9138,91.0227 74.8448,88.8847 C74.8038,87.6297 74.7778,75.2727 74.8468,70.3077 C74.8698,68.5627 74.8538,66.8227 74.8358,65.1407 C74.8188,63.2727 74.7998,61.3417 74.8398,59.4477 C74.8678,58.0797 74.8288,56.4517 74.3168,54.7547 C73.8858,53.3267 73.1528,52.2267 72.5058,51.2557 L72.2538,50.8757 C71.9288,50.3767 71.7578,49.9497 71.7178,49.5357 C71.6608,48.9537 71.6178,48.3727 71.5738,47.7907 C71.5238,47.1047 71.4718,46.4197 71.4038,45.7357 C71.0628,42.3597 70.7068,38.9857 70.3478,35.6127 C70.2898,35.0657 70.2028,31.8097 70.1398,29.4327 C70.0658,26.6427 70.0138,24.8387 69.9648,23.7637 C70.2948,23.1027 70.4328,22.2727 70.2198,21.2817 C70.1678,20.9357 70.0748,19.6627 70.0208,18.8957 C69.9498,17.9197 69.9058,17.3277 69.8638,16.9297 C70.1238,16.1767 70.2238,15.1297 69.5738,13.9517 C69.2458,13.3557 68.2448,11.9607 66.0638,11.9347 C64.4348,11.9187 62.8138,11.9077 61.1928,11.9077 L61.1768,11.9077 M61.1768,14.9077 L61.1928,14.9077 C62.8038,14.9077 64.4138,14.9187 66.0278,14.9337 C66.4008,14.9387 66.7428,15.0297 66.9468,15.3987 C67.0798,15.6417 67.1198,15.8327 66.9498,16.1177 C66.8098,16.3507 66.8018,16.7137 66.8488,16.9977 C66.9538,17.6297 67.1428,21.2457 67.2778,21.8727 C67.3368,22.1547 67.4218,22.4527 67.0448,22.6387 C66.9508,22.6857 66.8998,22.9237 66.9148,23.0637 C67.0548,24.3537 67.2258,34.6407 67.3638,35.9317 C67.7238,39.2987 68.0778,42.6667 68.4178,46.0357 C68.5438,47.2957 68.6108,48.5607 68.7318,49.8217 C68.8248,50.8077 69.2058,51.6937 69.7438,52.5197 C70.3928,53.5087 71.0948,54.4647 71.4448,55.6227 C71.8178,56.8547 71.8668,58.1157 71.8408,59.3837 C71.7628,63.0337 71.8988,66.6147 71.8468,70.2657 C71.7798,75.0847 71.7998,87.5567 71.8468,88.9817 C71.8728,89.8187 71.8728,91.4437 71.3748,92.3677 C70.6158,93.6707 69.8078,93.8577 68.5708,93.8917 C67.9908,93.9477 64.0858,93.9997 61.2908,93.9997 C59.9918,93.9997 58.9338,93.9887 58.5608,93.9617 C58.5238,93.9627 58.4878,93.9627 58.4508,93.9627 C56.1798,93.9627 55.2578,92.7817 55.0078,91.9887 C54.5848,90.6507 54.6918,89.1037 54.6918,87.6227 C54.6358,86.5767 54.6918,85.8577 54.6918,84.4877 C54.6888,80.6877 54.7828,76.9097 54.7828,73.1107 C54.7828,69.1467 54.7988,65.1837 54.8118,61.2187 C54.8168,59.9567 54.7638,58.6867 54.8758,57.4327 C55.0168,55.8987 55.6818,54.5197 56.5308,53.2547 C57.2898,52.1187 57.7618,50.9087 57.8758,49.5467 C58.1258,46.5967 58.3478,43.6437 58.6788,40.7037 C58.9548,38.2367 59.3708,26.7857 59.7218,24.3277 C59.7748,23.9527 59.8228,23.5767 59.8438,23.2007 C59.8588,22.9297 59.8748,22.6627 59.5298,22.5017 C59.4178,22.4497 59.3858,22.0917 59.4228,21.8937 C59.5328,21.2967 59.6918,17.7067 59.8408,17.1167 C59.9378,16.7247 59.9908,16.3647 59.7098,15.9957 C59.4828,15.6967 59.8348,15.1177 60.3118,14.9977 C60.5908,14.9287 60.8878,14.9077 61.1768,14.9077" id="Fill-29" fill="#1B2D38" sketch:type="MSShapeGroup"></path>
                <path d="M35.2847,95.5 C33.8667,95.5 32.9367,95.488 32.5187,95.464 L32.4507,95.465 C30.3907,95.465 26.2197,94.474 25.5847,92.58 C25.1527,91.289 25.1697,89.96 25.1857,88.675 L25.1917,87.987 C25.1557,87.39 25.1657,86.846 25.1777,86.216 C25.1847,85.872 25.1917,85.492 25.1917,85.032 C25.1907,83.208 25.2137,81.388 25.2377,79.568 C25.2607,77.816 25.2837,76.063 25.2837,74.306 C25.2837,70.694 25.2967,67.083 25.3097,63.47 C25.3097,63.47 25.3097,62.477 25.3077,62.171 C25.2997,61.267 25.2917,60.333 25.3827,59.382 C25.5307,57.854 26.1597,56.329 27.3077,54.716 C27.7327,54.118 28.3677,53.629 29.0387,53.112 C29.4727,52.778 30.2807,52.156 30.3997,51.873 C30.5257,50.369 30.6627,49.641 30.8077,48.871 C30.9237,48.253 31.0447,47.615 31.1887,46.403 C31.3487,45.061 31.5567,44.312 31.7587,43.586 C31.9277,42.979 32.0867,42.405 32.2377,41.402 C32.2677,41.205 32.2967,41.008 32.3177,40.81 C31.9267,40.314 31.8367,39.615 31.9517,39.04 C32.0487,38.542 32.1817,38.046 32.3157,37.55 L32.3817,37.305 C32.1177,36.843 32.0657,36.276 32.2497,35.74 C32.5067,34.99 33.1807,34.385 33.9677,34.2 C34.3257,34.115 34.7227,34.074 35.1807,34.074 C36.8077,34.074 38.4237,34.084 40.0407,34.099 C41.2987,34.114 41.9317,34.75 42.2417,35.282 C42.7237,36.104 42.5867,36.813 42.3337,37.312 C42.3927,37.643 42.4727,37.939 42.5527,38.237 C42.6177,38.483 42.6827,38.73 42.7397,38.978 C42.9307,39.808 42.7457,40.379 42.4647,40.763 C42.5157,41.189 42.5697,41.613 42.6237,42.038 C42.7037,42.663 42.7837,43.287 42.8537,43.913 C43.0057,45.252 43.1337,45.528 43.2577,45.794 C43.5237,46.371 43.7267,46.911 43.9097,48.62 C43.9767,49.256 44.0277,49.892 44.0787,50.528 C44.1157,51 44.1537,51.471 44.1987,51.942 C44.4197,52.133 44.8907,52.422 45.1907,52.606 C45.9017,53.042 46.5737,53.455 46.9787,54.04 L47.2337,54.404 C47.8277,55.244 48.4997,56.197 48.8727,57.361 C49.3317,58.792 49.3667,60.205 49.3397,61.397 C49.2997,63.205 49.3187,65.037 49.3367,66.808 C49.3537,68.415 49.3707,70.023 49.3467,71.646 C49.2807,76.064 49.2987,87.888 49.3457,89.217 C49.4067,91.007 49.1877,92.312 48.6777,93.206 C47.8097,94.611 45.8337,95.313 42.6097,95.397 C41.9957,95.457 37.7687,95.5 35.2847,95.5" id="Fill-31" fill="#FFFFFF" sketch:type="MSShapeGroup"></path>
                <g id="Group-35">
                    <mask id="mask-6" sketch:name="Clip 34" fill="white">
                        <use xlink:href="#path-5"></use>
                    </mask>
                    <g id="Clip-34"></g>
                    <path d="M35.1763,32.5742 C34.6043,32.5742 34.0963,32.6282 33.6253,32.7392 C32.3243,33.0472 31.2553,34.0112 30.8293,35.2552 C30.5833,35.9742 30.5793,36.7282 30.7983,37.4142 C30.6853,37.8382 30.5713,38.2792 30.4783,38.7532 C30.3323,39.4972 30.4023,40.3702 30.7623,41.1292 C30.7593,41.1452 30.7573,41.1622 30.7543,41.1782 C30.6163,42.0922 30.4753,42.5982 30.3123,43.1852 C30.1063,43.9282 29.8723,44.7692 29.6993,46.2262 C29.5603,47.3882 29.4453,48.0012 29.3333,48.5942 C29.2053,49.2742 29.0733,49.9742 28.9413,51.2662 C28.7123,51.4702 28.3603,51.7412 28.1243,51.9232 C27.3943,52.4852 26.6403,53.0662 26.0843,53.8482 C24.7813,55.6792 24.0633,57.4412 23.8903,59.2352 C23.7913,60.2682 23.7993,61.2442 23.8073,62.1872 C23.8103,62.4852 23.8123,62.7832 23.8113,63.0802 L23.8093,63.6402 C23.7963,67.1962 23.7833,70.7512 23.7833,74.3052 C23.7833,76.0492 23.7603,77.8262 23.7383,79.5452 C23.7143,81.3392 23.6903,83.1942 23.6913,85.0342 C23.6913,85.4802 23.6843,85.8512 23.6783,86.1872 C23.6663,86.7942 23.6553,87.3682 23.6913,88.0672 C23.6913,88.2622 23.6883,88.4592 23.6863,88.6552 C23.6693,90.0002 23.6493,91.5232 24.1623,93.0552 C25.1423,95.9802 30.2633,96.9642 32.4493,96.9642 L32.4793,96.9642 C32.7423,96.9782 33.4033,97.0002 35.2913,97.0002 C37.4563,97.0002 41.6313,96.9652 42.7173,96.8952 C46.4473,96.7882 48.8053,95.8532 49.9273,94.0392 C49.9453,94.0102 49.9643,93.9792 49.9803,93.9492 C50.6343,92.8062 50.9153,91.2412 50.8443,89.1662 C50.8033,87.9842 50.7763,76.3452 50.8453,71.6672 C50.8703,70.0192 50.8533,68.3762 50.8363,66.7872 C50.8183,65.0302 50.8003,63.2122 50.8403,61.4312 C50.8693,60.1152 50.8283,58.5472 50.3013,56.9022 C49.8583,55.5192 49.1143,54.4682 48.4593,53.5382 L48.2083,53.1812 C47.6273,52.3412 46.7873,51.8262 45.9753,51.3272 C45.8723,51.2642 45.7503,51.1892 45.6303,51.1142 C45.6113,50.8782 45.5923,50.6432 45.5733,50.4082 C45.5223,49.7592 45.4703,49.1092 45.4013,48.4622 C45.2123,46.6962 44.9893,45.9662 44.6183,45.1652 C44.5553,45.0282 44.4693,44.8422 44.3453,43.7442 C44.2733,43.1132 44.1933,42.4842 44.1133,41.8562 C44.0803,41.5992 44.0473,41.3422 44.0153,41.0852 C44.3173,40.4372 44.4293,39.6332 44.2093,38.6762 C44.1413,38.3782 44.0723,38.1152 44.0023,37.8532 C43.9643,37.7112 43.9273,37.5732 43.8953,37.4412 C44.2013,36.4782 44.0813,35.4562 43.5363,34.5242 C43.1243,33.8162 42.1223,32.6232 40.0613,32.5992 C38.4333,32.5842 36.8123,32.5742 35.1923,32.5742 L35.1763,32.5742 Z M35.1763,35.5742 L35.1923,35.5742 C36.8033,35.5742 38.4143,35.5842 40.0273,35.5992 C40.4003,35.6032 40.7433,35.6892 40.9463,36.0372 C41.0803,36.2662 41.1203,36.4462 40.9503,36.7152 C40.8093,36.9352 40.8013,37.2772 40.8483,37.5452 C40.9543,38.1402 41.1423,38.7212 41.2773,39.3122 C41.3373,39.5782 41.4213,39.8592 41.0453,40.0352 C40.9513,40.0792 40.8993,40.3032 40.9153,40.4352 C41.0543,41.6512 41.2253,42.8652 41.3643,44.0822 C41.7233,47.2562 42.0783,45.6032 42.4183,48.7792 C42.5443,49.9682 42.6103,51.1602 42.7313,52.3492 C42.8253,53.2782 45.2063,54.1142 45.7443,54.8932 C46.3923,55.8252 47.0943,56.7262 47.4443,57.8182 C47.8163,58.9792 47.8673,60.1682 47.8403,61.3642 C47.7623,64.8052 47.8983,68.1812 47.8463,71.6232 C47.7793,76.1662 47.7993,87.9262 47.8463,89.2692 C47.8733,90.0582 47.8733,91.5892 47.3753,92.4622 C46.6163,93.6892 43.8073,93.8662 42.5703,93.8972 C41.9913,93.9512 38.0863,94.0002 35.2913,94.0002 C33.9923,94.0002 32.9333,93.9892 32.5603,93.9632 C32.5233,93.9642 32.4863,93.9642 32.4493,93.9642 C30.1173,93.9642 27.2573,92.8512 27.0073,92.1032 C26.5853,90.8432 26.6913,89.3852 26.6913,87.9872 C26.6353,87.0022 26.6913,86.3232 26.6913,85.0322 C26.6883,81.4492 26.7833,77.8882 26.7833,74.3052 C26.7833,70.5682 26.7983,66.8322 26.8113,63.0952 C26.8163,61.9042 26.7633,60.7072 26.8763,59.5242 C27.0163,58.0782 27.6813,56.7782 28.5303,55.5852 C29.2903,54.5152 31.7613,53.3752 31.8763,52.0892 C32.1263,49.3082 32.3473,49.3532 32.6783,46.5802 C32.9553,44.2552 33.3713,43.9442 33.7213,41.6262 C33.7743,41.2732 33.8233,40.9192 33.8433,40.5642 C33.8583,40.3082 33.8753,40.0572 33.5293,39.9052 C33.4183,39.8572 33.3853,39.5192 33.4223,39.3322 C33.5323,38.7692 33.6913,38.2132 33.8393,37.6572 C33.9373,37.2872 33.9913,36.9482 33.7103,36.6002 C33.4823,36.3172 33.8353,35.7722 34.3113,35.6592 C34.5903,35.5942 34.8873,35.5742 35.1763,35.5742 L35.1763,35.5742 Z" id="Fill-33" fill="#3FC2CD" sketch:type="MSShapeGroup" mask="url(#mask-6)"></path>
                </g>
            </g>
        </g>
    </g>
</svg>