<?xml version="1.0" encoding="UTF-8" standalone="no"?>
<svg width="97px" height="113px" viewBox="0 0 97 113" version="1.1" xmlns="http://www.w3.org/2000/svg" xmlns:xlink="http://www.w3.org/1999/xlink" xmlns:sketch="http://www.bohemiancoding.com/sketch/ns">
    <!-- Generator: Sketch 3.5.1 (25234) - http://www.bohemiancoding.com/sketch -->
    <title>Artboard</title>
    <desc>Created with Sketch.</desc>
    <defs>
        <path id="path-1" d="M0,113 L96.565,113 L96.565,0.108 L0,0.108"></path>
    </defs>
    <g id="Page-1" stroke="none" stroke-width="1" fill="none" fill-rule="evenodd" sketch:type="MSPage">
        <g id="Artboard" sketch:type="MSArtboardGroup">
            <g id="Page-1" sketch:type="MSLayerGroup">
                <path d="M55.1123,110.5 C54.9273,110.5 54.7423,110.479 54.5603,110.438 C53.8973,110.288 53.3233,109.874 52.9723,109.292 L2.8603,26.268 C2.4843,25.645 2.3983,24.89 2.6233,24.198 C2.8493,23.507 3.3643,22.949 4.0353,22.668 L51.5253,2.804 C51.8413,2.672 52.1673,2.609 52.4893,2.609 C53.4133,2.609 54.2973,3.125 54.7303,4 L93.8033,82.894 C94.3643,84.023 93.9923,85.396 92.9383,86.091 L56.4873,110.089 C56.0753,110.359 55.5963,110.5 55.1123,110.5" id="Fill-1" fill="#FFFFFF" sketch:type="MSShapeGroup"></path>
                <g id="Group-5">
                    <mask id="mask-2" sketch:name="Clip 4" fill="white">
                        <use xlink:href="#path-1"></use>
                    </mask>
                    <g id="Clip-4"></g>
                    <path d="M52.4883,0.1089 C51.8443,0.1089 51.1903,0.2339 50.5613,0.4969 L3.0703,20.3619 C1.7293,20.9229 0.6983,22.0399 0.2473,23.4219 C-0.2047,24.8039 -0.0317,26.3139 0.7193,27.5579 L50.8323,110.5839 C51.5343,111.7479 52.6813,112.5759 54.0093,112.8759 C54.3733,112.9589 54.7443,112.9999 55.1123,112.9999 C56.0823,112.9999 57.0393,112.7179 57.8623,112.1759 L94.3133,88.1779 C96.4233,86.7889 97.1653,84.0459 96.0443,81.7829 L56.9713,2.8909 C56.1033,1.1379 54.3363,0.1089 52.4883,0.1089 M52.4903,5.1099 L91.5633,84.0019 L55.1123,107.9999 L5.0003,24.9749 L52.4903,5.1099" id="Fill-3" fill="#1B2D38" sketch:type="MSShapeGroup" mask="url(#mask-2)"></path>
                </g>
                <path d="M48.501,98.5459 C48.384,98.5459 48.268,98.5319 48.151,98.5049 C47.761,98.4109 47.424,98.1649 47.217,97.8209 L9.655,35.5899 C9.432,35.2209 9.379,34.7749 9.508,34.3639 C9.637,33.9529 9.937,33.6179 10.33,33.4429 L56.449,12.9629 C56.647,12.8749 56.855,12.8329 57.057,12.8329 C57.611,12.8329 58.143,13.1399 58.402,13.6679 L87.683,72.7859 C88.025,73.4789 87.787,74.3169 87.132,74.7259 L49.294,98.3179 C49.055,98.4699 48.779,98.5459 48.501,98.5459" id="Fill-6" fill="#FFFFFF" sketch:type="MSShapeGroup"></path>
                <path d="M57.0566,11.332 C56.6496,11.332 56.2356,11.415 55.8406,11.591 L9.7216,32.073 C8.9346,32.422 8.3356,33.093 8.0776,33.914 C7.8186,34.735 7.9256,35.628 8.3706,36.365 L45.9326,98.597 C46.3476,99.284 47.0216,99.776 47.8026,99.963 C48.0326,100.02 48.2676,100.046 48.5006,100.046 C49.0576,100.046 49.6086,99.892 50.0886,99.592 L87.9256,75.998 C89.2356,75.182 89.7116,73.504 89.0266,72.121 L59.7466,13.001 C59.2246,11.948 58.1636,11.332 57.0566,11.332 M57.0586,14.333 L86.3386,73.452 L48.5006,97.046 L10.9396,34.815 L57.0586,14.333" id="Fill-8" fill="#1B2D38" sketch:type="MSShapeGroup"></path>
                <path d="M73.1797,84.2012 C74.5107,86.6892 73.8807,89.7812 71.7677,91.1422 C69.6327,92.5182 66.7637,91.6302 65.3657,89.1212 C63.9527,86.5852 64.5997,83.3992 66.8027,82.0442 C68.9827,80.7032 71.8347,81.6852 73.1797,84.2012" id="Fill-10" fill="#FFFFFF" sketch:type="MSShapeGroup"></path>
                <path d="M73.1797,84.2012 C74.5107,86.6892 73.8807,89.7812 71.7677,91.1422 C69.6327,92.5182 66.7637,91.6302 65.3657,89.1212 C63.9527,86.5852 64.5997,83.3992 66.8027,82.0442 C68.9827,80.7032 71.8347,81.6852 73.1797,84.2012 L73.1797,84.2012 Z" id="Stroke-12" stroke="#1B2D38" stroke-width="3" stroke-linecap="round" stroke-linejoin="round" sketch:type="MSShapeGroup"></path>
                <path d="M56.75,77.2568 C55.909,77.2568 55.292,77.0548 54.862,76.6358 C54.125,75.9148 53.622,74.9948 53.178,74.1848 L52.929,73.7338 C52.699,73.3708 52.507,73.0178 52.271,72.5818 C52.149,72.3558 52.014,72.1038 51.845,71.8008 C51.167,70.5988 50.503,69.3828 49.836,68.1618 C49.193,66.9888 48.55,65.8118 47.887,64.6298 C46.56,62.2668 45.228,59.8748 43.88,57.4588 L43.222,56.2848 C42.861,55.6528 42.487,54.9988 42.166,54.2998 C41.641,53.1558 41.411,51.8568 41.461,50.3228 C41.481,49.7098 41.689,49.1108 41.891,48.5308 C42.013,48.1798 42.216,47.5928 42.196,47.3908 C41.681,46.2998 41.474,45.7358 41.253,45.1348 C41.082,44.6658 40.896,44.1558 40.498,43.2348 C40.055,42.2068 39.878,41.5968 39.708,41.0068 C39.566,40.5108 39.433,40.0428 39.12,39.2608 C39.055,39.1018 38.991,38.9428 38.919,38.7828 C38.313,38.4388 38.042,37.7708 37.981,37.6038 C37.837,37.2018 37.717,36.7958 37.597,36.3888 L37.53,36.1648 C37.104,35.8518 36.829,35.3638 36.767,34.7978 C36.689,34.1038 36.939,33.4238 37.436,32.9798 C37.679,32.7618 37.966,32.5788 38.314,32.4158 C39.312,31.9478 40.313,31.4868 41.312,31.0328 C41.63,30.8878 41.954,30.8158 42.271,30.8158 C42.739,30.8158 43.19,30.9708 43.58,31.2678 C44.082,31.6508 44.368,32.1388 44.432,32.7238 C44.609,32.9668 44.78,33.1668 44.948,33.3658 C45.084,33.5278 45.222,33.6918 45.354,33.8578 C45.769,34.3748 45.899,34.8468 45.894,35.2428 C46.092,35.5398 46.291,35.8318 46.489,36.1238 C46.784,36.5598 47.079,36.9928 47.368,37.4308 C47.982,38.3588 48.166,38.5198 48.343,38.6768 C48.726,39.0148 49.056,39.3458 49.825,40.5238 C50.11,40.9588 50.387,41.4028 50.661,41.8418 C50.856,42.1548 51.051,42.4678 51.25,42.7778 C51.432,42.8278 51.734,42.8808 51.934,42.9138 C52.525,43.0158 53.139,43.1198 53.647,43.4508 L53.924,43.6258 C54.59,44.0488 55.344,44.5278 56.002,45.2448 C56.8,46.1148 57.34,47.0878 57.763,47.9228 C58.4,49.1818 59.063,50.4038 59.722,51.6218 C60.311,52.7088 60.896,53.7918 61.462,54.8928 C63.062,58.0008 67.132,65.6458 67.562,66.4028 C68.218,67.5548 68.553,68.4878 68.587,69.2568 C68.604,70.5858 67.685,71.8218 65.855,72.9808 C65.125,73.4878 61.228,75.8208 60.365,76.2678 C59.143,76.9968 57.658,77.2568 56.75,77.2568" id="Fill-14" fill="#FFFFFF" sketch:type="MSShapeGroup"></path>
                <path d="M42.272,29.3149 L42.272,29.3149 C41.74,29.3149 41.21,29.4329 40.697,29.6649 C39.685,30.1259 38.679,30.5889 37.672,31.0609 C37.196,31.2829 36.79,31.5449 36.439,31.8589 C35.579,32.6289 35.146,33.7879 35.275,34.9629 C35.361,35.7399 35.696,36.4519 36.211,36.9919 C36.317,37.3499 36.43,37.7209 36.57,38.1099 C36.78,38.6949 37.158,39.3069 37.705,39.7649 C37.712,39.7829 37.719,39.8009 37.727,39.8189 C38.012,40.5309 38.13,40.9429 38.267,41.4199 C38.441,42.0259 38.639,42.7129 39.12,43.8289 C39.501,44.7119 39.676,45.1899 39.845,45.6519 C40.032,46.1609 40.224,46.6849 40.626,47.5869 C40.579,47.7359 40.519,47.9069 40.473,48.0399 C40.247,48.6929 39.99,49.4329 39.962,50.2749 C39.903,52.0439 40.177,53.5649 40.801,54.9239 C41.152,55.6859 41.542,56.3699 41.919,57.0309 C42.038,57.2379 42.156,57.4439 42.271,57.6519 L42.502,58.0669 C43.872,60.5249 45.228,62.9579 46.579,65.3639 C47.241,66.5429 47.884,67.7199 48.523,68.8909 C49.193,70.1139 49.859,71.3309 50.537,72.5379 C50.7,72.8279 50.831,73.0709 50.95,73.2909 C51.168,73.6949 51.374,74.0769 51.654,74.5269 C51.723,74.6499 51.791,74.7749 51.859,74.8999 C52.354,75.8049 52.916,76.8309 53.812,77.7069 C54.527,78.4039 55.515,78.7569 56.75,78.7569 C57.895,78.7569 59.627,78.4449 61.103,77.5739 C62.13,77.0299 65.737,74.8699 66.665,74.2429 C68.959,72.7879 70.111,71.1199 70.088,69.2859 C70.087,69.2549 70.086,69.2239 70.085,69.1939 C70.041,68.1689 69.653,67.0459 68.866,65.6609 C68.44,64.9129 64.393,57.3119 62.795,54.2059 C62.22,53.0879 61.621,51.9799 61.041,50.9089 C60.395,49.7149 59.727,48.4799 59.1,47.2439 C58.631,46.3169 58.026,45.2329 57.106,44.2309 C56.317,43.3679 55.439,42.8109 54.732,42.3629 L54.458,42.1879 C53.695,41.6939 52.859,41.5509 52.187,41.4359 C52.183,41.4349 52.179,41.4339 52.175,41.4339 C52.093,41.3039 52.012,41.1729 51.931,41.0429 C51.651,40.5949 51.371,40.1459 51.081,39.7019 C50.286,38.4869 49.87,38.0249 49.337,37.5529 C49.252,37.4789 49.124,37.3659 48.618,36.6019 C48.328,36.1639 48.033,35.7289 47.737,35.2929 C47.613,35.1099 47.489,34.9279 47.366,34.7449 C47.288,34.1909 47.051,33.5769 46.544,32.9419 C46.384,32.7429 46.239,32.5699 46.093,32.3969 C46.009,32.2979 45.924,32.1989 45.842,32.0979 C45.682,31.4319 45.304,30.6939 44.487,30.0729 C43.837,29.5779 43.07,29.3149 42.272,29.3149 M42.272,32.3149 C42.4,32.3149 42.533,32.3559 42.671,32.4609 C42.845,32.5929 42.941,32.7149 42.945,32.9639 C42.948,33.1669 43.08,33.4239 43.216,33.6089 C43.518,34.0189 43.864,34.3939 44.182,34.7919 C44.324,34.9709 44.486,35.1529 44.329,35.3909 C44.289,35.4499 44.347,35.6299 44.409,35.7229 C44.975,36.5749 45.556,37.4129 46.117,38.2589 C47.57,40.4519 47.138,39.1549 48.57,41.3439 C49.102,42.1569 49.598,42.9889 50.123,43.7989 C50.532,44.4299 52.23,44.3199 52.833,44.7099 C53.554,45.1739 54.292,45.5989 54.896,46.2589 C55.536,46.9569 56.002,47.7659 56.424,48.5999 C57.634,50.9859 58.927,53.2429 60.128,55.5779 C61.697,58.6279 65.776,66.2949 66.258,67.1439 C66.54,67.6389 67.057,68.6149 67.088,69.3239 C67.101,70.3369 65.671,71.3239 65.022,71.7319 C64.597,72.0479 60.309,74.6289 59.638,74.9549 C58.778,75.4819 57.572,75.7569 56.75,75.7569 C56.352,75.7569 56.044,75.6929 55.909,75.5609 C55.216,74.8839 54.746,73.9059 54.237,72.9979 C53.844,72.3739 53.627,71.9129 53.152,71.0669 C51.824,68.7059 50.547,66.3049 49.195,63.8969 C47.77,61.3579 46.339,58.7889 44.892,56.1929 C44.429,55.3609 43.926,54.5389 43.528,53.6719 C43.039,52.6089 42.924,51.4829 42.961,50.3739 C42.994,49.3789 44.027,47.8109 43.588,46.8569 C42.633,44.7819 42.784,44.7469 41.875,42.6399 C41.107,40.8609 41.235,40.5099 40.512,38.7039 C40.401,38.4279 40.287,38.1519 40.155,37.8839 C40.06,37.6909 39.968,37.4999 39.693,37.4889 C39.605,37.4859 39.447,37.2449 39.393,37.0949 C39.231,36.6449 39.101,36.1849 38.965,35.7269 C38.874,35.4229 38.768,35.1539 38.45,34.9769 C38.193,34.8319 38.187,34.3209 38.436,34.0969 C38.585,33.9639 38.765,33.8619 38.947,33.7769 C39.944,33.3089 40.939,32.8509 41.933,32.3979 C42.043,32.3489 42.155,32.3149 42.272,32.3149" id="Fill-16" fill="#3FC2CD" sketch:type="MSShapeGroup"></path>
                <path d="M38.854,66.7021 L35.211,65.4121 L35.949,61.7431" id="Stroke-18" stroke="#1B2D38" stroke-width="3" stroke-linecap="round" stroke-linejoin="round" sketch:type="MSShapeGroup"></path>
                <path d="M67.6787,51.0605 L68.3687,47.6585 L65.2367,46.2735" id="Stroke-20" stroke="#1B2D38" stroke-width="3" stroke-linecap="round" stroke-linejoin="round" sketch:type="MSShapeGroup"></path>
            </g>
        </g>
    </g>
</svg>