<?xml version="1.0" encoding="utf-8"?>
<!-- Generator: Adobe Illustrator 18.1.1, SVG Export Plug-In . SVG Version: 6.00 Build 0)  -->
<svg version="1.1" id="Layer_1" xmlns="http://www.w3.org/2000/svg" xmlns:xlink="http://www.w3.org/1999/xlink" x="0px" y="0px"
	 viewBox="0 0 42 42" enable-background="new 0 0 42 42" xml:space="preserve">
<g>
	<path fill="#48525B" d="M26.8,15.3h3.7c0.5,0,1-0.4,1-1v-2.8c0-0.5-0.4-1-1-1h-3.7c-0.5,0-1,0.4-1,1v2.8
		C25.9,14.8,26.3,15.3,26.8,15.3z"/>
	<path fill="#48525B" d="M17.1,25.6c2.1,2.1,5.6,2.1,7.7,0c2.1-2.1,2.1-5.6,0-7.7c-2.1-2.1-5.6-2.1-7.7,0C15,20.1,15,23.5,17.1,25.6
		z M17.9,18.6c1.7-1.7,4.6-1.7,6.3,0c1.7,1.7,1.7,4.6,0,6.3c-1.7,1.7-4.6,1.7-6.3,0C16.1,23.2,16.1,20.4,17.9,18.6z"/>
	<path fill="#48525B" d="M25.7,26.5c-2.6,2.6-6.8,2.6-9.4,0c-2.4-2.4-2.6-6.3-0.4-8.9H9.5v11c0,1.8,1.4,3.2,3.2,3.2h16.6
		c1.8,0,3.2-1.4,3.2-3.2v-11h-6.4C28.3,20.2,28.1,24,25.7,26.5z"/>
	<path fill="#48525B" d="M35.8,6.2c-8.2-8.2-21.5-8.2-29.7,0c-8.2,8.2-8.2,21.5,0,29.7c8.2,8.2,21.5,8.2,29.7,0
		C44.1,27.6,44.1,14.4,35.8,6.2z M33.6,17.6v12.1c0,1.8-1.4,3.2-3.2,3.2H11.6c-1.8,0-3.2-1.4-3.2-3.2V11.9c0-1.8,1.4-3.2,3.2-3.2
		h18.8c1.8,0,3.2,1.4,3.2,3.2V17.6z"/>
</g>
</svg>
