<?xml version="1.0" encoding="UTF-8" standalone="no"?>
<svg width="1032px" height="395px" viewBox="0 0 1032 395" version="1.1" xmlns="http://www.w3.org/2000/svg" xmlns:xlink="http://www.w3.org/1999/xlink" xmlns:sketch="http://www.bohemiancoding.com/sketch/ns">
    <!-- Generator: Sketch 3.5.1 (25234) - http://www.bohemiancoding.com/sketch -->
    <title>logo</title>
    <desc>Created with Sketch.</desc>
    <defs></defs>
    <g id="Page-1" stroke="none" stroke-width="1" fill="none" fill-rule="evenodd" sketch:type="MSPage">
        <g id="logo" sketch:type="MSLayerGroup">
            <g id="Page-1" sketch:type="MSShapeGroup">
                <g id="bevybar">
                    <g id="logo">
                        <g id="tagline" transform="translate(1.000000, 273.000000)" fill="#989898">
                            <path d="M231.4023,77.2012 L231.4023,92.9012 L241.5023,92.9012 C246.1023,92.9012 248.0023,89.2012 248.0023,85.5022 C248.0023,81.8022 246.2023,77.2012 240.6023,77.2012 L231.4023,77.2012 L231.4023,77.2012 L231.4023,77.2012 Z M231.4023,100.3022 L231.4023,115.9012 C231.4023,118.7012 229.6023,120.5022 226.8023,120.5022 C224.0023,120.5022 222.2023,118.7012 222.2023,115.9012 L222.2023,73.5022 C222.2023,70.7012 224.0023,68.9012 226.8023,68.9012 L241.6023,68.9012 C251.7023,68.9012 257.3023,76.3022 257.3023,84.6012 C257.3023,92.0022 252.7023,98.4012 245.3023,99.4012 L256.4023,113.2012 C257.3023,114.1012 257.3023,115.0022 257.3023,116.0022 C257.3023,118.8022 255.5023,120.6012 252.7023,120.6012 C251.8023,120.6012 249.9023,119.7012 249.0023,118.8022 L235.2023,100.4012 L231.4023,100.3022 L231.4023,100.3022 L231.4023,100.3022 Z M189.0023,91.0022 L202.8023,91.0022 C204.6023,91.0022 206.5023,92.8022 206.5023,94.7012 C206.5023,96.6012 204.7023,98.4012 202.8023,98.4012 L189.0023,98.4012 L189.0023,112.2012 L209.3023,112.2012 C211.1023,112.2012 213.0023,114.0022 213.0023,115.9012 C213.0023,117.8022 211.2023,119.6012 209.3023,119.6012 L184.4023,119.6012 C181.6023,119.6012 179.8023,117.8022 179.8023,115.0022 L179.8023,73.5022 C179.8023,70.7012 181.6023,68.9012 184.4023,68.9012 L207.5023,68.9012 C209.3023,68.9012 211.2023,70.7012 211.2023,72.6012 C211.2023,74.4012 209.4023,76.3022 207.5023,76.3022 L188.1023,76.3022 L188.1023,91.1012 L189.0023,91.0022 L189.0023,91.0022 L189.0023,91.0022 Z M155.8013,77.2012 L155.8013,116.9012 C155.8013,119.7012 154.0013,121.5022 151.2013,121.5022 C148.4013,121.5022 146.6013,119.7012 146.6013,116.9012 L146.6013,77.3022 L135.5013,77.3022 C133.7013,77.3022 131.8013,75.5022 131.8013,73.6012 C131.8013,71.8022 133.6013,69.9012 135.5013,69.9012 L166.9013,69.9012 C168.7013,69.9012 170.6013,71.7012 170.6013,73.6012 C170.6013,75.4012 168.8013,77.3022 166.9013,77.3022 L155.8013,77.3022 L155.8013,77.2012 L155.8013,77.2012 L155.8013,77.2012 Z M109.7013,77.2012 L109.7013,116.9012 C109.7013,119.7012 107.9013,121.5022 105.1013,121.5022 C102.3013,121.5022 100.5013,119.7012 100.5013,116.9012 L100.5013,77.3022 L89.4013,77.3022 C87.6013,77.3022 85.7013,75.5022 85.7013,73.6012 C85.7013,71.8022 87.5013,69.9012 89.4013,69.9012 L120.8013,69.9012 C122.6013,69.9012 124.5013,71.7012 124.5013,73.6012 C124.5013,75.4012 122.7013,77.3022 120.8013,77.3022 C120.8013,77.2012 109.7013,77.2012 109.7013,77.2012 L109.7013,77.2012 L109.7013,77.2012 L109.7013,77.2012 Z M55.3003,91.0022 L69.1003,91.0022 C70.9003,91.0022 72.8003,92.8022 72.8003,94.7012 C72.8003,96.6012 71.0003,98.4012 69.1003,98.4012 L55.3003,98.4012 L55.3003,112.2012 L75.6013,112.2012 C77.4013,112.2012 79.3013,114.0022 79.3013,115.9012 C79.3013,117.8022 77.5013,119.6012 75.6013,119.6012 L50.7003,119.6012 C47.9003,119.6012 46.1003,117.8022 46.1003,115.0022 L46.1003,73.5022 C46.1003,71.7012 47.9003,68.9012 50.7003,68.9012 L73.8003,68.9012 C75.6013,68.9012 77.5013,70.7012 77.5013,72.6012 C77.5013,74.4012 75.7013,76.3022 73.8003,76.3022 L55.3003,76.3022 L55.3003,91.0022 L55.3003,91.0022 L55.3003,91.0022 Z M9.2003,112.3022 L19.3003,112.3022 C24.8003,112.3022 26.7003,109.5022 26.7003,104.9012 C26.7003,100.3022 23.9003,97.5022 19.3003,97.5022 L9.2003,97.5022 L9.2003,112.3022 L9.2003,112.3022 L9.2003,112.3022 Z M9.2003,90.1012 L18.4003,90.1012 C23.0003,90.1012 24.9003,87.3022 24.9003,83.6012 C24.9003,79.9012 23.1003,77.1012 18.4003,77.1012 L9.2003,77.1012 L9.2003,90.1012 L9.2003,90.1012 L9.2003,90.1012 Z M4.6003,119.6012 C1.8003,119.6012 0.0003,117.8022 0.0003,115.0022 L0.0003,73.5022 C0.0003,70.7012 1.8003,68.9012 4.6003,68.9012 L18.4003,68.9012 C29.5003,68.9012 34.1003,75.4012 34.1003,81.8022 C34.1003,86.4012 31.3003,90.1012 28.6003,91.9012 C34.1003,93.7012 36.0003,98.4012 36.0003,103.9012 C36.0003,113.1012 30.5003,119.6012 19.4003,119.6012 L4.6003,119.6012 L4.6003,119.6012 L4.6003,119.6012 Z M142.9013,9.9002 L142.9013,25.6002 L153.0013,25.6002 C157.6013,25.6002 159.5013,21.9002 159.5013,18.2002 C159.5013,14.5012 157.7013,9.9002 152.1013,9.9002 L142.9013,9.9002 L142.9013,9.9002 L142.9013,9.9002 Z M142.9013,33.0022 L142.9013,48.7012 C142.9013,51.5022 141.1013,53.3022 138.3013,53.3022 C135.5013,53.3022 133.7013,51.5022 133.7013,48.7012 L133.7013,6.3012 C133.7013,3.5012 135.5013,1.7002 138.3013,1.7002 L153.1013,1.7002 C163.2013,1.7002 168.8013,9.1002 168.8013,17.4002 C168.8013,24.8012 164.2013,31.2012 156.8013,32.2012 L167.9013,46.0022 C168.8013,46.9012 168.8013,47.8022 168.8013,48.8022 C168.8013,51.6012 167.0013,53.4012 164.2013,53.4012 C163.3013,53.4012 161.4013,52.5022 160.5013,51.6012 L146.7013,33.2012 L142.9013,33.2012 L142.9013,33.0022 L142.9013,33.0022 L142.9013,33.0022 Z M100.5013,22.8012 L114.3013,22.8012 C116.1013,22.8012 118.0013,24.6002 118.0013,26.5012 C118.0013,28.3012 116.2013,30.2012 114.3013,30.2012 L100.5013,30.2012 L100.5013,44.0022 L119.9013,44.0022 C121.7013,44.0022 123.6013,45.8022 123.6013,47.7012 C123.6013,49.6012 121.8013,51.4012 119.9013,51.4012 L95.9013,51.4012 C93.1013,51.4012 91.3013,49.6012 91.3013,46.8022 L91.3013,5.3012 C91.3013,2.5012 93.1013,0.7002 95.9013,0.7002 L119.9013,0.7002 C121.7013,0.7002 123.6013,2.5012 123.6013,4.4002 C123.6013,6.3012 121.8013,8.1002 119.9013,8.1002 L100.5013,8.1002 L100.5013,22.8012 L100.5013,22.8012 L100.5013,22.8012 Z M55.3003,22.8012 L69.1003,22.8012 C70.9003,22.8012 72.8003,24.6002 72.8003,26.5012 C72.8003,28.3012 71.0003,30.2012 69.1003,30.2012 L55.3003,30.2012 L55.3003,44.0022 L75.6013,44.0022 C77.4013,44.0022 79.3013,45.8022 79.3013,47.7012 C79.3013,49.6012 77.5013,51.4012 75.6013,51.4012 L50.7003,51.4012 C47.9003,52.3022 46.1003,50.5022 46.1003,47.7012 L46.1003,6.2002 C46.1003,3.4002 47.9003,1.6002 50.7003,1.6002 L73.8003,1.6002 C75.6013,1.6002 77.5013,3.4002 77.5013,5.3012 C77.5013,7.2002 75.7013,9.0012 73.8003,9.0012 L55.3003,9.0012 L55.3003,22.8012 L55.3003,22.8012 L55.3003,22.8012 Z M9.2003,44.9012 L19.3003,44.9012 C24.8003,44.9012 26.7003,42.1012 26.7003,37.5022 C26.7003,32.9012 23.9003,30.1012 19.3003,30.1012 L9.2003,30.1012 L9.2003,44.9012 L9.2003,44.9012 L9.2003,44.9012 Z M9.2003,22.8012 L18.4003,22.8012 C23.0003,22.8012 24.9003,20.0012 24.9003,16.3012 C24.9003,12.6002 23.1003,9.8012 18.4003,9.8012 L9.2003,9.8012 L9.2003,22.8012 L9.2003,22.8012 L9.2003,22.8012 Z M4.6003,52.3022 C1.8003,52.3022 0.0003,50.5022 0.0003,47.7012 L0.0003,6.2002 C0.0003,3.4002 1.8003,1.6002 4.6003,1.6002 L18.4003,1.6002 C29.5003,1.6002 34.1003,8.1002 34.1003,14.5012 C34.1003,19.1002 31.3003,22.8012 28.6003,24.6002 C34.1003,26.4002 36.0003,31.1012 36.0003,36.6012 C36.0003,45.8022 30.5003,52.3022 19.4003,52.3022 L4.6003,52.3022 L4.6003,52.3022 L4.6003,52.3022 Z" id="Fill-1"></path>
                        </g>
                        <g id="main_logo">
                            <path d="M681.2471,215.1406 C661.5911,215.1406 647.6931,201.9226 647.6931,178.5366 L647.6931,131.7686 C647.6931,131.7686 660.9141,114.4826 681.2471,114.4826 C704.2951,114.4826 717.5101,131.4296 717.5101,164.9806 C717.5101,198.1966 704.6331,215.1406 681.2471,215.1406 M684.9761,83.3036 C668.7081,83.3036 654.4731,90.0816 647.6931,96.8606 L647.6931,18.9116 C647.6931,8.7426 639.5611,0.6096 629.3951,0.6096 C619.2251,0.6096 611.0931,8.7426 611.0931,18.9116 L611.0931,178.5366 C611.0931,223.6146 640.2381,246.3216 681.2471,246.3216 C727.0001,246.3216 753.7731,220.2236 753.7731,164.9806 C753.7731,109.7376 727.6771,83.3036 684.9761,83.3036" id="Fill-3" fill="#FFFFFF"></path>
                            <path d="M872.4082,185.3164 C872.4082,204.2954 855.8012,215.8174 837.8402,215.8174 C818.8602,215.8174 809.7092,208.0234 809.7092,195.1444 C809.7092,182.9444 817.8422,175.8264 832.7572,175.8264 L872.4082,175.8264 L872.4082,185.3164 L872.4082,185.3164 L872.4082,185.3164 Z M841.5652,83.3034 C812.4202,83.3034 795.4742,94.4884 785.9842,104.9934 C782.9352,108.3834 781.5782,112.4514 781.5782,116.1794 C781.5782,124.9904 788.6952,132.1074 797.5092,132.1074 C801.5772,132.1074 804.2882,131.0904 807.6752,128.7184 C816.1492,122.6174 826.6542,115.8384 841.5652,115.8384 C861.2212,115.8384 872.4082,126.0074 872.4082,141.2574 L872.4082,147.3594 L828.0122,147.3594 C798.5232,147.3594 773.1072,163.6264 773.1072,195.1444 C773.1072,225.6454 795.1362,246.3214 828.3502,246.3214 C848.6832,246.3214 863.5952,241.2364 872.7462,226.6634 C872.7462,236.4934 880.8832,244.6254 890.7112,244.6254 C900.5392,244.6254 908.6712,236.4934 908.6712,226.6634 L908.6712,139.9014 C908.6712,103.9784 883.5942,83.3034 841.5652,83.3034 L841.5652,83.3034 L841.5652,83.3034 L841.5652,83.3034 Z" id="Fill-5" fill="#FFFFFF"></path>
                            <path d="M1014.082,83.6436 C999.847,83.6436 983.921,92.1166 977.479,105.3336 L977.479,103.6386 C977.479,93.4716 969.348,85.3376 959.181,85.3376 C949.011,85.3376 940.879,93.4716 940.879,103.6386 L940.879,226.3246 C940.879,236.4926 949.011,244.6256 959.181,244.6256 C969.348,244.6256 977.479,236.4926 977.479,226.3246 L977.479,155.8316 C977.479,133.1246 990.7,118.2116 1014.082,118.2116 C1023.572,118.2116 1031.37,110.4176 1031.37,100.9276 C1031.37,91.4376 1023.572,83.6436 1014.082,83.6436" id="Fill-7" fill="#FFFFFF"></path>
                            <path d="M70.1343,213.3857 C50.7273,213.3857 37.0133,200.3357 37.0133,177.2547 L37.0133,131.0787 C37.0133,131.0787 50.0593,114.0187 70.1343,114.0187 C92.8833,114.0187 105.9283,130.7477 105.9283,163.8727 C105.9283,196.6527 93.2153,213.3857 70.1343,213.3857 M73.8133,83.2397 C57.7573,83.2397 43.7023,89.9327 37.0133,96.6267 L37.0133,19.6717 C37.0133,9.6367 28.9833,1.6057 18.9483,1.6057 C8.9083,1.6057 0.8773,9.6367 0.8773,19.6717 L0.8773,177.2547 C0.8773,221.7477 29.6513,244.1697 70.1343,244.1697 C115.3003,244.1697 141.7273,218.4057 141.7273,163.8727 C141.7273,109.3357 115.9683,83.2397 73.8133,83.2397" id="Fill-9" fill="#41C1CC"></path>
                            <path d="M192.2456,146.4761 C193.9186,125.0641 207.9696,114.0181 227.3716,114.0181 C249.1196,114.0181 258.4826,130.0791 258.4826,146.4761 L192.2456,146.4761 L192.2456,146.4761 L192.2456,146.4761 Z M294.2866,149.8131 C294.2866,126.7321 283.9146,83.2391 227.3716,83.2391 C181.8736,83.2391 155.1046,112.0131 155.1046,163.2001 C155.1046,219.0741 183.8786,244.1701 230.3866,244.1701 C260.8286,244.1701 278.5576,231.1151 284.2456,225.7631 C287.2556,223.0891 289.9346,218.7431 289.9346,213.3861 C289.9346,204.6821 282.9096,197.6621 274.2106,197.6621 C269.8586,197.6621 267.1856,198.9991 263.5026,201.3451 C255.4776,206.6971 245.1046,211.7121 230.3866,211.7121 C208.3006,211.7121 191.2406,200.6671 191.2406,176.5811 L273.8796,176.5811 C294.2866,176.5811 294.2866,162.2001 294.2866,149.8131 L294.2866,149.8131 L294.2866,149.8131 L294.2866,149.8131 Z" id="Fill-11" fill="#41C1CC"></path>
                            <path d="M441.8247,110.3452 C442.4927,108.6672 443.1667,106.3302 443.1667,103.3152 C443.1667,93.2802 435.1317,85.2492 425.1007,85.2492 C415.0607,85.2492 410.0407,92.2702 408.3667,96.6262 L371.5677,189.6322 L334.7687,96.6262 C333.0957,92.2702 328.0757,85.2492 318.0407,85.2492 C307.9997,85.2492 299.9697,93.2802 299.9697,103.3152 C299.9697,106.3302 300.6377,108.6672 301.3067,110.3452 L354.8397,231.4512 C357.8497,238.1392 363.8697,242.4912 371.5677,242.4912 C379.2617,242.4912 385.2817,238.1392 388.2917,231.4512 L441.8247,110.3452 L441.8247,110.3452 L441.8247,110.3452 Z" id="Fill-13" fill="#41C1CC"></path>
                            <path d="M576.3125,85.2793 C566.2725,85.2793 561.2525,92.3043 559.5795,96.6563 L522.9925,189.1323 C522.7445,188.8343 522.4925,188.5423 522.2305,188.2703 L485.9805,96.6563 C484.3065,92.3043 479.2865,85.2793 469.2515,85.2793 C459.2115,85.2793 451.1865,93.3143 451.1865,103.3493 C451.1865,106.3643 451.8545,108.7013 452.5225,110.3793 C452.5225,110.3793 491.5575,195.7553 496.2505,214.9483 C500.6995,233.1473 499.3175,244.3433 491.2285,256.8533 C481.4505,271.9683 464.8705,280.9893 446.8645,280.9893 C434.2945,280.9893 422.1445,276.5383 412.6595,268.4683 C405.6685,262.5023 395.1735,263.3443 389.2125,270.3493 C383.2615,277.3403 384.1025,287.8353 391.0985,293.7863 C406.5945,306.9803 426.4025,314.2483 446.8645,314.2483 C476.1975,314.2483 503.2285,299.5443 519.1555,274.9093 C523.2305,268.6113 530.1165,252.4373 530.8095,250.8933 L593.0375,110.3793 C593.7095,108.7013 594.3775,106.3643 594.3775,103.3493 C594.3775,93.3143 586.3485,85.2793 576.3125,85.2793" id="Fill-15" fill="#41C1CC"></path>
                            <path d="M482.0552,222.5967 C482.3852,222.5967 482.7192,222.5597 483.0502,222.4787 C485.2922,221.9277 486.6612,219.6697 486.1152,217.4317 C485.6792,215.6597 484.9252,213.2657 483.8082,210.1107 C483.0332,207.9337 480.6452,206.7967 478.4802,207.5717 C476.3072,208.3417 475.1702,210.7267 475.9402,212.8987 C476.9472,215.7487 477.6442,217.9377 478.0032,219.4127 C478.4722,221.3207 480.1762,222.5967 482.0552,222.5967" id="Fill-17" fill="#41C1CC"></path>
                            <path d="M446.8638,270.5547 C457.8538,270.5547 468.2608,266.3887 476.1568,258.8237 C478.5328,256.5487 480.6528,253.9817 482.4628,251.1887 C484.5948,247.8907 486.9058,243.7937 487.8518,238.4337 C488.2548,236.1627 486.7388,233.9977 484.4678,233.5997 C482.1978,233.1877 480.0328,234.7117 479.6338,236.9827 C479.0798,240.1207 477.8688,242.9207 475.4518,246.6517 C473.9958,248.9017 472.2918,250.9677 470.3848,252.7937 C464.0458,258.8647 455.6928,262.2067 446.8638,262.2067 C444.5568,262.2067 442.6898,264.0747 442.6898,266.3807 C442.6898,268.6887 444.5568,270.5547 446.8638,270.5547" id="Fill-19" fill="#41C1CC"></path>
                        </g>
                    </g>
                </g>
            </g>
        </g>
    </g>
</svg>