<?xml version="1.0" encoding="utf-8"?>
<!-- Generator: Adobe Illustrator 18.1.1, SVG Export Plug-In . SVG Version: 6.00 Build 0)  -->
<svg version="1.1" id="Layer_1" xmlns="http://www.w3.org/2000/svg" xmlns:xlink="http://www.w3.org/1999/xlink" x="0px" y="0px"
	 viewBox="0 0 47 41.4" enable-background="new 0 0 47 41.4" xml:space="preserve">
<g>
	<g>
		<g>
			<g>
				<path d="M19.3,38.2c-2.4,0-6-2.4-7.5-6.4c-1.2-3.2-1.3-7-0.2-10.3c0.8-2.5,2.5-4.6,4.1-6.6c0.6-0.8,1.2-1.5,1.8-2.3l0.3-0.5
					c1.6-2.3,3.3-4.7,2.4-7.9c-0.1-0.3,0-0.6,0.2-0.8c0.2-0.2,0.5-0.3,0.8-0.2c4.6,1.5,6.5,6.4,7.4,9.6c0.6-1,1.4-1.9,2-2.3
					c0.2-0.2,0.5-0.2,0.8,0c0.3,0.1,0.4,0.4,0.4,0.7c-0.1,2.7,0.6,5.9,1.9,8.6c0.2,0.4,0.4,0.8,0.6,1.2c0.9,1.7,1.7,3.2,1.9,5.4
					c0.2,4.1-1.7,9.4-6.7,11.2c-0.4,0.1-1.3,0.3-2.1,0.3c-1.8,0-2-1.1-2-1.4c0-0.9,0.8-1.4,1.3-1.8l0.2-0.1c1.7-1.2,2.6-3.7,2.2-5.9
					c-0.2-0.8-0.5-1.7-0.9-2.5c-0.4-0.9-0.8-1.9-1-2.9c-0.1,0.1-0.1,0.2-0.2,0.4c-0.4,0.9-0.6,1.8-0.7,2.5c-0.1,0.6,0.1,1.7,0.2,2
					c0.3,0.2,0.4,0.7,0.1,1c-0.2,0.4-0.7,0.4-1.1,0.2c0,0,0,0,0,0l0,0c0,0,0,0,0,0c-1.6-1.1-2.6-2.5-2.9-4.1
					c-0.1-0.9-0.2-1.7-0.2-2.5c0-0.2,0-0.5,0-0.7c0-0.3,0-0.6,0-0.9c0-1.2,0-2.3-0.3-3.1c-0.2,1-0.6,1.9-0.9,2.5
					c-0.4,0.8-0.9,1.4-1.3,2c-0.3,0.4-0.6,0.8-0.9,1.3c-1,1.5-3,5.4-0.8,9c0.7,1.2,1.5,1.8,2.1,2.2c0.6,0.4,1.2,0.9,1,1.7
					C21.2,37.7,20.4,38.2,19.3,38.2z M22,5.3c0.3,3.2-1.5,5.7-2.9,7.7l-0.3,0.5c-0.6,0.8-1.2,1.6-1.8,2.4c-1.6,2-3.1,3.9-3.8,6.1
					c-1,3-0.9,6.4,0.1,9.3c1.3,3.5,4.4,5.4,6.1,5.4c0.3,0,0.4,0,0.5-0.1c-0.1-0.1-0.2-0.2-0.3-0.2c-0.6-0.5-1.6-1.2-2.5-2.6
					c-1.9-3-1.6-6.9,0.8-10.6c0.3-0.5,0.7-1,1-1.4c0.4-0.5,0.8-1.1,1.2-1.7c0.8-1.5,1.1-2.9,0.7-3.2c-0.3-0.2-0.4-0.6-0.2-1
					c0.2-0.3,0.5-0.5,0.9-0.4c2.7,0.8,2.7,3.7,2.7,5.9c0,0.3,0,0.6,0,0.8c0,0.3,0,0.5,0,0.8c0,0.8,0,1.5,0.1,2.2
					c0.1,0.5,0.3,1,0.6,1.4c0-0.2,0-0.4,0-0.4c0.1-0.9,0.3-1.9,0.8-3c0.4-1,1-1.6,1.6-2.3l0.3-0.3c0.2-0.3,0.6-0.3,0.9-0.2
					c0.3,0.2,0.5,0.5,0.4,0.9c-0.4,1.5,0.2,2.9,0.8,4.4c0.4,0.9,0.8,1.9,1,2.9c0.5,2.8-0.6,5.8-2.8,7.4l-0.2,0.2
					c-0.1,0.1-0.3,0.2-0.5,0.4c0.1,0,0.2,0,0.3,0c0.6,0,1.4-0.2,1.6-0.3c4.2-1.5,5.9-6.1,5.7-9.7c-0.1-1.8-0.8-3.2-1.7-4.7
					c-0.2-0.4-0.4-0.8-0.6-1.2c-1.2-2.3-1.9-4.9-2.1-7.4c-0.6,0.9-1.2,2.1-0.9,2.7c0,0,0,0,0,0c0,0,0,0,0,0v0c0,0,0,0,0,0l0,0
					c0,0,0,0,0,0s0,0,0,0c0,0,0,0,0,0c0,0,0,0,0,0c0,0,0,0,0,0c0,0,0,0,0,0c0,0,0,0,0,0l0,0c0.1,0.3,0,0.6-0.2,0.8v0c0,0,0,0,0,0
					l0,0c0,0,0,0,0,0l0,0c0,0,0,0,0,0c0,0,0,0,0,0l0,0c0,0,0,0,0,0c0,0,0,0,0,0c0,0,0,0,0,0l0,0c0,0,0,0,0,0c0,0,0,0,0,0
					c0,0,0,0,0,0c0,0,0,0,0,0c0,0,0,0,0,0c0,0,0,0,0,0c0,0,0,0,0,0l0,0c-0.1,0-0.1,0.1-0.2,0.1c-0.4,0.1-0.7,0-0.9-0.3l0,0
					c0,0,0,0,0,0c0,0,0,0,0,0v0c0,0,0,0,0,0c0,0,0,0,0,0l0,0c0,0,0,0,0,0l0,0c0,0,0,0,0,0s0,0,0,0v0c0,0,0,0,0,0l0,0c0,0,0,0,0,0
					l0,0l0,0h0c0,0,0,0,0,0v0c0,0,0,0,0,0l0,0c0,0,0,0,0-0.1l0,0c0,0,0,0,0,0c0,0,0,0,0,0l0,0c0,0,0,0,0,0c0,0,0,0,0,0l0,0
					c0,0,0,0,0,0s0,0,0,0c0,0,0,0,0,0l0,0l0,0c0,0,0,0,0,0c-0.1-0.3-0.2-0.8-0.4-1.4C27,12.5,25.7,7.4,22,5.3z"/>
				<path d="M19.3,38.6c-2.6,0-6.3-2.5-7.9-6.6c-1.3-3.3-1.3-7.1-0.2-10.6c0.8-2.5,2.5-4.7,4.1-6.7c0.6-0.8,1.2-1.5,1.8-2.3l0.3-0.5
					c1.6-2.2,3.2-4.6,2.4-7.6c-0.1-0.4,0-0.9,0.3-1.2c0.3-0.3,0.8-0.4,1.2-0.3C24.8,4,27.2,7,28.8,12c0.5-0.7,1.1-1.4,1.6-1.7
					c0.4-0.2,0.8-0.3,1.2,0c0.4,0.2,0.6,0.6,0.6,1.1c-0.1,2.6,0.6,5.8,1.9,8.4c0.2,0.4,0.4,0.8,0.6,1.2c0.9,1.7,1.8,3.3,1.9,5.5
					c0.3,4.3-1.8,9.7-6.9,11.6c-0.4,0.1-1.3,0.4-2.2,0.4c-2.3,0-2.4-1.5-2.4-1.8c0-1.1,1-1.7,1.5-2.1l0.2-0.1c1.5-1.1,2.4-3.4,2-5.5
					c-0.1-0.8-0.5-1.6-0.9-2.5c-0.2-0.6-0.5-1.2-0.7-1.8c-0.2,0.6-0.3,1.1-0.4,1.6c0,0.5,0.1,1.4,0.2,1.7c0.4,0.4,0.5,1,0.1,1.5
					c-0.3,0.5-1,0.7-1.5,0.4h0l-0.1-0.1c-1.7-1.2-2.8-2.7-3.1-4.4c-0.2-0.9-0.2-1.7-0.2-2.5l0-0.7c0-0.2,0-0.5,0-0.7l0-0.1
					c0-0.5,0-0.9,0-1.4c-0.2,0.4-0.3,0.7-0.4,1c-0.4,0.8-0.9,1.4-1.4,2c-0.3,0.4-0.6,0.8-0.9,1.2c-0.9,1.5-2.9,5.2-0.8,8.6
					c0.7,1.1,1.4,1.7,2,2.1c0.6,0.4,1.4,1,1.1,2.1C21.6,38,20.6,38.6,19.3,38.6z M21,3.7c-0.1,0-0.2,0-0.2,0.1
					c-0.1,0.1-0.1,0.2-0.1,0.4c0.9,3.4-0.8,5.9-2.5,8.3l-0.3,0.5c-0.6,0.8-1.2,1.6-1.8,2.3c-1.6,2-3.2,4-4,6.5
					c-1.1,3.3-1,6.9,0.2,10c1.4,3.8,4.8,6.1,7.1,6.1c0.9,0,1.5-0.4,1.7-1.1c0.1-0.5-0.2-0.8-0.8-1.3c-0.6-0.4-1.4-1.1-2.2-2.3
					c-2.3-3.8-0.2-7.9,0.8-9.4c0.3-0.5,0.6-0.9,0.9-1.3c0.4-0.6,0.9-1.1,1.3-1.9c0.2-0.5,0.7-1.4,0.9-2.4l0.3-1.4l0.5,1.4
					c0.3,0.9,0.4,2,0.4,3.2l0,0.1c0,0.3,0,0.5,0,0.7l0,0.7c0,0.8,0,1.6,0.2,2.4c0.2,1.5,1.2,2.8,2.7,3.8l0,0
					c0.2,0.1,0.4,0.1,0.5-0.1c0.1-0.2,0.1-0.4-0.1-0.5l-0.1-0.1c-0.2-0.4-0.3-1.7-0.3-2.2c0.1-0.8,0.3-1.7,0.7-2.7
					c0.1-0.1,0.1-0.3,0.2-0.4l0.5-1l0.2,1.1c0.2,1,0.6,1.9,1,2.8c0.4,0.9,0.7,1.8,0.9,2.6c0.4,2.3-0.5,5-2.3,6.3l-0.2,0.1
					c-0.5,0.3-1.1,0.8-1.1,1.4c0,0.4,0.2,1,1.6,1c0.7,0,1.6-0.2,2-0.3c4.7-1.7,6.6-6.8,6.4-10.8c-0.1-2-0.9-3.6-1.8-5.2
					c-0.2-0.4-0.4-0.8-0.6-1.2c-1.4-2.7-2.1-6-2-8.8c0-0.1-0.1-0.3-0.2-0.3c-0.1-0.1-0.3-0.1-0.4,0c-0.6,0.4-1.4,1.3-1.9,2.2
					L28.5,14l-0.3-0.9c-1.5-5.2-3.8-8.3-7.1-9.4C21.1,3.7,21.1,3.7,21,3.7z M19.3,37.1c-1.8,0-5-2-6.5-5.6c-1.1-2.9-1.2-6.5-0.2-9.5
					c0.8-2.3,2.3-4.2,3.9-6.2c0.6-0.7,1.2-1.5,1.8-2.4l0.3-0.5c1.5-2.1,3.1-4.4,2.9-7.5l-0.1-0.8L22.2,5c3.9,2.1,5.1,7.4,5.8,10
					c0.1,0.5,0.2,0.9,0.3,1.2l0.1,0l0,0.2c0.1,0.1,0.3,0.2,0.4,0.1c0,0,0,0,0.1,0l0.1-0.1c0-0.1,0.1-0.2,0.1-0.2l0,0l0-0.2
					c-0.2-1.1,0.8-2.6,1-2.9l0.7-1l0.1,1.2c0.2,2.5,0.9,5,2,7.3c0.2,0.4,0.4,0.8,0.6,1.2c0.9,1.6,1.6,3,1.7,4.9
					c0.2,3.7-1.5,8.5-5.9,10.1c-0.3,0.1-1,0.3-1.7,0.3c-0.1,0-0.3,0-0.4,0l-0.9-0.1l0.7-0.6c0.2-0.1,0.4-0.3,0.5-0.4l0.2-0.2
					c2-1.5,3.1-4.4,2.6-7c-0.2-0.9-0.6-1.9-1-2.8c-0.7-1.6-1.3-3.1-0.8-4.7c0-0.2,0-0.3-0.2-0.4c-0.1-0.1-0.3,0-0.4,0.1l-0.3,0.3
					c-0.6,0.7-1.1,1.3-1.5,2.2c-0.4,1-0.7,2-0.8,2.9c0,0,0,0.2,0,0.4l0,1.4l-0.7-1.2c-0.3-0.5-0.5-1-0.6-1.6
					c-0.1-0.8-0.1-1.5-0.1-2.3l0-0.8c0-0.3,0-0.5,0-0.8c0-2.1,0-4.7-2.5-5.5c-0.2,0-0.3,0-0.4,0.2c-0.1,0.1,0,0.3,0.1,0.4
					c0.7,0.6,0.1,2.4-0.6,3.7c-0.4,0.7-0.8,1.2-1.2,1.8c-0.3,0.4-0.7,0.8-1,1.4c-2.3,3.6-2.6,7.3-0.8,10.2c0.8,1.4,1.8,2,2.4,2.5
					c0.2,0.1,0.3,0.2,0.3,0.2l0.4,0.3l-0.4,0.3C19.9,37,19.7,37.1,19.3,37.1z M22.5,6.1c0,2.9-1.7,5.3-3,7.2l-0.3,0.5
					c-0.6,0.8-1.3,1.7-1.8,2.4c-1.6,2-3,3.8-3.8,6c-1,2.9-0.9,6.3,0.1,9c1.1,2.9,3.5,4.6,5,5c-0.6-0.5-1.3-1.2-1.9-2.2
					c-2-3.2-1.7-7.2,0.8-11.1c0.3-0.5,0.7-1,1-1.4c0.4-0.5,0.8-1,1.1-1.7c0.8-1.6,0.9-2.6,0.8-2.8c-0.4-0.3-0.5-1-0.3-1.4
					c0.3-0.5,0.8-0.7,1.4-0.6c3,0.9,3,4.1,3,6.3c0,0.3,0,0.6,0,0.8l0,0.8c0,0.7,0,1.3,0.1,2c0.1-0.6,0.3-1.2,0.6-1.9
					c0.4-1.1,1-1.7,1.7-2.4l0.3-0.3c0.3-0.4,1-0.5,1.5-0.3c0.5,0.3,0.7,0.8,0.6,1.4c-0.4,1.3,0.2,2.7,0.8,4.2c0.4,0.9,0.8,1.9,1,3
					c0.5,2.7-0.5,5.7-2.5,7.5c0.2,0,0.3-0.1,0.4-0.1c4-1.5,5.6-5.9,5.4-9.3c-0.1-1.7-0.8-3-1.6-4.6c-0.2-0.4-0.4-0.8-0.6-1.2
					c-1-1.9-1.7-4.1-2-6.3c-0.2,0.5-0.3,0.9-0.3,1.2l0.1,0l0,0.1l0.1,0.1l0,0.1l0,0l0,0.1c0,0.3-0.1,0.6-0.3,0.9V17L29.5,17
					l-0.1,0.1l-0.1,0c0,0-0.1,0.1-0.2,0.1c-0.5,0.2-1.1,0-1.4-0.4l-0.1-0.1l0-0.2c-0.1-0.3-0.2-0.8-0.4-1.3
					C26.6,12.7,25.5,8.2,22.5,6.1z"/>
			</g>
		</g>
	</g>
</g>
</svg>
