<?xml version="1.0" encoding="utf-8"?>
<!-- Generator: Adobe Illustrator 18.1.1, SVG Export Plug-In . SVG Version: 6.00 Build 0)  -->
<svg version="1.1" id="Layer_1" xmlns="http://www.w3.org/2000/svg" xmlns:xlink="http://www.w3.org/1999/xlink" x="0px" y="0px"
	 viewBox="0 0 47 41.4" enable-background="new 0 0 47 41.4" xml:space="preserve">
<g>
	<g>
		<path d="M19,36.3L19,36.3c-2.1,0-3.9-0.5-5.5-1.3c-1.2,0.6-2.7,0.5-3.5-0.5c-0.9-0.9-1-2.3-0.5-3.5c-2.9-5.3-0.9-13.2,4.8-18.9
			c3.9-3.9,8.7-6.1,13.3-6.1c2.1,0,4,0.5,5.6,1.4c1.2-0.5,2.6-0.3,3.4,0.5s1,2.2,0.5,3.4c2.9,5.3,1,13.2-4.7,18.9
			C28.4,34.1,23.6,36.3,19,36.3z M13.4,33.6c0.1,0,0.2,0,0.3,0.1C15.2,34.5,17,35,19,35c4.2,0,8.8-2.1,12.4-5.7
			c5.4-5.4,7.2-12.8,4.3-17.6c-0.1-0.2-0.1-0.5,0-0.6c0.5-0.8,0.4-1.7-0.1-2.3c-0.4-0.4-0.8-0.5-1.1-0.5c-0.4,0-0.8,0.1-1.1,0.3
			c-0.2,0.1-0.5,0.1-0.6,0c-1.5-0.9-3.3-1.4-5.2-1.4c-4.2,0-8.8,2.1-12.4,5.7c-5.4,5.4-7.3,12.8-4.4,17.6c0.1,0.2,0.1,0.5,0,0.6
			c-0.5,0.8-0.5,1.8,0.1,2.3c0.3,0.4,0.8,0.5,1.1,0.5c0.4,0,0.8-0.1,1.2-0.4C13.2,33.6,13.3,33.6,13.4,33.6z"/>
		<path d="M19,36.8c-2,0-3.9-0.4-5.6-1.2c-1.4,0.6-3,0.3-3.9-0.7c-1-1-1.2-2.5-0.6-3.9c-2.9-5.6-0.8-13.4,5-19.2
			c3.9-3.9,8.9-6.2,13.7-6.2c2.1,0,4,0.4,5.6,1.3c1.3-0.5,2.8-0.2,3.7,0.7c0.9,0.9,1.2,2.4,0.7,3.7c2.9,5.6,0.9,13.5-4.9,19.3
			C28.7,34.5,23.7,36.8,19,36.8z M13.5,34.4l0.2,0.1c1.6,0.8,3.4,1.2,5.3,1.2c4.4,0,9.2-2.1,13-5.8c5.5-5.6,7.4-13.1,4.6-18.3
			l-0.1-0.2l0.1-0.2c0.4-1.1,0.3-2.2-0.4-2.9c-0.7-0.7-1.8-0.8-2.9-0.4L33.1,8l-0.2-0.1c-1.5-0.8-3.4-1.3-5.4-1.3
			c-4.5,0-9.2,2.2-13,5.9c-5.5,5.5-7.4,13.2-4.7,18.3L10,31l-0.1,0.2c-0.5,1.1-0.4,2.2,0.4,3c0.7,0.7,1.9,0.8,3,0.4L13.5,34.4z
			 M19,35.5c-2.1,0-3.9-0.5-5.5-1.4l-0.1,0c-0.1,0-0.1,0-0.1,0c-0.4,0.3-0.9,0.4-1.4,0.4c-0.6,0-1.1-0.2-1.5-0.6
			C9.8,33.2,9.7,32,10.3,31l0,0l0-0.1c-3-5-1.1-12.7,4.5-18.2c3.7-3.6,8.5-5.8,12.8-5.8c2,0,3.9,0.5,5.5,1.4l0,0l0.1,0
			C33.6,8,34,7.8,34.5,7.8c0.3,0,0.9,0.1,1.4,0.6c0.7,0.7,0.8,1.8,0.2,2.8l0,0l0,0.1c3,5,1.2,12.7-4.4,18.2
			C28.1,33.3,23.3,35.5,19,35.5z M13.4,33.1c0.2,0,0.3,0,0.5,0.1c1.4,0.9,3.1,1.3,5,1.3c4,0,8.6-2.1,12.1-5.5c5.2-5.2,7-12.4,4.2-17
			c-0.2-0.3-0.2-0.8,0-1.2c0.3-0.6,0.3-1.3-0.1-1.6c-0.3-0.3-0.5-0.3-0.7-0.3c-0.3,0-0.6,0.1-0.8,0.2c-0.3,0.2-0.8,0.2-1.2,0
			c-1.4-0.8-3.1-1.3-4.9-1.3c-4,0-8.6,2.1-12.1,5.5c-5.3,5.3-7.1,12.4-4.3,17c0.2,0.3,0.2,0.8,0,1.2c-0.4,0.6-0.4,1.3,0,1.7
			c0.2,0.2,0.4,0.3,0.7,0.3c0.3,0,0.7-0.1,0.9-0.3l0.1-0.1h0.2C13.2,33.1,13.3,33.1,13.4,33.1z"/>
	</g>
	<g>
		<path d="M19.8,31.8c-0.3,0-0.6-0.2-0.6-0.5c-0.1-0.3,0.1-0.7,0.5-0.8l0.4-0.1c0.3-0.1,0.7,0.1,0.8,0.5c0.1,0.3-0.1,0.7-0.5,0.8
			l-0.4,0.1C19.9,31.7,19.9,31.8,19.8,31.8z"/>
		<path d="M19.8,32.3c-0.5,0-1-0.3-1.1-0.9c-0.1-0.3,0-0.6,0.1-0.8c0.2-0.3,0.4-0.5,0.7-0.5l0.3-0.1c0.1,0,0.2,0,0.3,0
			c0.5,0,1,0.4,1.1,0.9c0.1,0.3,0,0.6-0.1,0.8c-0.2,0.3-0.4,0.5-0.7,0.5l-0.3,0.1C20.1,32.3,19.9,32.3,19.8,32.3z M20.1,30.9
			L19.8,31c-0.1,0-0.1,0.1-0.1,0.2c0,0,0,0.1,0.1,0.1l0.1,0l0.4-0.1c0.1,0,0.1-0.1,0.1-0.2C20.3,30.9,20.2,30.9,20.1,30.9z"/>
	</g>
	<g>
		<path d="M26.4,29.2c-0.1,0-0.1,0-0.2-0.1c-0.4-0.1-0.7-0.5-0.8-1c0-0.4,0.3-0.6,0.6-0.7c0.3,0,0.6,0.2,0.6,0.5
			c0.3,0.1,0.4,0.5,0.3,0.8C26.9,29,26.6,29.2,26.4,29.2z"/>
		<path d="M26.4,29.7c-0.1,0-0.3,0-0.4-0.1c-0.5-0.2-0.9-0.7-1-1.3c0-0.7,0.4-1.2,1-1.3c0,0,0,0,0,0c0.6,0,1,0.3,1.1,0.7
			c0.3,0.3,0.5,0.7,0.4,1.2C27.3,29.4,26.9,29.7,26.4,29.7z M26.4,28.7l0,0.5L26.4,28.7C26.4,28.7,26.4,28.7,26.4,28.7z M26,28
			c0,0-0.1,0.1-0.1,0.2c0,0.2,0.2,0.4,0.4,0.5l0.1,0c0,0,0,0,0.1-0.1c0-0.1,0-0.2-0.1-0.2l-0.2-0.1l0-0.2C26.1,28.1,26.1,28,26,28z"
			/>
	</g>
	<g>
		<path d="M22.9,27.9h-0.1c-0.4,0-0.6-0.3-0.6-0.6s0.3-0.6,0.6-0.6h0.1c0.4,0,0.6,0.3,0.6,0.6C23.6,27.6,23.2,27.9,22.9,27.9z"/>
		<path d="M22.9,28.4h-0.1c-0.7,0-1.1-0.5-1.1-1.1s0.5-1.1,1.1-1.1h0.1c0.7,0,1.1,0.5,1.1,1.1C24.1,27.8,23.5,28.4,22.9,28.4z
			 M22.8,27.1c-0.1,0-0.1,0-0.1,0.1s0,0.1,0.1,0.1h0.1c0,0,0.1-0.1,0.1-0.1c0-0.1,0-0.1-0.1-0.1H22.8z"/>
	</g>
	<g>
		<path d="M25.2,24.2c-0.3,0-0.6-0.2-0.6-0.5c-0.1-0.3,0.1-0.7,0.5-0.8l0.5-0.1c0.3-0.1,0.7,0.1,0.8,0.5c0.1,0.3-0.1,0.7-0.5,0.8
			l-0.5,0.1C25.2,24.2,25.2,24.2,25.2,24.2z"/>
		<path d="M25.4,24.7h-0.2c-0.6,0-1-0.4-1.1-0.9c-0.1-0.3,0-0.6,0.2-0.9c0.2-0.3,0.4-0.4,0.7-0.5l0.5-0.1c0.1,0,0.2,0,0.2,0
			c0.6,0,1,0.4,1.1,0.9c0.1,0.3,0,0.6-0.2,0.9c-0.2,0.3-0.4,0.4-0.7,0.5L25.4,24.7z M25.7,23.2L25,23.4c0,0,0,0.1,0,0.1
			c0,0,0,0.1,0.2,0.1h0.1l0.6-0.2c0,0,0-0.1,0-0.1C25.8,23.2,25.7,23.2,25.7,23.2z"/>
	</g>
	<g>
		<path d="M20.1,26.1C20.1,26.1,20.1,26.1,20.1,26.1c-0.4,0-0.6-0.3-0.6-0.6c0-0.3,0.3-0.6,0.6-0.6c0.2-0.3,0.6-0.3,0.8-0.1
			c0.3,0.2,0.4,0.6,0.2,0.9C20.9,26,20.5,26.1,20.1,26.1z"/>
		<path d="M20.1,26.6L20.1,26.6c-0.6,0-1.1-0.5-1.1-1.1c0-0.5,0.3-0.9,0.8-1.1c0.4-0.3,1-0.4,1.4-0.1c0.2,0.1,0.4,0.4,0.5,0.7
			c0.1,0.3,0,0.6-0.2,0.9C21.1,26.4,20.7,26.6,20.1,26.6z M20.7,25.2l-0.1,0.2l-0.4,0c-0.1,0-0.2,0.1-0.2,0.2c0,0,0,0.1,0.1,0.1
			c0.1,0,0.3,0,0.6-0.3C20.7,25.3,20.7,25.2,20.7,25.2z"/>
	</g>
</g>
</svg>
