<?xml version="1.0" encoding="utf-8"?>
<!-- Generator: Adobe Illustrator 18.1.1, SVG Export Plug-In . SVG Version: 6.00 Build 0)  -->
<svg version="1.1" id="Layer_1" xmlns="http://www.w3.org/2000/svg" xmlns:xlink="http://www.w3.org/1999/xlink" x="0px" y="0px"
	 viewBox="0 0 47 41.4" enable-background="new 0 0 47 41.4" xml:space="preserve">
<g>
	<path d="M10.3,33.5c-1.2,0-2.1-0.9-2.8-2.8c-1.5-4.2,5-7.7,5-7.7c2.7-1.6,10.1-5.9,11.4-7.1c1-1,3.6-3.2,6.5-3.2
		c1.6,0,3.9,0.7,5.5,4.2c1.3,1,3.1,3.4,2.1,6.3c-0.9,2.7-5.5,7.9-16.5,7.9c-1.5,0-3-0.1-4.6-0.3c0,0-1.1-0.1-2.4-0.1
		c-2,0-2.8,0.3-2.9,0.5c0,0,0.1,0.2,0.3,0.4c0.3,0.4,0.3,1-0.1,1.3C11.7,33,11.1,33.5,10.3,33.5z M30.4,14.7c-2.2,0-4.5,2-5.1,2.6
		c-1.7,1.6-10.8,6.8-11.8,7.4c-0.9,0.5-4.9,3.1-4.1,5.3c0.1,0.3,0.2,0.5,0.3,0.7c0-0.2,0.1-0.4,0.2-0.5c0.5-1.1,2-1.6,4.7-1.6
		c1.4,0,2.6,0.1,2.6,0.1c1.5,0.2,3,0.3,4.4,0.3c0,0,0,0,0,0c9.1,0,13.7-3.9,14.6-6.5c0.8-2.5-1.5-4.2-1.6-4.2
		c-0.1-0.1-0.3-0.2-0.3-0.4C33.2,15.8,32,14.7,30.4,14.7z"/>
</g>
<g>
	<path d="M35.3,17.8l-1.1-1.7l0.5,0.8l-0.5-0.8c0.1-0.1,2.7-1.8,2.7-5.5l2,0C39,15.4,35.5,17.7,35.3,17.8z"/>
</g>
<g>
	<path d="M36.7,19.1l-1.3-1.5c0,0,3.4-3.2,3.2-6.7l2-0.1C40.9,15.3,36.9,19,36.7,19.1z"/>
</g>
<g>
	<path d="M38.8,12.3c-1.1,0-1.9-0.7-1.9-1.6c0-0.9,0.8-1.6,1.9-1.6s1.9,0.7,1.9,1.6C40.7,11.6,39.8,12.3,38.8,12.3z M38.8,10.4
		c-0.1,0.1-0.1,0.2-0.1,0.3c0,0.2,0.1,0.3,0.1,0.3c0.1-0.1,0.1-0.2,0.1-0.3S38.9,10.4,38.8,10.4z"/>
</g>
<g>
	<path d="M24.5,28.4c-0.2,0-0.4-0.2-0.4-0.4c0-0.2,0.2-0.4,0.4-0.4c6.5-0.2,9-3.8,9-3.9c0.1-0.2,0.3-0.2,0.5-0.1
		c0.2,0.1,0.2,0.3,0.1,0.5C34,24.4,31.4,28.2,24.5,28.4C24.5,28.4,24.5,28.4,24.5,28.4z"/>
</g>
</svg>
