<?xml version="1.0" encoding="utf-8"?>
<!-- Generator: Adobe Illustrator 18.1.1, SVG Export Plug-In . SVG Version: 6.00 Build 0)  -->
<svg version="1.1" id="Layer_1" xmlns="http://www.w3.org/2000/svg" xmlns:xlink="http://www.w3.org/1999/xlink" x="0px" y="0px"
	 viewBox="0 0 47 41.4" enable-background="new 0 0 47 41.4" xml:space="preserve">
<path fill="none" stroke="#000000" stroke-width="2" stroke-linecap="round" stroke-linejoin="round" stroke-miterlimit="10" d="
	M29.6,16.2v16.7H13.2c0,0,0-16.7,0-16.7h-1c-1.5,0-2.7-1.2-2.7-2.7v0c0-1.5,1.2-2.7,2.7-2.7h18.4c1.5,0,2.7,1.2,2.7,2.7v0
	c0,1.5-1.2,2.7-2.7,2.7C30.6,16.2,29.6,16.2,29.6,16.2z"/>
<path fill="none" stroke="#000000" stroke-width="2" stroke-linecap="round" stroke-linejoin="round" stroke-miterlimit="10" d="
	M10.3,11.7l1.3-1.6c1.4-1.4,3.4-2.3,5.4-2.3H31c0,0,4.2-0.3,4.7,2.8c0,0,0.3,2.5-2.7,4.2v15.3L30,32.9"/>
<line fill="none" stroke="#000000" stroke-width="2" stroke-linecap="round" stroke-linejoin="round" stroke-miterlimit="10" x1="21.2" y1="14.4" x2="16.5" y2="20.3"/>
<line fill="none" stroke="#000000" stroke-width="2" stroke-linecap="round" stroke-linejoin="round" stroke-miterlimit="10" x1="24.3" y1="16.5" x2="16.8" y2="25.2"/>
<line fill="none" stroke="#000000" stroke-width="2" stroke-linecap="round" stroke-linejoin="round" stroke-miterlimit="10" x1="26.1" y1="21.1" x2="18.1" y2="30.2"/>
</svg>
