<?xml version="1.0" encoding="utf-8"?>
<!-- Generator: Adobe Illustrator 18.1.1, SVG Export Plug-In . SVG Version: 6.00 Build 0)  -->
<svg version="1.1" id="Layer_1" xmlns="http://www.w3.org/2000/svg" xmlns:xlink="http://www.w3.org/1999/xlink" x="0px" y="0px"
	 viewBox="0 0 42 42" enable-background="new 0 0 42 42" xml:space="preserve">
<path fill="#55ACEE" d="M35.8,6.2c-8.2-8.2-21.5-8.2-29.7,0c-8.2,8.2-8.2,21.5,0,29.7c8.2,8.2,21.5,8.2,29.7,0
	C44.1,27.6,44.1,14.4,35.8,6.2z M29.5,16.6c0,0.2,0,0.4,0,0.6c0,5.8-4.4,12.5-12.5,12.5c-2.5,0-4.8-0.7-6.7-2c0.3,0,0.7,0.1,1,0.1
	c2.1,0,4-0.7,5.5-1.9c-1.9,0-3.5-1.3-4.1-3.1c0.3,0.1,0.5,0.1,0.8,0.1c0.4,0,0.8-0.1,1.2-0.2c-2-0.4-3.5-2.2-3.5-4.3v-0.1
	c0.6,0.3,1.3,0.5,2,0.5c-1.2-0.8-2-2.1-2-3.7c0-0.8,0.2-1.6,0.6-2.2c2.2,2.7,5.4,4.4,9.1,4.6c-0.1-0.3-0.1-0.7-0.1-1
	c0-2.4,2-4.4,4.4-4.4c1.3,0,2.4,0.5,3.2,1.4c1-0.2,1.9-0.6,2.8-1.1c-0.3,1-1,1.9-1.9,2.4c0.9-0.1,1.7-0.3,2.5-0.7
	C31.1,15.2,30.4,16,29.5,16.6z"/>
</svg>
