<?xml version="1.0" encoding="utf-8"?>
<!-- Generator: Adobe Illustrator 18.1.1, SVG Export Plug-In . SVG Version: 6.00 Build 0)  -->
<svg version="1.1" id="Layer_1" xmlns="http://www.w3.org/2000/svg" xmlns:xlink="http://www.w3.org/1999/xlink" x="0px" y="0px"
	 viewBox="0 0 42.2 42.2" enable-background="new 0 0 42.2 42.2" xml:space="preserve">
<path fill="#46535B" d="M21.1,0C9.5,0,0,9.5,0,21.1s9.5,21.1,21.1,21.1s21.1-9.5,21.1-21.1S32.8,0,21.1,0z M21.1,3
	c10,0,18.1,8.1,18.1,18.1c0,3.8-1.2,7.3-3.2,10.2c-1.3-2.3-4.1-3.6-6.3-4.6c-0.9-0.4-2.2-1-2.6-1.4c0-0.3,0.2-0.5,0.8-1.1
	c1.1-1.1,2.7-2.7,2.7-6.5c0-5.1-3.5-10.4-9.5-10.4s-9.5,5.3-9.5,10.4c0,4.6,2,6.3,3.1,7.4c0.1,0.1,0.2,0.1,0.2,0.2
	c-0.4,0.3-1.1,0.6-1.6,0.8c-2.4,1.2-5.7,2.8-7,5.7C4.3,28.8,3,25.1,3,21.1C3,11.1,11.1,3,21.1,3z M9,34.6c0-0.1,0-0.2,0-0.3
	c0-2.6,3.4-4.2,5.8-5.4c2.1-1,3.6-1.8,3.6-3.3c0-1.3-0.8-2-1.5-2.7c-1-0.9-2.1-1.9-2.1-5.2c0-3.6,2.4-7.4,6.5-7.4s6.5,3.8,6.5,7.4
	c0,2.6-0.9,3.4-1.8,4.4c-0.8,0.8-1.8,1.7-1.8,3.4c0,2,2.1,3,4.4,4c2.9,1.3,5.2,2.5,5.3,4.6c-3.3,3.2-7.8,5.2-12.7,5.2
	C16.5,39.2,12.2,37.5,9,34.6z"/>
</svg>
